if (_typeface_js && _typeface_js.loadFace) _typeface_js.loadFace({"glyphs":{"0":{"ha":688,"x_min":37,"x_max":652,"o":"m 385 502 q 347 510 375 510 q 320 506 329 510 q 297 487 311 502 q 272 440 272 458 q 279 418 272 428 q 308 398 287 406 q 352 390 330 390 q 389 400 369 390 q 419 424 410 411 q 426 440 426 434 q 412 468 426 444 q 385 502 399 488 m 455 530 q 435 542 455 542 q 411 532 421 542 q 400 512 400 522 q 404 501 400 507 q 419 492 413 492 q 442 506 428 492 q 455 530 455 520 m 284 517 q 251 539 272 539 q 248 539 250 539 l 247 538 q 238 522 238 535 q 250 495 238 503 q 271 486 259 486 q 288 503 288 486 q 284 517 288 508 m 404 584 q 387 598 397 598 q 360 572 370 598 q 356 553 356 561 q 375 527 356 527 q 385 530 380 527 q 407 569 407 542 q 404 584 407 578 m 321 583 q 299 598 309 598 q 284 587 291 598 q 280 572 280 580 q 291 542 280 556 q 314 528 302 528 q 322 530 317 528 q 333 551 333 535 q 321 583 333 567 m 266 947 q 337 954 287 954 l 356 954 q 457 934 419 953 q 642 648 605 866 q 652 510 652 593 q 633 304 652 375 q 387 58 573 83 q 338 54 359 54 q 294 58 318 54 q 117 163 178 78 q 41 413 57 248 q 37 500 37 458 q 98 791 37 671 q 266 947 159 911 z "},"1":{"ha":486,"x_min":39,"x_max":450,"o":"m 118 928 q 135 938 134 938 q 200 907 160 938 q 250 892 222 892 q 313 912 281 892 q 365 935 350 935 q 390 924 376 935 q 416 875 404 911 q 427 804 427 839 q 436 725 427 780 q 450 422 450 655 q 447 273 450 334 q 427 140 441 172 q 285 46 385 47 l 281 46 q 193 67 229 46 q 138 126 157 87 q 111 211 119 164 q 103 318 103 257 q 111 476 103 381 l 119 557 l 103 557 q 60 584 80 557 q 39 644 39 612 q 57 699 39 660 q 79 801 76 740 q 118 928 84 905 z "},"2":{"ha":649,"x_min":39,"x_max":610,"o":"m 178 927 q 200 936 193 936 q 245 904 214 936 l 278 870 l 326 873 q 372 878 362 874 q 395 899 381 882 q 433 932 414 924 q 450 936 443 936 q 470 927 459 936 q 538 817 510 898 q 578 725 553 775 q 597 679 593 696 q 603 624 601 662 q 604 606 603 617 q 604 591 604 595 q 580 515 604 563 q 434 341 538 433 q 382 287 382 295 q 448 271 382 271 q 468 271 454 271 q 490 272 481 272 l 525 272 q 584 262 573 272 q 610 183 610 240 q 609 171 610 179 q 609 159 609 163 q 596 99 606 118 q 559 65 586 80 q 511 53 543 56 q 350 50 479 51 q 301 49 331 50 q 259 49 271 49 q 139 57 167 49 q 83 97 111 65 q 39 222 39 148 q 88 376 39 301 q 181 495 118 420 q 249 582 249 576 q 237 601 249 590 q 215 612 225 612 l 214 611 q 212 611 213 611 q 172 603 192 603 q 93 654 123 603 q 78 703 78 679 q 96 781 78 727 q 178 927 135 897 z "},"3":{"ha":619,"x_min":39,"x_max":580,"o":"m 387 932 q 412 944 407 944 q 446 920 425 944 q 480 867 468 896 q 499 824 485 858 q 522 774 514 791 q 556 644 556 704 q 553 611 556 622 q 501 497 539 529 l 483 480 l 508 450 q 556 380 535 422 q 579 286 576 336 q 579 273 579 281 q 580 262 580 265 q 565 199 580 233 q 471 91 536 135 q 396 57 446 73 q 318 42 347 42 q 157 83 241 42 q 77 140 96 113 q 58 223 58 167 q 95 326 58 296 q 128 333 105 333 q 193 324 153 333 q 229 318 216 318 q 265 345 259 318 q 266 353 266 348 q 201 394 266 381 q 146 417 159 402 q 130 473 130 438 q 135 503 130 490 q 155 525 141 516 q 220 558 169 535 q 247 574 242 568 q 252 595 252 580 q 249 613 252 610 q 230 619 247 617 l 227 619 q 178 611 205 619 q 127 601 149 601 q 80 620 103 601 q 39 697 39 656 q 80 779 39 737 q 109 829 94 795 q 139 888 120 859 q 169 921 159 917 q 189 926 183 926 q 238 897 209 926 q 281 872 264 872 q 302 873 293 872 q 334 880 325 875 q 353 898 343 884 q 387 932 370 922 z "},"4":{"ha":722,"x_min":38,"x_max":685,"o":"m 402 572 q 373 575 392 575 q 344 572 352 575 q 316 540 333 568 q 299 499 299 512 q 323 468 299 481 q 374 455 347 455 q 425 468 400 455 q 449 499 449 481 q 431 539 449 512 q 402 572 413 567 m 280 602 q 266 586 266 602 q 276 561 266 572 q 299 550 286 550 q 310 566 310 550 q 300 591 310 581 q 280 602 289 602 m 476 593 q 462 608 476 608 q 436 594 450 608 q 426 573 426 583 q 440 558 426 561 l 443 558 q 465 569 455 558 q 476 593 476 580 m 352 639 q 326 659 340 659 q 306 637 306 659 q 322 600 306 619 q 339 589 331 589 q 358 616 358 589 q 352 639 358 628 m 431 633 q 421 659 431 649 q 396 649 412 666 q 381 617 381 634 q 395 593 381 602 q 403 590 399 590 q 422 605 413 590 q 431 633 431 620 m 338 938 q 391 942 363 942 q 494 931 463 942 q 594 832 566 905 q 622 595 622 759 l 622 509 l 652 483 q 678 454 674 463 q 684 416 683 446 q 685 401 684 411 q 685 385 685 391 q 683 351 685 365 q 661 311 679 332 q 630 289 642 289 q 604 275 610 288 q 596 211 598 262 q 580 124 593 154 q 539 75 567 94 q 442 47 498 47 q 317 103 355 47 q 295 154 304 120 q 285 212 285 188 q 271 241 285 230 q 236 252 258 252 q 147 270 196 252 q 78 310 98 288 q 38 421 38 353 q 46 483 38 454 q 149 731 68 568 q 243 881 201 836 q 338 938 285 926 z "},"5":{"ha":575,"x_min":35,"x_max":536,"o":"m 314 921 q 348 942 336 942 q 372 933 355 942 q 410 888 384 925 q 435 839 435 851 q 448 828 435 832 q 484 743 476 819 q 485 725 485 736 q 473 681 485 705 q 449 652 462 656 q 368 642 436 647 q 300 633 304 638 q 291 589 291 624 q 294 569 291 574 q 343 556 301 559 q 470 503 419 546 q 512 448 493 483 q 535 348 532 409 q 535 334 535 344 q 536 322 536 325 q 469 130 536 197 q 244 52 395 53 q 80 98 126 52 q 43 199 43 135 q 57 264 43 234 q 79 286 65 281 q 145 294 93 291 q 242 331 234 300 q 243 343 243 336 q 156 385 243 385 q 91 396 123 385 q 49 421 60 406 q 37 459 39 433 q 35 594 35 485 l 35 750 l 65 819 q 153 931 112 931 q 231 863 184 931 q 253 843 247 843 q 275 864 259 843 q 291 894 291 885 q 314 921 291 900 z "},"6":{"ha":662,"x_min":36,"x_max":625,"o":"m 384 328 q 355 334 370 334 q 322 326 338 334 q 293 296 308 321 q 279 256 279 271 q 303 226 279 236 q 354 215 326 215 q 406 226 382 215 q 431 255 431 236 q 414 296 431 270 q 384 328 398 322 m 286 344 q 259 360 277 360 q 244 345 244 360 q 255 320 244 331 q 278 309 266 309 q 292 318 288 309 q 286 344 296 328 m 444 366 q 420 354 431 366 q 410 330 410 343 q 424 315 410 315 q 448 326 438 315 q 459 352 459 338 q 444 366 459 366 m 410 407 q 392 422 403 422 q 375 410 383 422 q 365 370 365 396 q 370 351 365 354 q 380 348 374 348 q 403 362 392 348 q 413 392 413 376 q 410 407 413 400 m 325 406 q 301 424 311 424 q 288 397 288 424 q 309 353 288 365 q 321 350 316 350 q 338 373 338 350 q 325 406 338 388 m 306 922 q 367 931 329 931 q 429 921 409 931 q 506 804 506 883 q 388 622 506 721 q 366 594 366 603 q 418 580 366 583 q 603 463 549 571 q 624 358 622 427 q 624 344 624 353 q 625 330 625 334 q 554 128 625 206 q 343 49 480 49 q 255 58 303 49 q 113 137 166 78 q 43 302 61 197 q 36 388 36 345 q 53 535 36 451 q 152 791 87 691 q 306 922 218 891 z "},"7":{"ha":582,"x_min":38,"x_max":546,"o":"m 399 942 q 427 951 412 948 l 428 951 q 479 905 450 951 q 531 787 508 859 q 546 707 546 742 q 546 692 546 703 q 545 676 545 682 q 500 437 542 616 q 428 174 458 258 q 366 61 400 96 q 279 27 331 27 q 219 36 253 27 q 144 78 171 49 q 116 144 116 106 q 149 285 116 184 q 235 501 183 387 q 260 569 260 558 q 255 571 260 571 q 216 566 249 571 q 155 559 172 559 q 104 574 132 559 q 63 609 75 589 q 38 697 38 646 q 61 765 38 745 q 84 803 76 778 q 130 894 101 855 q 182 933 160 933 q 218 910 194 933 q 263 855 242 888 q 300 825 282 825 q 318 831 318 825 q 353 888 318 840 q 399 942 388 935 z "},"8":{"ha":631,"x_min":37,"x_max":590,"o":"m 354 296 q 333 314 341 310 q 306 318 324 318 q 270 311 281 317 q 242 279 259 304 q 229 245 229 262 q 256 209 229 223 q 303 198 279 198 q 350 209 326 198 q 381 248 381 225 q 354 296 381 267 m 233 332 q 207 344 222 344 q 192 331 192 344 q 204 307 192 319 q 227 295 216 295 l 229 295 q 242 311 242 299 q 233 332 242 321 m 411 344 q 396 351 407 351 q 367 338 377 351 q 358 318 358 326 q 375 303 358 303 q 399 316 387 303 q 412 339 412 329 q 411 344 412 343 m 362 389 q 345 406 361 406 q 323 394 332 406 q 313 362 313 377 q 332 334 313 334 q 344 338 337 334 q 363 377 363 348 q 362 389 363 385 m 277 394 q 252 407 266 407 q 241 403 244 407 q 236 387 236 398 q 247 352 236 366 q 272 338 255 338 q 284 342 281 338 q 287 359 287 346 q 277 394 287 378 m 341 721 q 301 729 328 729 q 277 726 285 729 q 249 693 269 722 q 230 655 230 664 q 245 628 230 641 q 304 610 264 610 q 354 619 331 610 q 383 644 376 628 q 387 656 387 650 q 373 686 387 664 q 341 721 352 714 m 243 722 q 213 756 243 756 q 198 741 198 756 q 208 716 198 727 q 230 705 218 705 q 243 722 243 705 m 394 760 q 373 752 381 760 q 362 728 362 742 q 376 711 362 711 q 400 723 388 711 q 412 745 412 735 q 394 760 412 760 m 360 811 q 347 819 355 819 q 325 804 336 819 q 315 772 315 788 q 318 756 315 763 q 333 743 325 743 q 352 755 343 743 q 365 793 365 767 q 360 811 365 802 m 277 808 q 259 818 269 818 q 243 806 250 818 q 238 788 238 796 q 259 750 238 765 q 274 744 271 743 q 285 752 278 744 q 291 772 291 762 q 277 808 291 792 m 249 946 q 300 950 277 950 q 424 932 375 950 q 519 858 478 911 q 573 740 560 804 q 578 694 578 709 q 515 538 578 606 l 488 509 l 510 486 q 582 344 557 440 q 590 277 590 315 q 569 171 590 216 q 517 100 552 135 q 447 47 481 64 q 328 29 413 31 q 306 28 319 29 q 287 28 293 28 q 199 36 230 28 q 140 68 168 45 q 61 161 86 112 q 37 274 37 209 q 56 381 38 336 q 125 499 73 427 q 126 502 126 500 q 104 534 126 512 q 43 683 43 595 q 72 803 43 742 q 145 896 98 859 q 249 946 191 934 z "},"9":{"ha":691,"x_min":39,"x_max":653,"o":"m 403 653 q 358 683 381 679 q 351 683 355 683 q 346 684 347 684 q 288 648 317 684 q 270 604 270 626 q 347 557 270 557 q 405 570 384 557 q 426 604 426 583 q 403 653 426 628 m 271 700 q 248 712 257 712 q 231 692 231 712 q 245 669 231 682 q 269 656 259 656 l 272 656 q 282 675 282 660 q 271 700 282 689 m 456 699 q 440 716 456 716 q 416 705 427 716 q 403 679 403 692 q 419 663 403 663 q 440 671 428 663 q 456 699 456 683 m 406 758 q 389 774 403 774 q 368 760 376 774 q 359 725 359 748 q 368 700 359 704 q 376 699 370 699 q 398 712 389 699 q 407 744 407 726 q 406 758 407 753 m 319 758 q 296 773 308 773 q 282 766 289 773 q 277 749 277 760 q 288 715 277 731 q 314 698 300 698 q 332 722 332 698 q 319 758 332 742 m 269 947 q 324 950 289 950 q 416 943 375 950 q 652 631 627 906 q 653 602 653 622 q 630 426 653 527 q 571 248 606 325 q 307 30 472 32 q 230 47 258 30 q 183 91 203 64 q 168 121 171 109 q 164 163 164 133 q 182 238 166 208 q 251 319 198 267 q 306 383 306 372 q 258 396 306 392 q 132 439 186 402 q 54 537 78 477 q 39 655 39 575 q 47 743 39 711 q 126 880 68 826 q 269 947 184 933 z "},"\u0000":{"ha":243,"x_min":0,"x_max":0,"o":""},"\r":{"ha":243,"x_min":0,"x_max":0,"o":""}," ":{"ha":243,"x_min":0,"x_max":0,"o":""},"!":{"ha":377,"x_min":36,"x_max":340,"o":"m 185 140 q 178 148 178 144 q 188 157 178 157 q 198 150 192 157 q 199 139 204 142 q 185 140 194 135 m 272 171 q 258 163 259 171 q 260 159 257 160 q 267 157 264 157 q 281 164 281 157 q 272 171 281 171 m 122 164 q 104 170 112 170 q 95 164 95 170 q 113 157 95 157 q 126 160 125 157 l 122 164 m 230 242 q 189 250 211 250 q 110 214 139 250 q 95 192 95 194 q 118 176 95 186 q 138 156 138 167 q 113 145 138 145 q 98 138 98 142 q 119 134 104 130 q 135 131 135 139 q 125 125 135 125 q 116 119 116 125 q 137 98 116 111 q 189 84 159 84 q 240 98 218 84 q 260 119 260 111 q 251 125 260 125 q 242 131 242 125 q 257 134 242 138 q 264 133 259 133 q 278 140 278 133 q 263 145 278 145 q 238 157 238 145 q 266 181 238 171 q 281 191 281 185 q 263 218 281 199 q 230 242 245 236 m 274 265 q 248 271 274 288 q 243 267 244 269 q 242 263 242 265 q 244 260 242 262 q 251 255 247 258 q 265 248 259 248 q 274 265 274 248 m 132 272 q 118 277 127 280 q 109 264 109 273 q 111 255 109 256 q 122 258 113 253 q 132 272 137 265 m 91 291 q 109 297 97 297 q 142 285 126 297 q 189 273 157 273 q 234 285 219 273 q 269 297 249 297 q 285 293 282 297 q 288 263 288 288 q 297 211 291 221 q 308 170 308 191 q 269 89 308 123 q 189 59 231 59 q 83 117 123 59 q 68 164 68 137 q 79 209 68 185 q 89 256 89 230 q 91 291 89 287 m 124 947 q 178 963 161 963 q 236 949 204 963 q 288 917 269 935 q 325 852 315 891 q 339 730 336 814 q 340 681 340 713 q 297 407 340 516 q 189 297 255 297 q 78 405 120 297 q 36 681 36 512 q 37 734 36 715 q 49 856 41 821 q 124 947 64 919 z "},"#":{"ha":909,"x_min":37,"x_max":872,"o":"m 497 522 q 451 535 490 535 q 406 522 413 535 q 399 491 399 508 q 406 456 399 473 q 418 440 411 443 q 450 438 425 438 q 493 447 483 438 q 503 486 503 457 q 497 522 503 506 m 285 920 q 281 934 281 928 q 289 939 281 939 q 302 938 296 939 q 322 932 318 936 q 328 909 325 927 q 332 888 330 892 q 341 884 334 883 q 355 906 353 887 q 365 925 358 925 q 383 894 374 925 q 396 817 392 863 q 407 745 400 755 q 444 737 416 737 q 480 745 472 737 q 492 796 487 756 q 524 910 501 881 q 602 939 546 939 q 637 935 627 939 q 659 918 646 932 q 696 803 686 883 q 709 748 701 758 q 755 734 718 738 q 851 700 828 725 q 856 691 856 692 q 811 675 856 686 q 781 656 781 667 q 797 648 781 648 q 826 650 801 648 l 872 655 l 872 633 q 868 615 872 618 q 846 611 865 612 q 795 601 819 610 q 771 583 771 593 q 782 575 771 575 q 830 581 789 575 q 856 579 856 586 q 856 576 856 578 q 762 537 846 544 l 705 532 l 705 500 q 714 461 705 468 q 773 449 721 454 q 851 425 834 444 q 868 339 868 405 q 853 275 868 289 q 778 257 838 262 q 710 241 722 253 q 698 175 698 228 q 684 97 698 124 q 666 71 670 71 q 660 95 660 71 q 648 123 660 119 l 646 123 q 634 94 638 123 q 622 51 630 61 q 581 41 613 41 q 567 45 567 41 q 583 98 567 69 q 600 134 600 127 q 588 163 600 163 q 572 130 578 163 q 557 87 568 104 q 534 69 546 69 q 500 163 510 69 q 491 233 495 223 q 463 243 486 243 q 428 233 436 243 q 420 191 420 223 q 410 120 420 156 q 385 73 399 84 q 325 57 372 60 l 309 57 q 247 80 265 57 q 218 168 228 103 q 199 232 208 222 q 141 247 190 242 q 90 254 103 250 q 63 272 78 258 l 41 292 l 84 288 q 112 286 108 286 q 127 294 127 286 q 106 311 127 303 q 60 319 84 319 q 41 323 44 319 q 37 345 37 328 q 37 348 37 346 q 47 367 37 367 q 102 356 58 367 q 117 355 113 353 q 119 365 122 356 q 87 388 117 378 q 64 403 64 395 q 112 424 64 413 q 176 436 153 432 q 196 445 192 440 q 203 469 200 450 q 204 491 204 477 q 195 521 204 513 q 163 531 186 529 q 47 571 66 545 q 37 633 37 586 q 46 694 37 674 q 139 735 64 729 q 192 750 183 738 q 206 809 201 759 q 223 881 209 844 q 245 918 236 918 q 266 873 259 918 q 280 845 270 845 q 291 877 291 845 q 285 920 291 897 z "},"$":{"ha":564,"x_min":38,"x_max":524,"o":"m 235 948 q 289 957 252 957 q 351 946 332 957 q 387 851 387 925 q 399 819 387 819 q 453 800 417 819 q 505 763 490 780 q 524 705 524 738 q 503 616 524 652 q 453 580 483 580 q 377 613 434 580 q 314 641 331 641 q 300 624 300 641 q 359 587 300 611 q 491 483 458 545 q 507 385 507 454 q 491 281 507 317 q 413 181 458 212 q 392 160 397 169 q 385 120 388 150 q 378 82 383 93 q 361 59 374 71 q 316 43 341 43 q 285 44 297 43 q 209 64 228 46 q 191 101 191 82 q 182 129 191 120 q 142 152 174 138 q 83 192 112 164 q 45 243 53 219 q 38 285 38 258 q 56 345 38 308 q 89 391 74 383 q 156 398 105 398 l 171 398 q 229 397 197 397 q 280 406 271 397 q 285 413 285 411 q 206 427 285 421 q 87 464 122 434 q 47 565 53 493 q 47 576 47 568 q 46 588 46 583 q 105 736 46 677 q 166 784 138 769 q 185 800 182 792 q 189 848 188 809 q 199 913 189 891 q 235 948 209 935 z "},"%":{"ha":844,"x_min":36,"x_max":806,"o":"m 633 189 q 636 197 632 194 q 649 200 640 200 q 664 191 664 200 q 660 181 664 185 q 649 177 655 177 q 633 189 635 177 m 688 243 q 699 253 692 253 q 709 242 707 253 q 706 225 712 230 q 698 221 703 221 q 686 236 686 221 q 688 243 686 241 m 594 245 q 610 245 601 252 q 615 236 615 242 q 601 223 615 223 q 595 225 597 223 q 594 245 578 229 m 779 211 q 767 220 779 220 q 742 212 756 219 q 729 200 729 205 q 730 198 729 199 q 742 196 735 196 q 766 200 753 196 q 779 211 779 205 m 558 213 q 532 220 538 220 q 525 211 525 220 q 560 196 525 196 q 575 201 575 196 q 558 213 575 205 m 704 313 q 646 322 672 322 q 536 260 567 322 q 527 238 527 245 q 536 234 527 234 q 566 223 545 234 q 584 204 584 213 q 560 188 584 191 q 534 175 534 184 q 547 169 534 169 l 556 169 q 561 170 558 169 q 566 170 565 170 q 579 166 579 170 q 561 157 579 161 q 548 152 549 154 q 557 139 547 149 q 649 106 586 106 q 742 139 713 106 q 748 146 747 144 q 750 150 749 148 q 749 153 751 152 q 744 155 747 154 q 736 157 742 156 q 720 166 720 161 q 728 169 720 169 q 742 167 730 169 q 769 171 765 162 l 771 181 q 743 188 771 188 q 719 190 725 188 q 714 201 714 192 q 730 223 714 212 q 762 234 747 234 q 772 244 772 234 q 747 282 772 257 q 704 313 721 308 m 759 337 q 748 360 759 360 q 728 351 741 360 q 719 340 719 344 q 733 326 720 336 q 752 315 748 315 q 759 337 759 315 m 572 351 q 552 360 566 360 q 542 355 544 360 q 539 336 539 351 l 539 313 l 559 326 q 572 351 580 341 m 522 365 q 536 385 525 385 q 551 384 544 385 q 589 366 575 380 q 649 352 603 352 q 704 362 693 352 q 762 387 731 387 q 775 383 772 387 q 778 365 778 380 l 778 344 l 778 333 q 792 271 778 299 q 806 214 806 242 q 758 116 806 157 q 648 74 709 74 q 545 112 590 74 q 494 212 494 156 q 509 271 494 242 q 523 314 523 299 q 523 318 523 315 q 522 322 522 321 q 521 343 521 326 q 522 365 521 358 m 626 914 q 657 920 644 920 q 748 880 706 920 q 789 791 789 839 q 788 775 789 780 q 720 657 782 738 q 447 330 659 576 q 241 104 289 147 q 150 60 193 60 q 101 73 127 60 q 61 105 74 87 q 37 181 37 141 q 75 288 37 229 q 326 601 110 343 q 539 847 486 793 q 626 914 591 902 m 176 766 q 186 772 179 772 q 205 757 203 772 q 203 749 206 751 q 193 747 200 747 q 177 752 182 747 q 176 766 171 758 m 229 813 q 244 819 234 822 q 253 806 253 816 q 244 793 253 793 q 230 799 235 793 q 229 813 225 806 m 130 813 q 146 817 134 819 q 159 806 159 815 q 142 794 159 794 q 132 797 135 794 q 130 813 125 804 m 250 880 q 191 891 227 891 q 141 883 162 891 q 93 850 116 874 q 71 811 71 826 q 79 801 71 802 q 126 779 126 786 q 123 773 126 773 q 98 782 119 773 q 72 792 76 792 q 67 779 67 792 q 72 769 67 771 q 96 766 76 766 q 126 759 126 766 q 100 752 126 752 q 75 744 76 750 q 104 737 78 735 l 124 737 l 112 731 q 95 716 95 725 q 109 699 95 709 q 193 675 144 675 q 285 708 257 675 q 289 719 291 715 q 272 729 287 722 l 250 740 l 277 736 q 309 743 304 733 q 305 751 310 749 q 282 752 300 752 q 253 759 253 752 q 286 766 253 766 q 314 769 308 766 q 319 779 319 771 q 315 792 319 792 q 286 782 311 792 q 255 775 258 772 q 253 778 253 777 q 288 797 253 789 q 311 810 308 802 l 313 811 q 313 814 313 813 q 292 848 313 826 q 250 880 271 870 m 300 902 q 287 926 300 926 q 269 918 278 926 q 259 904 259 911 q 267 899 259 899 q 287 888 275 899 q 298 882 296 880 q 300 902 300 884 m 96 926 q 83 922 87 926 q 80 906 80 918 q 86 885 80 885 q 105 899 94 887 q 117 917 117 911 q 96 926 117 926 m 64 936 q 76 957 67 957 q 89 956 83 957 q 131 935 105 953 q 198 918 156 918 q 250 933 236 918 q 276 950 258 942 q 306 957 294 957 q 313 956 311 957 q 318 922 318 953 l 318 911 l 318 900 q 331 841 318 867 q 345 782 345 814 q 302 685 345 727 q 189 646 263 646 q 58 712 101 648 q 36 781 36 743 q 52 845 36 815 q 65 885 65 870 q 64 889 65 887 q 64 894 64 892 q 63 914 63 898 q 64 936 63 929 z "},"&":{"ha":763,"x_min":37,"x_max":722,"o":"m 334 291 q 302 294 324 294 q 256 286 265 294 q 225 248 247 279 q 208 212 208 223 q 211 199 208 208 q 297 157 226 157 q 359 171 331 157 q 387 208 387 185 q 367 255 387 225 q 334 291 348 286 m 213 313 q 186 330 197 330 q 172 306 172 330 q 184 281 172 293 q 208 269 196 269 l 212 269 q 227 286 227 272 q 213 313 227 299 m 406 334 q 378 322 395 334 q 361 293 361 308 q 377 275 361 278 l 380 275 q 407 290 392 275 q 421 317 421 304 q 406 334 421 334 m 344 399 q 324 388 334 399 q 308 346 308 370 q 332 316 308 316 q 356 333 346 316 q 367 368 367 350 q 359 391 367 383 q 344 399 351 399 m 271 374 q 237 399 258 399 q 226 395 230 399 q 220 374 220 389 q 231 331 220 348 q 258 316 242 316 q 280 343 280 316 q 271 374 280 359 m 328 685 q 294 691 314 691 q 225 648 253 691 q 208 605 208 625 q 233 566 208 580 q 294 552 258 552 q 354 564 328 552 q 384 596 380 575 l 384 597 q 385 601 385 600 q 365 649 385 619 q 328 685 345 679 m 205 714 q 185 720 196 720 q 166 707 166 720 q 180 676 166 690 q 209 662 194 662 q 223 668 218 662 q 225 672 225 669 q 218 696 225 682 q 205 714 212 711 m 416 711 q 397 727 416 727 q 372 715 382 727 q 360 688 360 704 q 376 670 360 670 q 403 683 391 670 q 416 711 416 696 m 265 773 q 237 788 255 788 q 216 772 221 788 q 216 769 216 771 q 215 765 215 766 q 225 731 215 749 q 245 709 235 713 q 253 708 248 708 q 275 740 275 708 q 265 773 275 759 m 362 771 q 344 792 356 792 q 321 779 333 792 q 304 741 304 763 q 316 712 304 723 q 328 708 322 708 q 352 725 340 708 q 363 759 363 741 q 362 771 363 767 m 209 918 q 281 926 236 926 q 296 925 286 926 q 311 925 306 925 q 454 894 402 921 q 535 807 507 866 q 554 704 554 765 q 525 547 554 604 q 428 455 497 490 l 399 440 l 421 419 l 442 397 l 500 456 q 587 530 552 508 q 653 552 622 552 q 701 535 681 552 q 722 495 722 519 q 698 429 722 477 q 642 334 675 382 q 610 279 610 287 q 653 243 610 271 l 696 215 l 692 182 q 675 130 690 147 q 641 97 666 116 q 610 79 617 79 q 497 147 499 147 q 479 131 494 147 q 445 97 463 115 q 421 75 427 79 q 377 57 395 60 q 297 54 360 54 q 219 57 238 54 q 172 73 199 60 q 49 252 59 127 q 47 274 47 259 q 94 402 47 340 q 114 428 102 412 q 126 446 126 444 q 127 449 127 447 q 102 484 127 458 q 54 549 74 510 q 37 637 37 582 l 37 656 q 52 764 38 723 q 100 844 65 806 q 209 918 147 897 z "},"(":{"ha":529,"x_min":36,"x_max":488,"o":"m 443 38 q 466 56 458 56 q 477 38 475 56 q 478 25 478 35 q 455 -43 478 -8 q 400 -97 433 -79 q 309 -120 356 -120 q 206 -84 247 -120 q 179 -54 179 -62 q 218 -49 179 -49 q 341 -22 272 -49 q 443 38 411 5 m 432 83 q 454 98 450 98 q 462 90 458 98 q 464 81 464 83 q 451 60 464 72 q 403 23 439 49 q 219 -36 317 -36 q 160 -23 167 -36 q 153 -6 153 -9 q 201 -2 153 -2 q 432 83 331 -2 m 396 110 q 439 137 429 137 q 448 125 448 137 q 414 86 448 112 q 343 41 381 59 q 198 7 270 7 q 126 39 126 7 q 201 46 126 44 q 310 63 267 49 q 396 110 353 78 m 389 163 q 416 178 407 178 q 420 176 418 178 q 426 161 426 168 q 404 131 426 148 q 193 52 307 52 q 171 53 178 52 q 118 61 130 57 q 101 82 106 66 l 93 97 l 148 94 q 176 93 157 93 q 389 163 296 93 m 317 976 q 359 979 334 979 q 436 966 411 979 q 473 932 459 955 q 488 866 488 907 l 488 850 q 482 789 487 807 q 448 713 477 771 q 365 471 380 581 q 361 417 361 443 q 383 279 361 359 q 400 206 400 218 q 392 184 400 192 q 360 160 384 176 q 181 105 279 105 l 161 105 q 90 119 104 108 q 61 189 76 131 q 36 384 36 280 q 162 839 36 624 q 234 932 198 902 q 317 976 270 963 z "},")":{"ha":528,"x_min":39,"x_max":490,"o":"m 52 42 q 60 74 52 74 q 73 64 65 74 q 126 25 84 50 q 198 -12 168 0 q 294 -30 238 -27 l 354 -34 l 328 -61 q 223 -103 286 -103 q 201 -102 208 -103 q 94 -57 135 -97 q 52 42 52 -16 m 66 103 q 71 113 66 113 q 109 89 78 113 q 322 16 201 16 q 377 10 377 16 q 368 -8 377 3 q 324 -20 359 -20 l 307 -20 q 94 64 182 -17 q 66 103 66 89 m 82 144 q 90 154 86 154 q 124 132 95 154 q 340 57 222 57 q 362 58 355 57 q 389 60 385 60 q 403 54 403 60 q 395 39 403 51 q 322 23 384 23 q 263 29 294 23 q 145 79 208 39 q 81 140 81 118 q 81 141 81 141 l 82 144 m 102 183 q 116 194 108 194 q 132 185 123 194 q 188 149 144 171 q 265 118 231 127 q 339 109 302 109 q 354 109 344 109 q 369 110 363 110 q 402 111 382 111 q 429 103 429 111 q 421 86 429 95 q 332 69 407 69 q 270 75 301 69 q 159 122 216 87 q 101 179 101 157 q 102 183 101 181 m 130 990 q 162 992 150 992 q 293 949 234 992 q 370 843 322 927 q 443 685 418 759 q 490 397 490 553 q 462 189 490 280 q 441 137 449 145 q 340 119 424 119 q 299 122 311 119 q 215 148 263 126 q 139 193 167 170 q 120 216 120 208 q 124 226 120 220 q 148 304 132 242 q 164 429 164 369 q 68 755 164 580 q 47 801 52 784 q 41 854 43 818 q 40 869 41 860 q 39 881 39 877 q 52 936 39 911 q 82 973 65 962 q 130 990 98 985 z "},"*":{"ha":363,"x_min":35,"x_max":325,"o":"m 98 912 q 122 922 113 922 q 166 868 141 922 l 178 839 l 191 868 q 234 921 212 921 q 257 909 244 921 q 270 878 270 896 q 251 838 270 856 l 234 819 l 271 823 q 294 825 292 825 q 316 815 308 825 q 325 788 325 802 q 312 760 325 771 q 275 749 299 749 l 248 749 l 263 726 q 275 689 275 705 q 267 664 275 674 q 244 653 259 653 q 212 668 228 653 q 190 706 196 683 q 181 721 186 721 q 170 700 176 721 q 151 663 166 681 q 125 646 137 646 q 97 658 111 646 q 83 682 83 670 q 97 720 83 698 q 111 745 111 742 q 83 745 111 750 q 67 744 78 744 q 35 781 35 744 q 46 811 35 799 q 72 824 58 824 q 78 823 75 824 q 90 819 80 823 q 108 815 101 816 l 128 811 l 106 832 q 82 881 82 854 q 98 912 82 902 z "},"+":{"ha":615,"x_min":38,"x_max":574,"o":"m 292 674 l 288 686 l 317 686 q 343 685 338 686 q 347 674 347 683 l 347 662 q 341 610 347 633 q 339 597 339 601 q 354 581 339 581 l 358 581 q 383 634 377 584 q 391 655 387 655 q 406 635 396 655 q 418 549 417 618 l 420 480 l 464 478 q 529 465 513 475 q 553 447 542 458 q 564 431 564 435 l 563 428 q 537 432 558 428 q 515 433 530 433 q 458 425 472 433 q 453 412 453 421 q 458 399 453 403 q 506 395 465 395 q 574 368 574 395 q 567 328 574 334 q 535 338 565 325 q 487 350 507 350 q 479 349 485 350 q 469 348 472 348 q 420 326 420 345 q 427 314 420 316 q 469 310 434 313 q 538 291 538 304 q 512 271 538 281 q 457 259 485 262 q 418 251 421 257 q 414 189 414 248 q 404 108 414 133 q 389 84 394 84 q 385 95 385 84 q 377 131 385 98 q 369 152 372 148 q 356 156 366 156 q 339 140 339 156 q 341 125 339 131 q 348 75 348 104 q 345 56 348 60 q 314 50 341 50 q 292 52 295 50 q 291 61 288 53 q 296 105 296 79 q 288 159 296 135 q 266 182 279 182 q 257 178 262 182 q 251 170 251 174 q 253 150 250 166 q 259 104 259 127 q 255 74 259 83 q 236 81 250 67 q 198 200 201 115 l 196 256 l 159 259 q 75 282 101 264 q 63 296 63 292 q 127 310 63 307 q 171 314 164 313 q 177 325 177 316 q 123 347 177 347 q 72 341 91 347 q 51 337 59 337 q 38 356 38 337 l 38 368 q 42 387 39 382 q 54 394 45 391 q 75 396 66 396 q 94 395 81 396 q 112 395 106 395 q 142 410 142 395 q 141 417 142 414 q 128 429 139 426 q 86 432 117 432 q 52 436 52 432 q 65 455 52 443 q 89 472 79 468 q 150 479 103 479 l 196 479 l 198 538 q 207 612 200 590 q 231 654 213 634 q 255 668 249 675 q 259 631 259 662 q 255 593 259 603 q 251 576 251 583 q 266 556 251 556 q 287 575 279 556 q 295 638 295 597 q 292 674 295 662 z "},",":{"ha":238,"x_min":37,"x_max":200,"o":"m 73 170 q 105 178 88 178 q 170 152 140 178 q 200 89 200 125 q 183 34 200 65 q 146 -8 166 2 q 97 -20 123 -20 q 60 -9 71 -20 q 50 7 50 1 q 61 27 50 14 l 75 39 l 56 58 q 37 103 37 75 q 73 170 37 150 z "},"-":{"ha":358,"x_min":35,"x_max":321,"o":"m 82 400 q 189 406 100 406 q 293 394 278 405 q 308 378 308 383 q 284 370 308 373 q 256 360 256 368 q 278 353 256 353 q 313 348 304 353 q 321 325 321 343 l 321 306 l 300 315 q 265 323 278 323 q 238 314 251 323 q 234 306 228 306 q 265 302 238 304 q 308 278 308 299 q 306 270 308 274 q 283 262 301 263 q 184 258 265 260 q 156 258 174 258 q 132 257 139 257 q 58 265 74 257 q 37 302 43 273 q 35 328 35 310 q 47 374 35 354 q 82 400 60 395 z "},".":{"ha":279,"x_min":37,"x_max":242,"o":"m 223 141 q 216 147 223 147 q 200 141 208 147 q 207 134 190 134 q 223 141 223 134 m 73 141 q 56 141 56 153 q 69 134 56 134 q 73 141 83 134 m 178 205 q 139 213 161 213 q 67 177 86 213 q 63 166 63 171 q 80 150 63 159 q 95 133 93 144 q 92 125 96 127 q 79 123 88 123 q 61 116 61 123 q 79 113 61 110 q 96 113 97 118 q 84 105 94 109 q 77 101 79 103 q 76 97 75 100 q 82 90 78 95 q 138 72 101 72 q 197 93 178 72 q 203 101 203 98 q 203 104 204 103 q 194 104 201 104 q 182 111 182 104 q 188 115 182 115 q 200 113 191 115 q 212 112 208 112 q 218 116 218 112 q 200 123 218 123 q 182 134 182 123 q 200 153 182 146 q 218 163 218 159 q 205 185 218 171 q 178 205 192 199 m 212 221 q 204 237 212 237 q 196 234 200 237 q 189 228 191 231 q 189 223 186 225 l 191 222 q 196 218 193 220 q 201 214 199 216 q 210 209 208 208 q 212 221 212 211 m 79 219 q 88 229 88 223 q 78 236 88 236 q 67 226 67 236 q 68 218 67 220 q 71 215 68 215 q 79 219 73 215 m 37 140 q 46 183 38 160 q 56 227 54 207 q 58 251 56 247 q 69 256 60 256 q 97 245 82 256 q 139 235 111 235 q 181 245 167 235 q 209 256 196 256 q 221 251 219 256 q 223 228 223 247 q 234 182 223 200 q 242 146 242 167 q 220 86 242 110 q 140 51 186 51 q 56 89 89 51 q 37 140 37 110 z "},"/":{"ha":587,"x_min":39,"x_max":545,"o":"m 47 219 q 54 235 47 235 q 68 225 60 235 q 145 174 93 196 q 247 153 198 153 q 284 147 284 153 q 273 132 284 139 q 252 125 263 125 q 244 124 245 125 q 244 122 242 124 q 251 116 245 120 q 259 105 259 109 q 249 88 258 102 q 162 47 215 47 q 56 111 88 47 q 39 179 39 140 q 44 194 39 194 q 76 170 45 194 q 139 134 101 149 q 204 118 177 118 l 206 118 q 221 120 221 118 q 196 125 221 122 q 97 163 146 132 q 47 219 47 194 m 58 266 q 62 274 59 271 q 67 277 65 277 q 72 275 69 278 q 76 269 75 273 q 117 234 81 259 q 267 188 188 188 q 296 178 296 188 q 292 167 296 172 q 257 159 287 159 q 144 182 193 159 q 82 222 106 199 q 57 260 57 244 q 58 266 57 265 m 72 304 q 80 319 76 319 q 115 291 86 319 q 263 230 171 238 l 318 226 l 307 208 q 277 194 296 194 q 247 196 260 194 q 129 235 188 200 q 71 299 71 270 q 72 304 71 302 m 362 946 q 417 958 391 958 q 506 926 463 958 q 545 846 545 897 q 544 828 545 833 q 439 529 539 795 q 323 243 338 263 q 289 235 316 235 q 169 263 225 235 q 112 302 140 277 q 83 337 83 326 q 84 338 83 338 q 84 339 84 338 q 182 594 94 356 q 288 865 269 821 q 362 946 318 926 z "},":":{"ha":377,"x_min":37,"x_max":338,"o":"m 172 171 q 189 177 178 179 q 199 164 199 174 q 188 153 199 153 q 173 159 178 153 q 172 171 168 164 m 226 215 q 236 226 230 226 q 245 215 243 226 q 242 199 248 205 q 229 199 235 192 q 226 215 222 206 m 128 215 q 142 226 133 226 q 152 215 150 226 q 145 198 153 204 q 131 200 138 193 q 128 215 125 207 m 247 280 q 182 292 221 292 q 130 282 145 292 q 75 230 93 264 q 67 213 67 214 q 87 205 67 208 q 127 183 127 196 q 126 181 127 182 q 123 179 125 179 q 99 187 118 179 q 73 194 80 194 q 66 189 66 194 q 68 181 66 188 q 100 171 74 171 q 124 164 124 170 q 96 159 120 159 q 74 152 75 156 q 100 146 76 144 q 105 146 102 146 q 109 147 108 147 q 118 142 118 147 q 102 134 118 134 q 91 128 91 134 q 111 106 91 120 q 190 83 144 83 q 207 84 203 83 q 258 104 235 89 q 281 127 281 118 q 266 134 281 134 q 251 141 256 134 q 257 147 248 146 l 272 146 q 300 152 296 145 q 291 159 302 156 l 279 159 q 251 164 255 159 q 256 170 249 168 q 269 171 262 171 q 308 186 308 171 q 297 194 308 194 q 272 186 288 194 q 248 183 248 172 q 266 198 248 189 q 295 207 284 207 q 304 210 303 207 q 301 225 306 213 q 247 280 288 258 m 293 321 q 279 326 289 326 q 259 318 266 326 q 255 310 255 311 q 279 291 255 306 q 294 300 289 285 q 293 321 297 314 m 115 319 q 94 328 109 328 q 82 324 84 328 q 79 310 79 321 q 83 293 79 293 q 103 301 88 293 q 115 319 123 310 m 63 301 q 61 321 61 307 q 76 358 61 358 q 106 349 87 358 q 132 332 125 340 q 182 322 139 322 q 247 337 225 322 q 288 355 266 351 q 300 356 293 356 q 311 334 307 356 q 313 313 313 328 q 311 293 313 297 q 311 289 311 292 q 310 286 310 287 q 323 243 310 272 q 338 191 338 213 q 331 153 338 174 q 277 82 318 108 q 185 56 236 56 q 84 91 127 56 q 37 189 37 132 q 51 245 37 218 q 64 289 64 271 q 63 295 64 291 q 63 301 63 299 m 199 515 q 191 499 199 499 q 178 506 185 499 q 171 517 171 513 q 185 527 171 527 q 199 515 199 527 m 228 572 q 239 572 234 576 q 244 559 244 568 q 234 546 244 549 q 223 554 226 544 q 228 572 221 565 m 134 568 q 152 557 152 580 q 142 545 152 545 q 130 554 133 545 q 134 568 126 564 m 245 626 q 184 640 215 640 q 142 634 160 640 q 102 611 124 630 q 74 575 80 591 q 71 564 71 568 q 91 551 71 558 q 122 536 112 545 q 125 529 125 530 q 122 528 125 528 q 95 536 115 528 q 72 544 78 544 q 67 532 67 544 q 72 523 67 524 q 97 521 78 521 q 124 515 126 521 q 96 508 119 508 q 73 499 73 508 q 97 493 73 488 q 110 494 102 494 q 120 491 120 494 q 102 481 120 485 l 82 477 l 102 461 q 185 431 139 431 q 245 444 215 431 q 281 472 281 461 q 266 483 281 479 q 248 492 248 487 q 253 497 248 497 q 270 493 257 497 q 288 490 282 490 q 301 499 300 490 q 297 506 302 505 q 275 508 293 508 q 248 515 248 508 q 278 521 248 521 q 303 523 297 521 q 308 532 308 524 q 304 544 308 544 q 278 536 299 544 q 252 530 264 530 q 247 532 247 530 q 251 538 247 535 q 266 545 252 539 q 291 556 279 550 q 302 565 302 561 q 285 598 302 580 q 245 626 267 617 m 294 644 q 296 657 296 653 q 282 676 296 676 q 265 670 273 676 q 255 650 251 662 q 260 647 256 647 q 279 638 270 647 q 289 632 287 631 q 294 644 292 633 m 105 671 q 87 677 90 677 q 79 660 79 677 q 87 642 79 642 q 106 648 91 642 q 120 660 120 653 q 105 671 120 667 m 64 685 q 86 701 67 701 q 135 678 109 701 q 188 669 147 669 q 240 678 228 669 q 292 701 269 701 q 305 697 301 701 q 311 681 309 693 q 313 660 313 675 q 311 640 313 645 q 311 635 311 638 q 310 632 310 633 q 323 590 310 618 q 337 535 337 563 q 296 447 337 487 q 185 402 251 402 q 58 465 103 402 q 42 494 45 483 q 39 536 39 506 q 53 598 39 579 q 65 628 65 613 q 64 644 65 638 q 63 667 63 650 q 64 685 63 681 z "},";":{"ha":373,"x_min":37,"x_max":334,"o":"m 58 230 q 57 243 57 235 q 90 321 57 286 q 169 356 123 356 q 221 344 196 356 q 303 220 303 304 q 291 157 303 192 q 236 81 272 109 q 155 53 199 53 q 126 57 140 53 q 81 95 81 67 q 109 135 81 115 l 127 148 l 101 166 q 71 192 79 179 q 58 230 63 204 m 186 499 q 173 503 177 498 q 172 519 169 509 q 186 525 176 528 q 197 512 197 522 q 186 499 197 501 m 222 550 q 219 557 219 553 q 234 567 219 567 q 247 559 243 567 q 238 547 249 551 q 222 550 228 544 m 127 557 q 140 568 127 568 q 149 566 146 568 q 150 559 152 564 q 137 546 147 546 q 127 557 127 546 m 308 532 q 301 545 308 545 q 274 535 293 544 q 255 523 255 527 q 281 521 255 521 q 303 523 299 521 q 308 532 308 524 m 227 634 q 184 640 201 640 q 90 600 128 640 q 68 567 68 578 q 91 550 68 557 q 122 535 117 541 q 125 529 125 531 q 123 527 125 527 q 91 536 117 527 q 67 542 72 542 q 60 537 60 542 l 63 530 q 94 521 68 521 q 122 515 122 521 q 94 508 122 508 q 73 506 78 508 q 72 499 69 505 q 98 493 76 488 q 111 494 103 494 q 122 491 122 494 q 102 481 122 485 q 87 477 88 479 q 95 465 86 475 q 134 440 108 450 q 185 431 160 431 q 236 440 211 431 q 274 465 262 450 q 282 477 284 475 q 267 481 281 479 q 248 491 248 486 q 253 495 248 495 q 269 492 257 495 q 286 490 280 490 q 302 506 302 490 q 274 509 302 507 q 244 523 244 510 q 278 551 244 539 q 302 567 302 559 q 274 604 302 579 q 227 634 247 628 m 291 653 q 280 677 291 677 q 260 667 274 677 l 247 655 q 268 642 253 650 q 291 630 282 633 l 291 653 m 104 671 q 88 677 93 677 q 79 655 79 677 l 79 634 l 97 646 q 115 661 115 656 q 104 671 115 667 m 61 662 l 60 704 l 84 699 q 127 683 110 694 q 189 669 145 670 l 199 669 q 235 676 230 669 q 259 693 241 684 q 292 701 278 701 l 309 701 l 308 661 l 308 649 q 321 593 308 619 q 334 536 334 565 q 286 436 334 476 q 239 411 269 421 q 185 400 209 400 q 105 423 145 400 q 49 479 65 446 q 37 536 37 502 q 50 595 37 571 q 61 650 61 619 l 61 662 z "},"<":{"ha":630,"x_min":35,"x_max":594,"o":"m 534 197 q 576 234 569 234 q 584 228 581 234 q 593 185 593 219 q 587 138 593 156 q 548 80 579 104 q 485 56 517 56 q 470 58 473 56 q 466 71 466 61 q 534 197 466 126 m 536 256 q 557 266 553 266 q 569 257 563 266 q 573 247 575 251 q 557 231 571 242 q 461 91 486 177 q 441 60 451 60 l 439 60 q 425 65 427 63 q 424 68 424 66 q 433 113 424 80 q 450 161 442 146 q 489 213 461 182 q 536 256 517 244 m 484 264 q 522 289 516 289 q 536 282 524 289 q 541 277 541 279 q 519 256 541 272 q 421 104 440 198 q 403 71 414 71 q 394 76 396 71 q 394 98 392 81 q 484 264 399 199 m 459 294 q 490 310 480 310 q 498 308 493 310 q 508 293 513 301 q 503 291 507 291 q 464 260 497 291 q 413 193 435 235 q 385 117 390 150 q 373 76 380 76 q 367 78 369 76 q 358 102 358 81 q 358 111 358 104 q 359 122 359 117 q 459 294 366 228 m 380 677 q 483 700 447 700 q 561 662 530 700 q 594 572 594 623 q 565 485 594 522 q 487 428 549 464 q 418 380 425 390 q 416 370 416 375 q 420 353 416 361 q 429 345 425 345 q 454 333 436 345 l 473 321 l 432 281 q 348 123 358 214 q 341 86 344 86 q 282 112 338 86 q 53 303 115 192 q 35 375 35 337 q 103 520 35 444 q 380 677 186 609 z "},"=":{"ha":375,"x_min":31,"x_max":339,"o":"m 71 325 q 189 331 88 331 l 292 331 q 336 295 322 308 l 307 292 q 275 280 275 288 q 304 271 275 272 q 332 266 328 270 q 338 245 336 263 q 339 234 339 238 q 339 228 339 230 q 336 226 338 226 q 330 228 333 227 q 285 237 307 237 q 270 236 274 237 q 256 226 256 233 q 271 218 256 218 l 275 218 l 280 218 q 314 211 295 218 q 333 199 333 205 q 315 179 333 193 q 291 168 303 171 q 240 166 279 166 q 212 166 233 166 q 179 167 192 167 q 75 171 93 169 q 46 184 57 172 q 31 244 31 199 q 40 299 31 281 q 71 325 49 316 m 71 512 q 149 515 78 515 l 192 515 q 285 512 266 514 q 314 500 304 509 l 328 486 l 300 481 q 281 476 287 479 q 275 469 274 473 q 295 462 278 462 l 308 462 q 322 461 317 462 q 339 438 339 457 l 339 419 l 296 422 q 269 424 284 424 q 253 416 253 424 q 286 404 253 404 q 330 387 330 404 q 319 367 330 380 l 303 351 l 183 353 q 76 357 95 355 q 46 370 58 359 q 31 431 31 385 q 40 485 31 468 q 71 512 49 502 z "},">":{"ha":624,"x_min":36,"x_max":589,"o":"m 44 231 q 49 234 46 234 q 98 196 60 234 q 139 139 119 175 q 164 75 159 103 q 167 63 167 64 q 145 56 167 56 q 80 82 110 56 q 41 148 51 108 q 37 185 37 162 q 44 231 37 221 m 60 257 q 71 265 65 265 q 108 245 80 265 q 191 131 167 201 q 204 80 204 95 q 191 60 204 64 q 176 64 178 56 q 167 100 169 91 q 135 167 159 131 q 84 223 111 203 q 59 252 59 244 q 60 257 59 256 m 95 281 q 106 289 103 289 q 142 266 112 289 q 237 100 226 199 q 240 78 240 79 q 229 68 240 68 q 218 75 221 68 q 209 103 214 81 q 167 198 200 150 q 98 265 134 245 q 95 281 87 272 m 130 307 q 140 310 134 310 q 198 269 153 310 q 270 138 256 214 q 275 95 275 103 q 264 78 275 81 q 253 79 257 75 q 248 97 250 83 q 218 193 238 155 q 156 266 198 230 q 125 300 125 294 q 130 307 125 302 m 98 686 q 150 700 123 700 q 248 677 182 700 q 460 573 385 626 q 569 449 535 520 q 589 388 589 410 q 589 380 589 385 q 588 372 588 375 q 525 241 583 311 q 359 117 466 169 q 296 91 306 91 q 286 99 288 91 q 280 128 284 106 q 174 304 267 233 l 153 321 l 172 331 q 215 369 215 354 q 145 426 215 387 q 71 478 93 455 q 41 535 50 501 q 36 567 36 556 q 53 637 36 603 q 98 686 71 670 z "},"?":{"ha":539,"x_min":38,"x_max":501,"o":"m 172 152 q 182 141 178 152 q 172 131 185 131 q 163 141 160 131 q 172 152 166 152 m 199 241 q 170 243 189 243 q 94 208 122 243 q 80 185 80 192 q 103 168 80 176 q 124 154 125 157 q 120 153 123 153 q 98 157 116 153 q 76 162 81 162 q 72 159 72 162 q 75 152 72 157 q 101 144 79 146 l 123 144 q 75 126 108 138 l 98 125 q 117 123 116 124 l 111 118 q 106 116 110 117 l 90 106 l 108 95 q 174 76 137 76 q 237 95 211 76 l 256 108 l 235 116 l 215 125 l 235 124 l 248 124 q 262 125 262 124 q 242 134 262 127 l 215 144 l 241 144 q 265 155 265 145 q 263 163 265 161 q 258 163 262 164 q 244 157 253 162 q 227 153 235 153 q 223 155 223 153 q 241 167 223 159 q 265 185 265 178 q 240 216 265 196 q 199 241 215 237 m 258 255 q 248 271 258 271 q 234 263 242 271 q 237 247 227 256 q 254 239 250 237 q 258 255 258 241 m 98 245 q 110 260 110 253 q 97 270 110 267 q 89 267 91 271 q 86 255 86 264 q 88 241 86 243 q 98 245 90 240 m 72 256 q 75 286 72 281 q 91 291 78 291 q 125 278 108 291 q 172 264 142 264 q 219 278 201 264 q 253 291 236 291 q 269 286 266 291 q 272 256 272 281 q 282 205 274 218 q 292 156 292 190 q 255 81 292 110 q 170 52 219 52 q 67 104 102 52 q 52 160 52 124 q 63 205 52 188 q 72 256 69 216 m 49 920 q 61 940 56 936 q 86 943 67 943 q 146 926 113 943 q 186 911 163 917 q 241 902 209 906 q 286 896 272 898 q 310 892 302 892 q 339 902 324 892 q 418 928 384 928 q 427 927 425 928 q 458 844 458 919 q 480 756 458 799 q 498 712 494 728 q 501 657 501 697 q 498 602 501 619 q 479 552 494 584 q 409 465 451 493 q 301 432 367 436 l 252 428 l 250 409 q 249 353 249 397 q 241 311 247 317 q 178 302 234 304 l 123 301 l 109 328 q 91 456 91 365 q 102 539 91 516 q 128 571 113 563 q 188 587 144 579 q 229 597 219 593 q 245 612 240 601 q 251 628 251 624 q 171 649 251 644 q 80 670 105 654 q 38 752 38 699 l 38 791 q 49 920 38 892 z "},"@":{"ha":825,"x_min":36,"x_max":788,"o":"m 426 421 q 392 441 409 441 q 358 420 381 441 q 334 387 334 398 q 353 364 334 375 q 391 353 372 353 q 443 385 443 353 q 426 421 443 403 m 340 438 q 325 454 338 451 q 315 443 311 457 q 331 427 317 429 q 340 438 344 424 m 432 440 q 435 432 432 435 q 443 428 439 428 q 458 436 451 428 q 465 453 465 443 q 457 462 465 462 q 440 455 449 462 q 432 440 432 448 m 428 479 q 420 499 431 499 q 400 472 400 499 q 411 456 400 456 q 428 479 425 456 m 374 487 q 355 499 369 499 q 343 488 343 499 q 365 455 343 455 q 378 469 378 455 q 374 487 378 473 m 331 793 q 411 802 367 802 q 684 681 563 802 q 764 575 742 622 q 785 520 781 539 q 788 436 788 501 q 785 352 788 372 q 764 296 781 333 q 709 218 738 242 q 637 194 679 194 q 609 197 630 194 q 540 220 578 203 q 495 251 502 237 q 487 282 487 265 q 479 304 487 304 q 457 292 473 304 q 384 267 428 267 q 343 272 362 267 q 260 318 286 284 q 234 417 234 353 q 301 549 234 514 q 383 567 338 567 q 461 551 425 567 q 499 539 487 539 q 509 542 502 539 q 524 546 519 546 q 554 525 544 546 q 569 428 559 517 q 582 331 579 339 q 601 317 589 317 q 635 350 618 317 q 652 422 652 383 q 650 439 652 433 q 616 547 644 506 q 532 618 589 589 q 411 647 475 647 q 291 617 346 647 q 238 576 258 600 q 198 513 218 553 q 179 407 179 475 q 194 313 179 341 q 267 229 227 250 q 405 200 307 208 q 502 188 480 194 q 528 161 523 182 q 531 134 531 149 q 512 67 531 81 q 419 53 492 53 q 348 57 384 53 q 126 179 215 71 q 36 434 36 287 l 36 441 q 119 665 38 568 q 331 793 200 762 z "},"A":{"ha":854,"x_min":36,"x_max":817,"o":"m 507 483 q 428 517 479 517 q 352 486 382 517 q 317 438 336 469 q 299 398 299 406 q 315 362 299 382 q 354 332 331 343 q 426 318 383 318 q 519 341 478 318 q 559 398 559 365 q 550 424 559 410 q 507 483 541 439 m 318 475 q 331 495 331 481 q 310 539 331 515 q 271 563 289 563 q 255 556 262 563 q 247 535 247 547 q 266 492 247 514 q 306 471 285 471 q 318 475 311 471 m 595 561 q 573 569 587 569 q 532 551 551 569 q 514 512 514 532 q 521 491 514 499 q 541 483 529 483 q 559 487 550 483 q 590 511 579 494 q 602 543 602 528 q 595 561 602 554 m 516 645 q 493 657 508 657 q 461 639 476 657 q 440 581 440 615 q 461 539 440 546 q 472 537 468 537 q 509 561 493 537 q 525 612 525 584 q 516 645 525 632 m 378 645 q 348 657 367 657 q 324 646 331 657 q 317 616 317 632 q 335 563 317 587 q 374 538 353 538 q 396 549 385 538 q 406 580 406 560 q 378 645 406 613 m 262 936 q 281 943 269 943 q 334 928 303 943 q 425 912 368 912 q 515 928 481 912 q 567 946 553 946 q 593 926 586 946 q 600 859 600 906 l 600 795 l 627 753 q 734 535 679 676 q 810 281 788 394 q 817 226 817 243 q 814 193 817 211 q 746 84 799 125 q 618 44 693 44 l 604 44 q 542 60 558 47 q 507 105 523 74 q 486 164 491 135 q 464 203 481 196 q 431 207 455 207 q 374 197 384 207 q 363 162 368 191 q 314 67 356 109 q 286 48 296 51 q 233 45 275 45 q 145 60 176 45 q 65 132 95 84 q 36 237 36 179 q 95 480 36 311 q 214 740 155 649 l 250 795 l 252 861 q 262 936 255 927 z "},"B":{"ha":787,"x_min":34,"x_max":751,"o":"m 412 333 q 377 339 392 339 q 341 331 366 339 q 267 260 310 319 q 250 218 250 238 q 296 161 250 186 q 380 146 323 146 q 464 161 438 146 q 510 218 510 186 q 492 262 510 236 q 446 316 459 304 q 412 333 433 328 m 192 355 q 204 325 192 343 q 231 299 216 307 q 255 293 242 293 q 281 315 281 293 q 271 348 281 329 q 250 373 260 367 q 226 378 240 378 q 202 372 212 378 q 192 355 192 366 m 543 385 q 529 391 531 391 q 506 382 528 391 q 466 330 466 365 q 493 303 466 303 q 506 306 497 303 q 541 328 527 310 q 556 363 556 346 q 543 385 556 378 m 469 462 q 443 473 458 473 q 417 461 428 473 q 390 405 390 431 q 403 370 390 387 q 425 355 414 355 q 454 372 436 355 q 478 431 478 392 q 469 462 478 453 m 328 461 q 296 475 310 475 q 266 429 266 475 q 286 379 266 400 q 326 358 306 358 q 355 383 350 358 q 356 395 356 387 q 328 461 356 438 m 383 699 q 345 707 367 707 q 275 671 294 707 q 256 645 271 660 q 243 617 243 632 q 273 575 243 593 q 345 557 302 557 q 418 575 389 557 q 447 619 447 593 q 423 661 447 632 q 383 699 399 690 m 248 728 q 223 740 236 740 q 205 730 213 740 q 201 719 201 725 q 231 677 201 694 q 259 678 249 668 q 266 696 266 685 q 248 728 266 713 m 459 747 q 427 729 444 747 q 412 703 412 714 q 413 700 412 701 q 413 697 413 698 q 434 683 417 683 q 469 699 453 683 q 484 725 484 714 q 477 740 484 733 q 459 747 470 747 m 411 807 q 397 817 403 817 q 369 797 383 817 q 354 757 354 778 q 360 737 354 747 q 381 722 370 722 q 405 737 391 722 q 421 778 421 751 q 411 807 421 796 m 282 817 q 264 804 273 817 q 256 779 256 792 q 272 742 256 763 q 300 722 288 722 q 326 755 326 722 q 308 799 326 780 q 282 817 289 817 m 227 940 q 348 943 237 941 l 382 943 q 485 934 456 943 q 593 881 545 917 q 662 802 641 845 q 682 707 682 762 q 625 543 682 609 l 605 520 l 625 512 q 681 468 648 502 q 728 400 713 433 q 750 304 748 363 q 751 287 750 297 q 751 273 751 277 q 736 211 751 241 q 661 115 713 160 q 556 58 609 71 q 351 42 488 42 q 278 44 322 42 q 125 67 192 49 q 50 104 58 84 q 34 458 36 141 q 56 872 34 839 q 122 911 68 890 q 227 940 175 933 z "},"C":{"ha":766,"x_min":35,"x_max":730,"o":"m 444 962 q 479 981 461 981 q 546 904 515 981 q 562 879 554 885 q 595 866 569 873 q 653 836 626 858 q 689 792 679 815 q 696 750 696 773 q 695 742 696 748 q 694 735 694 737 q 661 666 691 690 q 554 618 632 641 q 483 594 499 601 q 453 573 468 588 q 429 522 429 550 q 448 473 429 497 q 494 435 466 450 q 581 420 524 420 q 669 405 644 419 q 715 344 694 390 q 730 274 730 306 q 661 123 730 192 q 420 36 575 36 q 262 64 339 36 q 133 146 185 93 q 35 413 35 244 q 66 608 35 517 q 153 757 97 698 q 183 795 178 785 q 188 833 188 804 q 226 925 188 925 q 297 892 249 925 q 347 870 330 870 q 365 872 358 870 q 393 880 387 874 q 411 909 399 885 q 444 962 429 942 z "},"D":{"ha":765,"x_min":32,"x_max":730,"o":"m 429 493 q 360 509 398 509 q 288 492 321 509 q 241 444 255 475 q 215 404 231 422 q 191 350 191 377 q 266 264 191 297 q 356 245 308 245 q 476 278 425 245 q 528 353 528 310 q 505 405 528 381 q 483 436 486 426 q 429 493 473 470 m 196 550 q 159 564 176 564 q 131 553 142 564 q 120 527 120 543 q 123 510 120 516 q 162 459 134 480 q 199 449 176 449 q 225 456 218 449 q 233 479 233 464 q 196 550 233 521 m 578 566 q 551 576 567 576 q 479 534 508 576 q 468 499 468 515 q 478 473 468 483 q 505 463 488 463 q 536 471 520 463 q 573 503 559 483 q 587 542 587 523 q 578 566 587 557 m 314 544 q 328 589 328 560 q 307 658 328 626 q 252 690 286 690 q 213 634 213 690 q 237 564 213 595 q 287 532 260 532 q 314 544 302 532 m 470 681 q 442 697 456 697 q 396 663 419 697 q 372 596 373 630 q 385 550 372 568 q 420 532 399 532 q 441 538 429 532 q 473 577 461 550 q 486 632 486 604 q 470 681 486 664 m 524 927 q 479 938 500 938 q 435 926 458 938 q 404 895 404 909 q 407 889 404 891 q 426 878 417 885 q 435 867 435 872 l 434 865 q 417 869 426 860 q 397 872 398 884 q 409 861 397 861 q 428 854 419 861 q 426 850 435 850 q 416 850 422 850 q 410 850 413 850 q 405 851 406 851 q 395 846 395 851 q 416 836 395 836 l 426 833 l 418 832 q 404 823 404 829 q 412 807 404 818 q 495 772 438 772 q 534 780 514 772 l 550 788 l 535 800 q 527 809 527 804 q 530 810 527 810 q 549 804 538 810 q 565 803 561 799 q 561 810 566 806 q 549 816 557 814 q 531 826 531 823 q 537 828 531 828 q 552 826 545 828 q 578 829 573 823 q 554 836 582 836 q 535 840 531 836 l 537 843 q 565 848 545 848 q 579 851 578 848 q 578 866 581 854 q 524 927 566 911 m 594 936 q 580 943 594 943 q 564 933 564 943 q 571 920 564 927 q 587 919 581 910 q 594 936 594 928 m 454 966 q 443 975 449 972 q 432 974 436 977 q 428 964 428 971 q 444 956 428 953 q 456 959 455 958 q 454 966 457 961 m 416 975 q 435 1000 422 1000 q 475 973 449 1000 q 536 953 495 953 q 565 957 552 953 q 586 962 575 962 q 606 939 606 962 q 601 911 606 924 q 598 892 598 906 q 601 870 598 877 q 603 850 603 862 q 598 821 603 834 l 590 795 l 627 753 q 693 656 664 713 q 727 552 721 600 q 730 501 730 531 q 707 310 730 399 q 642 167 686 228 q 539 78 598 106 q 442 43 490 53 q 317 31 395 34 q 295 31 309 31 q 274 30 280 30 q 91 65 171 30 q 76 71 86 67 q 63 76 66 75 q 54 83 60 78 q 46 92 47 88 q 41 106 44 96 q 36 127 37 116 q 34 156 36 138 q 32 196 32 175 q 32 249 32 218 q 33 342 32 271 q 34 465 34 413 q 41 839 36 828 q 113 883 51 866 q 262 899 175 899 q 280 899 267 899 q 299 898 292 898 l 375 895 l 385 912 q 395 927 389 918 q 404 940 402 936 q 409 953 406 943 q 416 975 412 962 z "},"E":{"ha":668,"x_min":32,"x_max":630,"o":"m 561 339 q 564 339 561 340 q 575 333 567 338 q 609 287 591 322 q 627 214 627 250 l 627 201 q 612 125 626 154 q 587 85 601 103 q 567 67 573 67 q 569 80 566 67 q 579 113 572 93 q 593 185 593 152 q 592 200 593 190 q 591 216 591 211 q 575 306 588 275 q 561 339 561 336 m 503 365 q 505 366 503 366 q 511 365 507 366 q 519 363 515 365 q 565 309 546 355 q 584 206 584 263 l 584 190 q 571 116 582 155 q 546 59 559 76 q 521 45 541 50 l 502 41 l 515 65 q 547 204 547 128 q 523 318 547 266 q 503 365 503 362 m 461 346 l 444 373 l 466 372 q 488 362 481 369 q 512 322 495 354 q 542 204 542 262 q 512 79 542 146 q 495 47 500 53 q 477 42 490 42 q 462 44 465 42 q 463 53 459 46 q 483 108 472 76 q 499 201 499 154 q 461 346 499 279 m 402 368 q 418 373 402 373 q 466 318 442 373 q 491 208 491 263 q 459 67 491 130 q 427 42 447 42 q 409 45 409 42 q 425 82 409 50 q 450 201 450 138 q 420 326 450 269 q 402 368 402 361 m 237 950 q 336 956 322 956 l 339 956 q 431 951 347 956 q 609 897 575 942 q 624 873 624 878 q 580 870 624 870 l 573 870 q 535 863 535 870 q 567 854 535 858 q 613 846 605 850 q 630 813 630 838 q 627 799 630 808 l 624 785 l 605 800 q 541 816 583 816 q 513 810 519 816 q 506 801 506 806 q 544 792 506 792 q 594 780 579 792 l 609 767 l 596 753 q 466 711 557 711 q 400 714 439 711 q 341 718 363 718 q 314 715 325 718 q 291 694 300 711 q 281 661 281 678 q 294 626 281 639 q 317 615 306 615 q 362 620 333 615 q 405 625 384 625 q 457 604 443 625 q 465 588 465 593 q 461 584 465 584 q 439 591 454 584 q 392 601 417 601 q 365 595 374 601 q 359 587 359 593 q 398 575 359 575 q 446 563 432 575 q 459 531 459 549 q 457 525 459 525 q 456 526 456 525 q 455 527 456 527 q 374 550 412 550 q 346 532 346 550 q 381 524 346 524 q 433 510 418 524 q 445 498 444 501 q 436 488 446 494 q 392 480 426 480 q 325 473 355 480 q 288 455 294 465 q 281 418 281 442 q 285 395 281 403 q 308 375 289 383 q 347 367 326 367 l 354 367 l 365 367 q 393 357 383 367 q 419 314 403 347 q 439 216 435 277 l 439 196 q 407 66 439 130 l 396 42 l 289 42 q 160 49 198 42 q 89 82 122 57 q 47 131 61 104 l 32 160 l 37 509 q 46 839 41 786 q 74 914 51 891 q 126 939 91 932 q 237 950 160 947 z "},"F":{"ha":688,"x_min":32,"x_max":647,"o":"m 236 962 q 308 965 264 965 l 330 965 q 395 963 341 965 q 478 959 448 961 q 604 941 575 956 q 632 921 632 927 q 617 918 632 918 q 598 918 612 918 q 578 919 584 919 q 552 911 552 919 q 584 897 552 902 q 628 882 610 894 q 647 858 647 870 q 646 855 647 856 q 646 853 646 854 q 644 847 645 848 q 639 846 642 846 q 633 848 637 846 q 622 855 630 851 q 578 868 600 868 q 557 865 565 868 q 546 856 546 861 q 571 848 546 848 q 608 837 588 848 q 628 817 628 826 q 609 801 628 810 q 486 785 588 789 q 377 775 403 781 q 339 750 351 769 q 331 733 331 738 q 337 716 331 728 q 369 690 348 697 q 443 684 390 684 q 500 681 487 684 q 527 667 513 678 q 546 645 546 649 q 537 646 546 639 q 492 654 528 654 q 459 647 461 654 q 462 641 458 642 q 476 639 466 639 q 527 625 502 639 q 552 597 552 611 q 551 593 552 594 q 543 587 547 587 q 523 596 539 588 q 488 606 503 606 q 475 605 480 606 q 454 595 454 602 q 484 582 454 586 q 520 574 513 578 q 528 564 528 569 q 499 542 528 552 q 433 531 471 531 q 333 498 351 531 q 322 296 323 478 q 319 135 321 163 q 307 89 317 106 q 266 49 291 59 q 182 39 241 39 l 168 39 q 82 46 105 41 q 46 72 59 52 q 37 131 38 83 q 34 407 36 178 q 33 496 34 441 q 32 572 32 551 q 38 787 32 730 q 61 875 44 844 q 236 962 101 947 z "},"G":{"ha":740,"x_min":35,"x_max":704,"o":"m 412 959 q 444 981 433 981 q 465 970 454 981 q 493 927 477 958 q 509 884 509 895 q 517 874 509 874 q 568 853 532 874 q 627 810 604 832 q 679 741 659 780 q 700 671 700 701 q 694 646 700 655 q 684 652 689 638 q 660 688 679 666 q 633 709 641 709 q 624 705 624 709 q 639 684 624 699 q 666 632 666 657 q 662 613 666 623 q 642 588 654 595 q 633 586 634 584 q 631 601 631 588 q 624 634 631 618 q 599 667 616 649 q 575 684 582 684 q 575 664 558 684 l 580 661 q 602 631 593 649 q 611 601 611 613 q 595 587 611 587 q 529 613 572 587 q 406 657 455 657 q 351 644 378 657 q 271 521 292 611 q 264 459 264 486 q 284 375 264 416 q 378 303 318 303 q 409 308 395 303 q 443 331 429 314 q 457 368 457 348 q 457 372 457 369 q 456 376 456 375 q 449 426 455 380 q 448 446 448 434 q 462 475 448 461 q 531 493 480 493 q 589 484 561 493 q 644 446 617 472 q 686 387 671 419 q 704 293 704 351 q 700 237 703 253 q 683 192 697 220 q 590 83 653 127 q 449 28 527 39 q 400 24 419 24 q 331 31 377 24 q 117 141 190 54 q 36 382 44 228 q 35 419 35 394 q 126 736 35 601 l 160 787 l 156 826 q 155 850 155 834 q 160 889 155 875 q 170 909 166 905 q 191 912 175 912 q 250 891 215 912 q 295 873 281 873 q 324 876 306 873 q 358 885 351 881 q 376 910 366 890 q 412 959 390 935 z "},"H":{"ha":792,"x_min":34,"x_max":759,"o":"m 153 943 q 186 957 167 957 q 203 955 201 957 q 198 943 205 954 q 183 877 183 920 q 197 837 183 837 l 199 837 q 211 861 208 838 q 215 910 212 897 q 229 936 218 924 l 244 954 l 262 938 q 315 832 297 904 q 329 720 323 794 q 343 618 336 637 q 370 583 351 596 q 411 569 389 569 q 449 583 438 569 q 464 631 461 596 q 498 833 479 767 q 549 933 516 898 q 575 950 565 950 q 579 947 579 950 q 575 938 579 944 q 569 903 569 926 q 582 852 569 852 q 591 889 590 852 q 604 942 593 926 q 640 957 615 957 q 662 954 662 957 q 656 946 662 951 q 637 873 637 922 q 649 837 637 837 l 652 837 q 664 881 661 838 q 696 944 670 944 q 728 926 709 944 q 754 869 749 905 q 759 689 759 832 q 759 598 759 666 q 758 484 758 530 q 758 422 758 462 q 748 106 757 147 q 716 64 741 76 q 706 58 714 61 q 697 53 700 56 q 608 36 662 36 q 535 47 558 36 q 493 93 512 58 q 480 129 483 111 q 476 216 478 147 q 470 326 473 314 q 447 353 468 340 q 405 366 426 366 q 362 345 383 366 l 340 322 l 341 235 l 341 222 q 326 107 341 140 q 262 51 310 74 q 192 36 230 36 q 112 57 149 36 q 57 113 75 78 q 34 519 35 155 l 34 630 q 44 826 34 780 q 65 892 53 870 q 98 931 76 914 l 119 946 l 115 914 q 113 894 113 907 q 131 846 113 846 q 140 888 139 846 q 153 943 140 929 z "},"I":{"ha":398,"x_min":34,"x_max":365,"o":"m 47 119 q 56 123 47 127 q 137 90 113 96 q 199 84 160 84 q 334 116 262 84 q 341 118 339 118 q 345 113 345 118 q 326 84 345 104 q 278 51 304 60 q 199 39 245 39 q 122 51 153 39 q 74 83 101 59 q 47 119 47 108 m 41 156 l 41 174 l 78 156 q 209 126 138 126 q 233 127 226 126 q 351 168 270 132 q 356 166 354 169 q 358 154 358 162 q 351 137 358 142 q 317 118 344 131 q 201 90 259 90 l 81 119 q 48 138 56 131 q 41 156 41 145 m 36 203 l 34 220 l 75 200 q 201 171 137 171 q 326 201 270 171 l 365 220 l 365 205 q 332 168 365 186 q 248 138 300 149 q 206 134 228 134 q 79 164 139 134 q 45 184 53 176 q 36 203 37 192 m 36 250 l 34 270 l 71 252 q 204 220 135 220 q 321 247 265 220 l 365 269 l 365 248 q 358 227 365 234 q 325 207 352 221 q 203 177 263 177 l 79 208 q 45 229 52 222 q 36 250 38 236 m 203 801 q 196 808 196 804 q 206 816 196 816 q 215 810 213 816 q 216 800 220 803 q 203 801 212 797 m 244 833 q 246 840 244 838 q 251 841 248 843 q 260 828 263 838 q 253 823 259 823 q 244 833 244 823 m 174 853 q 182 860 174 862 q 191 846 194 856 q 184 843 189 843 q 174 853 174 843 m 133 833 q 148 830 144 830 q 152 832 152 830 q 135 848 152 841 q 123 846 123 854 q 133 833 123 838 m 314 880 q 315 887 314 882 q 318 896 317 892 q 317 903 318 900 q 309 906 315 906 q 292 898 292 906 q 301 884 292 891 q 314 880 314 874 m 245 897 q 205 905 228 905 q 137 878 160 905 q 133 867 131 872 q 147 852 135 862 q 163 828 163 839 q 150 819 163 819 q 141 821 145 819 q 123 817 123 824 q 141 810 123 810 q 152 809 150 809 l 146 807 l 144 807 q 130 795 130 806 q 147 771 130 787 q 219 743 175 743 q 244 747 231 743 q 266 758 266 753 q 259 767 266 760 q 252 778 252 775 q 253 779 252 779 q 266 774 256 779 q 280 770 275 770 q 285 772 282 770 q 282 778 286 774 q 270 785 278 782 q 251 794 251 792 q 257 796 251 796 q 275 794 259 796 q 301 797 301 791 q 278 804 301 804 q 260 808 260 804 q 270 814 260 810 q 287 817 280 817 q 301 831 301 817 q 284 867 301 846 q 245 897 267 888 m 160 936 q 160 924 157 927 q 172 924 163 921 q 179 943 194 928 q 160 936 164 958 m 149 954 q 164 969 157 969 q 198 948 176 969 q 266 919 231 919 q 299 922 281 919 q 318 925 315 925 q 334 912 334 925 q 331 895 334 905 q 324 830 324 868 q 334 737 324 778 q 361 417 354 661 l 365 279 l 343 265 q 203 227 277 227 q 65 263 130 227 l 35 279 l 35 318 q 43 536 36 406 q 56 698 50 667 q 81 787 64 747 q 97 841 97 828 q 106 872 97 854 q 128 902 116 890 q 142 926 142 913 q 149 954 142 940 z "},"J":{"ha":678,"x_min":35,"x_max":644,"o":"m 175 399 q 205 410 197 410 q 213 399 213 410 q 182 374 213 384 q 113 363 150 363 q 63 372 82 363 q 45 392 42 380 q 59 400 49 406 q 122 392 81 392 q 175 399 160 392 m 172 435 q 196 442 186 442 q 206 434 206 442 q 185 411 206 420 q 119 398 160 398 q 56 420 56 398 q 56 422 56 421 q 57 425 57 424 q 78 432 59 432 q 110 431 96 432 q 120 430 113 431 q 130 429 127 429 q 172 435 157 429 m 153 461 q 183 465 171 465 q 196 457 196 465 q 172 443 196 450 q 124 436 148 436 l 116 436 q 69 449 69 436 l 69 450 q 71 453 71 451 q 101 458 74 462 q 118 457 105 457 q 153 461 139 457 m 103 488 q 135 499 120 499 q 164 492 148 499 q 181 479 181 485 q 140 468 181 470 q 127 467 135 468 q 116 466 119 466 q 87 473 87 466 q 103 488 87 479 m 400 814 q 400 815 400 815 l 399 817 q 404 822 399 822 q 413 818 407 822 q 418 811 418 815 q 411 806 418 808 q 400 814 405 803 m 346 823 q 350 832 346 828 q 359 837 354 837 q 365 826 365 837 q 355 817 365 817 q 346 823 346 817 m 348 782 q 356 791 360 791 q 348 791 354 791 q 321 778 321 788 q 341 778 321 766 q 348 782 345 780 m 295 867 q 299 878 300 875 q 289 881 297 881 q 274 874 278 881 q 279 861 271 868 q 295 867 288 854 m 479 878 q 473 887 479 887 q 459 874 469 887 q 450 858 450 862 q 453 855 450 855 q 469 865 458 855 q 479 878 479 874 m 446 909 q 409 918 424 918 q 365 905 392 918 q 309 826 316 880 l 306 796 l 332 800 q 337 800 333 800 q 343 801 340 801 q 363 789 363 801 q 352 771 363 781 q 343 756 338 760 q 362 766 346 752 q 377 774 377 779 q 372 763 377 766 q 365 755 365 757 q 392 748 365 748 q 473 793 446 748 q 486 824 486 815 q 478 832 486 832 q 472 831 475 832 q 462 831 463 829 q 472 841 459 836 l 477 843 q 486 852 486 843 q 469 852 486 862 q 447 850 451 840 q 442 861 442 855 q 455 883 442 867 l 468 899 l 446 909 m 416 950 q 402 962 410 962 q 391 949 391 962 q 406 938 391 938 q 419 940 418 938 q 416 950 420 942 m 389 979 q 403 987 399 987 q 428 959 409 987 q 454 932 446 932 q 480 913 457 932 q 528 888 502 894 q 642 550 631 858 q 643 523 642 542 q 644 495 644 505 q 622 223 644 321 q 490 44 589 79 q 370 32 453 32 q 233 45 280 32 q 53 184 105 79 q 38 226 41 209 q 35 287 35 242 q 37 352 35 338 q 49 367 39 367 q 71 361 53 367 q 119 354 91 354 q 192 368 164 354 l 212 378 l 228 350 q 308 296 258 296 q 349 312 336 296 q 368 373 362 328 q 374 516 374 418 q 373 563 374 530 q 373 615 373 595 l 372 720 l 350 728 q 308 758 326 736 q 286 806 291 780 q 266 853 281 833 q 251 880 251 873 q 264 894 251 888 q 294 899 278 899 q 339 917 313 899 q 370 953 365 935 q 389 979 376 969 z "},"K":{"ha":736,"x_min":32,"x_max":696,"o":"m 659 139 q 683 157 676 157 q 685 154 685 157 q 675 126 685 147 q 638 82 663 102 q 587 54 613 61 q 537 49 566 49 q 463 61 485 49 q 456 67 456 65 q 506 74 456 71 q 659 139 602 81 m 645 176 q 676 201 669 201 q 682 198 681 201 q 681 177 686 188 q 639 134 671 161 q 586 97 608 108 q 495 81 550 81 q 439 100 439 81 q 492 106 439 102 q 575 125 541 109 q 645 176 610 141 m 632 207 q 663 231 655 231 q 668 221 668 231 q 641 180 668 206 q 583 138 615 154 q 471 112 530 112 q 432 127 432 112 q 480 139 432 135 q 632 207 569 145 m 618 245 q 639 265 634 265 q 646 260 642 265 q 650 249 650 253 q 610 199 650 236 q 486 147 560 155 q 468 146 480 146 q 419 166 419 146 q 466 176 419 175 q 552 198 509 178 q 618 245 595 218 m 153 892 q 161 941 153 925 q 194 957 170 957 q 215 953 215 957 q 207 936 215 950 q 194 881 194 918 q 207 843 194 843 q 216 875 216 843 q 224 922 216 904 q 243 940 231 940 q 256 933 249 940 q 292 869 279 912 q 311 741 304 826 q 322 639 318 660 q 338 613 326 619 q 352 610 343 610 q 372 615 362 610 q 382 627 382 620 q 444 763 382 635 q 503 877 491 856 q 536 909 516 897 q 588 925 561 925 l 612 925 l 593 905 q 559 846 559 869 q 571 837 559 832 q 581 850 579 840 q 606 886 586 866 q 638 906 626 906 q 663 895 652 906 q 670 883 671 885 q 657 874 669 880 q 627 841 645 867 q 610 802 610 815 q 616 791 610 791 q 639 817 627 791 q 666 854 652 844 q 679 860 675 860 q 696 787 696 860 q 692 729 696 745 q 675 681 689 712 q 620 591 653 633 q 579 525 588 550 q 572 476 572 505 q 616 321 572 399 l 639 278 l 610 249 q 468 184 553 191 q 442 183 457 183 q 417 189 420 183 q 389 280 412 196 q 366 352 372 341 q 345 365 360 362 q 318 353 325 366 q 307 226 310 334 q 302 126 304 147 q 291 91 299 104 q 178 46 259 46 q 38 138 56 46 q 32 432 32 164 q 38 752 32 705 q 96 926 52 882 q 134 950 120 950 q 139 946 139 950 q 138 940 139 942 q 130 891 130 917 q 144 855 130 855 q 153 892 153 855 z "},"L":{"ha":711,"x_min":34,"x_max":672,"o":"m 630 256 l 627 263 q 631 266 627 266 q 657 241 640 266 q 672 179 672 216 q 659 120 672 144 q 645 103 649 103 q 642 108 642 103 q 647 139 642 109 q 649 166 649 155 q 630 256 649 209 m 571 281 q 581 284 569 285 q 586 284 583 284 q 620 250 602 282 q 637 168 637 219 q 628 100 637 122 q 597 67 619 78 q 587 63 591 65 q 579 60 582 60 l 576 59 q 590 93 576 63 q 603 168 603 123 q 598 219 603 199 q 571 281 593 238 m 513 294 q 529 295 512 299 q 576 251 558 287 q 594 167 594 214 q 573 76 594 113 q 549 44 554 44 q 531 42 541 44 q 521 39 522 39 q 517 42 517 39 q 532 80 517 46 q 554 170 554 125 q 535 250 554 212 q 525 269 531 258 q 516 286 520 280 q 513 294 513 293 m 167 946 q 180 962 174 958 q 205 965 186 965 l 234 965 l 219 946 q 204 883 204 924 q 216 845 204 846 l 220 845 q 227 877 227 845 q 238 930 227 907 q 265 953 250 953 q 295 934 279 953 q 321 887 310 916 q 330 822 329 865 q 331 609 331 780 q 343 340 331 368 q 369 312 353 318 q 440 301 385 306 q 502 287 488 296 q 531 236 515 278 q 544 166 544 201 q 507 50 544 94 l 490 30 l 341 36 q 148 56 197 42 q 71 117 100 71 q 40 194 46 155 q 34 360 34 233 l 34 434 q 60 862 35 782 q 93 920 68 888 q 128 953 117 953 q 135 906 135 953 l 135 890 q 146 858 135 861 l 149 858 q 157 891 157 858 q 167 946 157 925 z "},"M":{"ha":1069,"x_min":35,"x_max":1036,"o":"m 265 113 q 301 127 295 127 l 302 127 q 303 125 303 126 q 287 102 303 119 q 253 75 271 86 q 219 61 234 64 q 162 58 204 58 q 83 72 102 58 q 57 97 69 81 q 44 119 44 113 q 45 120 44 120 q 94 108 58 120 q 175 94 135 94 q 265 113 220 94 m 38 155 q 37 159 38 156 l 37 161 q 41 164 37 164 q 76 152 46 164 q 174 134 118 134 q 267 152 230 134 q 307 168 301 168 q 310 157 310 168 q 276 128 310 145 q 207 106 242 111 q 177 104 189 104 q 84 120 127 104 q 38 155 41 135 m 38 192 q 37 196 38 193 l 37 198 q 42 203 37 203 q 76 190 44 203 q 174 172 118 172 q 267 190 230 172 q 307 206 301 206 q 310 196 310 206 q 273 164 310 183 q 232 150 249 153 q 170 147 215 147 q 109 149 125 147 q 72 163 93 152 q 38 192 41 179 m 38 235 q 38 249 36 248 q 51 243 39 250 q 171 214 97 214 q 273 234 233 214 l 310 251 l 310 236 q 303 221 310 228 q 273 203 295 214 q 232 188 249 191 q 170 185 215 185 q 109 188 125 185 q 72 201 93 190 q 38 235 39 219 m 208 841 q 212 851 208 846 q 221 855 216 855 q 227 846 227 855 q 218 836 227 836 q 208 841 208 836 m 310 894 q 284 887 310 910 q 277 874 269 876 q 298 881 286 874 q 310 894 310 889 m 291 928 q 223 956 269 956 q 167 941 192 956 q 134 910 149 931 q 119 875 119 889 q 137 868 119 868 q 162 875 155 868 q 175 878 169 882 q 178 865 182 874 q 147 855 175 855 q 123 848 122 854 q 148 845 126 840 q 161 846 153 846 q 169 843 169 846 q 149 831 169 838 l 128 823 l 154 826 l 179 829 l 164 817 q 154 807 154 810 q 186 793 154 803 q 213 789 200 789 q 281 818 251 789 q 302 843 302 836 q 286 851 302 848 q 275 852 277 852 l 289 854 q 310 863 310 854 q 297 869 310 869 l 277 869 q 265 874 265 869 q 263 878 265 877 q 259 879 262 880 q 253 878 257 878 q 247 881 250 878 q 245 894 236 887 q 260 895 253 902 q 285 903 270 888 q 291 928 299 919 m 125 941 q 134 955 134 948 q 118 963 134 963 q 109 958 110 963 q 111 946 108 954 q 113 936 113 939 q 125 941 113 932 m 274 991 q 252 991 267 1009 q 253 976 245 980 q 270 969 264 969 q 278 978 278 969 q 274 991 278 981 m 241 1002 q 270 1020 258 1020 q 291 975 289 1020 q 300 953 291 957 q 322 924 309 947 q 336 890 336 902 q 405 794 336 880 q 498 691 475 708 q 541 677 515 677 q 589 692 567 677 q 645 770 610 705 q 698 853 676 829 q 825 897 740 897 q 862 894 845 897 q 953 849 913 884 q 1006 764 992 814 q 1024 561 1014 731 q 1036 267 1035 390 l 1036 229 q 1029 120 1036 146 q 994 75 1022 94 q 961 60 976 63 q 897 58 947 58 q 834 60 847 58 q 808 74 821 63 q 773 140 784 96 q 751 308 763 184 q 735 424 743 407 q 711 445 729 435 q 679 455 692 455 q 640 413 667 455 q 531 334 589 334 q 484 348 503 334 q 433 407 465 362 q 378 453 400 453 q 354 446 368 453 q 310 324 310 422 l 310 266 l 289 253 q 172 222 238 222 q 73 243 120 222 l 35 260 l 38 363 q 46 611 42 436 q 56 762 50 726 q 83 826 63 799 q 101 888 100 848 l 101 900 q 97 956 101 938 l 91 983 l 112 983 q 145 976 131 983 q 162 972 152 972 q 204 981 181 972 q 241 1002 228 990 z "},"N":{"ha":853,"x_min":32,"x_max":818,"o":"m 749 93 q 788 105 780 105 q 792 103 792 105 l 789 96 q 733 37 775 58 q 661 24 707 24 q 576 43 603 24 q 546 69 546 66 q 627 79 546 79 q 749 93 714 79 m 756 147 q 799 162 793 162 q 803 159 803 162 q 801 146 803 157 q 793 128 800 134 q 763 113 786 123 q 626 88 693 88 q 556 96 587 88 q 529 106 536 101 q 516 126 522 112 q 510 143 509 141 q 522 142 510 145 q 634 127 574 127 q 756 147 700 127 m 749 198 q 799 214 792 214 q 807 200 807 214 q 770 169 807 186 q 632 141 706 141 q 535 155 581 141 q 494 181 500 164 q 490 200 487 198 q 492 201 491 201 q 530 192 495 201 q 638 181 569 181 q 749 198 709 182 m 766 262 l 803 275 l 804 257 l 804 249 q 796 233 804 238 q 757 215 787 227 q 634 192 694 192 q 523 209 579 192 q 480 227 490 220 q 465 256 470 235 q 464 271 463 269 q 473 270 465 273 q 633 236 554 236 q 766 262 699 236 m 677 852 q 684 855 681 855 q 694 845 694 855 q 685 838 694 838 q 677 852 663 838 m 645 895 q 653 900 648 900 q 662 889 662 900 q 657 880 662 883 q 645 883 649 877 q 645 895 640 888 m 781 858 q 776 863 781 861 q 763 863 771 865 q 750 858 756 861 q 755 847 741 852 q 773 847 765 844 q 781 858 781 850 m 770 899 q 736 935 760 922 q 681 948 711 948 q 601 912 625 948 q 593 899 595 904 q 590 892 590 895 q 593 889 590 890 q 600 889 595 889 q 620 879 605 889 q 634 865 634 869 q 633 863 634 863 l 616 870 q 591 877 598 877 q 587 876 588 877 q 586 873 587 875 q 615 856 586 865 l 626 852 q 611 851 625 852 q 590 844 590 848 q 611 837 590 839 l 626 836 q 616 831 625 834 l 601 825 l 616 809 q 688 782 640 782 q 744 800 723 782 l 758 813 l 744 816 q 730 826 730 819 q 744 829 730 832 q 766 823 762 823 q 772 830 770 823 q 771 834 773 832 q 765 837 770 836 q 753 838 760 838 q 735 841 740 838 q 728 855 730 844 q 727 866 727 859 q 736 881 727 881 q 744 876 737 881 q 767 874 752 869 q 774 877 772 876 q 777 882 777 878 q 775 888 777 885 q 770 899 774 891 m 774 953 q 764 972 774 972 q 750 963 757 972 q 759 943 744 955 l 774 933 l 774 953 m 634 976 q 620 984 627 984 q 609 968 609 984 q 611 955 609 956 q 625 959 613 954 q 634 976 640 968 m 594 979 q 600 999 596 995 q 615 1003 603 1003 q 647 987 631 1003 q 694 971 662 971 q 743 980 729 973 q 777 991 760 988 l 795 991 l 791 955 q 789 938 789 949 q 794 907 789 917 q 803 850 799 898 q 811 758 806 799 q 818 568 818 713 q 815 388 818 471 l 810 297 l 788 285 q 634 250 720 250 q 475 286 546 250 q 434 331 449 300 q 352 410 395 410 q 341 409 345 410 q 292 193 308 397 q 278 90 285 116 q 256 49 272 65 q 162 21 227 21 q 94 35 122 21 q 60 64 76 43 q 37 106 44 86 q 32 313 32 122 q 43 752 32 711 q 72 828 51 792 q 115 880 93 863 q 194 902 146 902 q 237 895 218 902 q 340 808 279 881 q 443 647 402 735 q 525 546 492 546 q 550 563 541 546 q 558 613 558 574 q 556 704 558 620 q 554 777 554 731 q 581 926 554 887 q 589 940 587 935 q 591 948 590 946 q 591 960 591 951 q 594 979 591 969 z "},"O":{"ha":896,"x_min":35,"x_max":860,"o":"m 497 500 q 434 514 468 514 q 325 454 356 514 q 295 410 314 428 q 273 359 273 387 q 339 277 273 310 q 380 261 363 264 q 436 258 397 258 q 582 310 538 258 q 601 358 601 330 q 569 422 601 395 q 557 442 557 433 q 539 471 557 454 q 497 500 521 488 m 292 539 q 240 567 269 567 q 213 557 223 567 q 203 531 203 547 q 208 508 203 523 q 239 469 216 487 q 278 451 262 451 q 304 462 295 451 q 314 488 314 472 q 292 539 314 514 m 627 579 q 587 568 609 579 q 554 539 566 557 q 544 506 544 523 q 559 473 544 484 q 580 468 566 468 q 639 500 610 468 q 659 547 659 522 q 650 571 659 563 q 627 579 642 579 m 547 678 q 517 692 535 692 q 461 646 480 692 q 449 598 449 623 q 458 559 449 578 q 491 536 471 536 q 546 574 519 536 q 560 631 560 593 q 547 678 560 663 m 376 670 q 334 692 355 692 q 305 677 317 692 q 293 638 293 662 q 296 610 293 625 q 326 559 304 583 q 368 535 347 535 q 403 564 390 535 q 407 593 407 574 q 376 670 407 637 m 534 958 q 576 977 557 977 q 618 904 613 977 l 622 863 l 664 833 q 809 674 759 771 q 860 461 860 576 q 755 167 860 289 q 675 95 715 120 q 572 52 634 69 q 490 41 529 41 q 443 42 462 41 q 332 54 375 44 q 242 88 289 64 q 125 181 177 120 q 50 313 73 242 q 35 427 35 361 l 35 455 q 38 545 35 520 q 52 606 41 569 q 168 810 91 734 q 207 854 199 843 q 216 890 214 866 q 260 971 227 971 q 325 933 284 971 l 352 907 l 416 907 q 472 910 462 907 q 494 924 483 912 q 534 958 509 940 z "},"P":{"ha":769,"x_min":34,"x_max":729,"o":"m 42 106 q 39 128 39 120 q 41 137 39 135 q 86 117 42 137 q 197 93 135 93 q 323 125 267 93 q 347 134 343 137 q 343 104 348 131 q 301 50 334 64 q 179 36 267 36 q 72 48 96 36 q 42 106 49 60 m 38 166 l 38 181 l 79 161 q 199 132 142 132 q 308 159 252 132 q 344 174 338 174 q 348 163 348 174 q 309 131 348 149 q 193 102 251 102 q 79 131 137 102 q 38 166 38 149 m 39 205 q 39 210 39 207 q 38 214 38 213 q 42 218 38 218 q 74 204 44 218 q 198 175 133 175 q 267 185 229 175 q 328 209 306 196 q 347 208 343 220 q 348 204 348 207 q 292 163 348 190 q 252 149 269 152 q 193 146 235 146 q 133 149 148 146 q 86 168 117 153 q 39 205 41 190 m 38 248 q 41 264 38 264 q 86 244 42 264 q 198 220 138 220 q 322 252 267 220 l 344 265 l 341 247 q 333 229 340 235 q 304 211 326 222 q 196 184 252 184 q 79 213 137 184 q 46 232 53 226 q 38 248 38 238 m 455 722 q 406 731 433 731 q 323 694 351 731 q 289 652 306 669 q 271 608 271 630 q 307 552 271 575 q 402 527 344 528 l 407 527 q 506 550 468 527 q 544 608 544 574 q 525 652 544 630 q 507 679 507 672 q 490 701 507 688 q 455 722 473 714 m 272 766 q 240 775 257 775 q 216 769 223 775 q 208 749 208 760 q 230 706 208 728 q 274 684 251 684 q 284 685 280 684 q 302 713 302 690 q 272 766 302 747 m 593 766 q 586 780 590 778 q 564 782 581 782 q 519 764 538 782 q 499 726 499 745 q 514 700 499 708 q 530 694 525 694 q 553 704 535 694 q 594 756 594 725 q 593 766 594 763 m 505 861 q 478 877 494 877 q 443 860 461 877 q 419 800 419 836 q 428 765 419 779 q 454 751 438 751 q 466 753 457 751 q 499 783 486 760 q 513 830 513 806 q 505 861 513 850 m 347 867 q 319 877 333 877 q 295 865 304 877 q 286 833 286 853 q 294 799 286 816 q 318 766 301 781 q 348 751 336 751 q 380 796 380 751 q 347 867 380 845 m 166 971 q 299 976 207 976 q 510 964 468 976 q 583 935 556 951 q 640 889 611 919 q 729 685 729 796 q 700 564 729 622 q 584 436 653 470 q 543 421 560 424 q 478 418 525 418 q 385 424 417 418 q 372 426 374 426 q 352 408 358 426 q 344 338 347 390 l 339 273 l 302 253 q 259 238 275 241 q 193 235 243 235 q 127 238 144 235 q 81 256 111 241 l 38 277 l 38 455 q 35 713 38 647 q 34 760 34 729 q 57 924 34 883 q 93 955 69 946 q 166 971 116 965 z "},"Q":{"ha":841,"x_min":36,"x_max":806,"o":"m 447 523 q 407 528 429 528 q 296 468 328 528 q 266 421 279 436 q 250 377 250 402 q 266 333 250 353 q 407 279 314 279 q 447 282 428 279 q 564 373 557 304 q 565 389 565 378 q 549 422 565 403 q 520 463 531 441 q 447 523 495 509 m 252 566 q 216 579 234 579 q 190 570 201 579 q 179 547 179 561 q 200 501 179 527 q 242 469 220 476 q 250 468 244 468 q 275 477 264 468 q 287 501 287 487 q 252 566 287 539 m 613 582 q 587 593 603 593 q 535 568 560 593 q 509 515 509 544 q 549 485 509 485 q 600 509 576 485 q 623 559 623 534 q 613 582 623 573 m 519 681 q 488 700 508 700 q 453 685 471 700 q 427 647 435 670 q 420 611 420 630 q 432 567 420 586 q 461 549 443 549 q 507 579 487 549 q 527 644 527 609 q 519 681 527 664 m 340 686 q 306 701 322 701 q 270 647 270 701 l 270 637 q 296 576 273 602 q 341 550 318 550 q 370 568 360 550 q 378 603 378 583 q 340 686 378 656 m 212 899 q 248 978 212 978 q 291 962 262 978 q 334 929 319 946 q 396 916 347 916 q 443 919 432 916 q 477 940 454 922 q 549 978 525 978 q 559 975 553 978 q 584 909 584 958 q 590 880 584 887 q 625 853 595 873 q 759 705 712 796 q 806 500 806 615 q 804 469 806 479 q 790 372 801 410 q 752 289 779 334 q 725 206 725 243 q 733 170 725 185 q 743 131 743 149 q 700 65 743 89 q 610 42 656 42 q 571 45 583 42 q 537 63 558 49 l 506 83 l 402 83 q 255 97 296 83 q 159 162 213 110 q 63 321 104 213 q 36 454 36 390 q 43 532 36 487 q 176 828 73 725 q 207 863 201 854 q 212 899 212 873 z "},"R":{"ha":712,"x_min":34,"x_max":671,"o":"m 647 102 q 670 124 669 124 q 671 120 671 124 q 666 94 671 112 q 654 71 660 76 q 579 42 627 42 l 554 42 l 589 61 q 647 102 628 83 m 394 627 q 339 640 368 640 q 267 611 289 640 q 252 591 266 609 q 230 559 238 574 q 222 532 222 544 q 258 482 222 501 q 341 463 294 463 q 441 498 410 463 q 457 534 457 515 q 455 547 457 541 q 449 562 454 554 q 442 573 444 569 q 432 586 439 578 q 424 597 425 595 q 394 627 411 619 m 234 659 q 196 679 215 679 q 172 649 172 679 q 190 617 172 637 q 220 598 207 598 q 249 625 249 598 q 234 659 249 642 m 475 686 q 438 670 456 686 q 420 634 420 654 q 442 612 420 613 l 446 612 q 483 628 465 612 q 500 662 500 645 q 493 679 500 672 q 475 686 486 686 m 303 738 q 264 764 287 764 q 241 748 248 764 q 236 727 236 738 q 262 672 236 694 q 289 656 281 656 q 307 667 299 656 q 317 697 317 677 q 303 738 317 718 m 412 764 q 398 770 403 770 q 375 752 396 770 q 351 700 351 731 q 361 669 351 683 q 391 659 374 653 q 418 685 407 664 q 429 727 429 705 q 412 764 429 755 m 216 953 q 250 978 234 978 q 285 956 266 978 q 315 916 309 929 q 341 895 325 895 q 397 931 362 895 q 457 971 438 971 q 477 961 468 971 q 505 877 497 935 q 512 856 506 862 q 541 838 519 850 q 666 660 649 785 q 669 617 669 638 q 634 484 669 542 q 536 402 598 427 l 502 388 l 539 354 q 597 289 574 323 q 619 238 619 256 q 583 187 619 219 q 519 144 547 155 q 495 131 494 133 l 497 131 q 545 151 513 131 q 596 192 578 171 q 622 226 622 222 q 630 229 622 235 q 637 221 634 227 q 638 215 638 219 q 605 162 638 194 q 535 115 572 130 q 507 98 505 100 q 571 127 530 98 q 632 185 612 155 q 645 197 639 197 q 653 179 653 197 q 630 139 653 164 q 581 98 608 113 q 556 80 554 82 q 595 101 565 80 q 638 139 625 123 q 661 161 656 161 q 666 147 666 161 q 638 105 666 132 q 581 64 611 78 q 535 49 550 49 q 512 56 523 49 q 507 66 500 63 q 523 71 512 67 l 549 79 l 516 75 q 497 74 509 74 q 472 80 480 74 q 465 88 464 86 q 479 93 466 90 q 492 96 490 95 l 476 98 q 438 118 438 101 q 462 126 438 124 l 476 128 q 454 130 469 128 q 422 135 429 131 q 399 167 416 140 q 350 259 384 192 q 315 315 319 315 q 304 200 308 315 q 295 86 302 106 q 256 51 288 65 q 184 42 231 42 q 91 54 120 42 q 56 89 65 67 q 39 178 46 111 q 34 405 34 240 q 45 764 34 723 q 83 820 53 791 q 148 866 112 850 q 178 884 170 876 q 191 905 186 891 q 216 953 198 927 z "},"S":{"ha":747,"x_min":38,"x_max":706,"o":"m 185 251 q 212 273 206 273 l 221 271 q 226 266 226 269 q 206 236 226 262 q 168 131 168 189 q 175 88 168 108 q 178 74 179 76 q 167 73 176 72 q 139 139 139 76 q 153 207 139 176 q 185 251 164 230 m 111 208 q 140 253 117 225 q 178 282 163 282 l 181 282 q 193 277 193 278 l 171 248 q 132 141 132 203 q 137 104 132 119 q 139 91 139 93 q 133 83 139 83 q 118 90 128 83 q 105 161 105 98 q 111 208 105 189 m 76 275 q 103 287 95 287 q 106 284 106 287 q 96 264 106 278 q 60 161 60 218 q 58 142 59 144 q 51 149 56 142 q 38 194 38 166 q 76 275 38 252 m 113 273 q 145 293 133 293 q 155 289 155 293 q 140 266 155 285 q 96 149 96 214 l 96 135 q 93 103 96 103 q 76 122 82 103 q 69 168 69 141 q 82 230 69 205 q 113 273 91 249 m 354 968 q 387 990 376 990 q 417 969 398 990 q 443 924 435 948 q 459 898 451 904 q 497 882 468 891 q 642 799 579 855 q 706 698 706 743 q 704 693 706 693 q 675 719 700 693 q 640 747 648 747 q 635 744 638 747 q 650 715 627 736 q 681 662 681 689 q 677 649 681 655 q 662 638 670 638 q 652 650 655 638 q 626 686 649 662 q 593 711 602 711 q 586 705 586 711 q 603 682 586 693 q 626 656 615 674 q 637 628 637 639 q 609 623 637 623 q 579 628 589 623 q 543 659 568 634 q 484 704 517 684 q 432 723 450 723 q 363 698 397 723 q 323 645 329 674 q 322 627 322 639 q 341 563 322 594 q 389 520 361 531 q 457 506 403 515 q 604 462 553 490 q 678 384 654 434 q 693 324 693 354 q 692 285 693 302 q 670 178 690 220 q 550 52 630 93 q 508 35 522 38 q 457 31 493 31 l 425 31 q 271 46 348 32 q 186 73 194 59 q 176 133 176 93 q 181 176 176 161 q 214 233 189 204 q 255 262 238 262 q 289 280 269 262 q 307 309 307 297 q 306 319 307 316 q 285 356 301 341 q 220 398 269 370 q 78 534 115 457 q 58 616 58 574 l 58 635 q 71 729 58 692 q 118 803 84 765 q 146 839 140 826 q 156 880 152 851 q 196 951 167 951 q 262 917 218 951 q 296 895 291 895 q 319 920 304 895 q 354 968 337 950 z "},"T":{"ha":883,"x_min":39,"x_max":843,"o":"m 306 120 q 336 115 306 128 q 420 98 362 102 q 436 98 426 98 q 449 97 446 97 q 514 112 479 97 q 556 125 543 125 l 558 125 q 559 123 559 125 q 542 99 559 116 q 508 74 525 82 q 422 59 479 59 q 359 68 378 59 q 323 94 340 76 q 306 120 306 111 m 299 156 l 299 172 l 336 156 q 428 139 373 139 l 444 139 q 523 156 487 139 q 563 174 560 174 q 564 159 566 174 q 523 126 563 146 q 482 110 498 113 q 428 106 466 106 q 336 124 372 106 q 306 141 313 134 q 299 156 299 147 m 528 204 q 545 213 536 208 q 558 220 553 218 l 564 223 q 565 204 565 223 q 558 185 565 191 q 522 164 551 178 q 428 145 480 145 q 336 164 377 145 q 301 184 309 177 q 293 201 293 191 q 299 216 293 216 q 328 205 304 216 q 432 181 378 181 q 528 204 484 181 m 293 248 q 295 259 293 257 q 304 258 297 262 q 359 237 310 256 q 432 225 397 225 q 523 245 478 225 q 563 262 558 262 q 565 247 565 262 q 557 230 565 237 q 522 209 549 222 q 477 192 493 196 q 428 189 462 189 q 378 192 395 189 q 334 209 362 196 q 300 230 308 222 q 293 248 293 237 m 229 880 q 237 887 229 889 q 247 873 250 883 q 240 869 244 869 q 229 880 229 869 m 160 869 q 176 874 176 869 q 156 882 176 882 q 141 876 141 882 q 160 869 141 869 m 302 898 q 311 900 306 899 q 318 901 316 900 q 323 903 319 902 q 325 906 326 904 q 324 913 324 909 q 302 906 319 920 l 286 896 q 282 902 282 898 q 299 918 282 909 q 315 936 315 927 q 293 962 315 947 q 240 978 267 978 q 155 936 188 978 q 141 910 141 919 q 163 892 141 896 q 186 875 186 887 q 166 859 186 862 q 152 850 150 854 q 174 850 157 844 q 186 853 183 853 q 191 851 191 853 q 177 839 191 846 q 170 830 166 833 q 186 823 172 829 q 230 814 211 814 q 304 846 274 814 q 315 859 314 855 q 311 866 316 863 q 292 873 293 872 q 304 875 291 875 q 324 882 324 877 q 304 890 324 888 q 287 895 292 892 l 302 898 m 156 984 q 142 990 150 993 q 134 973 134 986 q 140 958 134 958 q 153 968 147 958 q 156 984 160 978 m 299 994 q 286 1016 299 1016 q 278 1014 285 1016 q 284 991 258 1002 q 296 987 293 986 q 299 994 299 987 m 291 1039 q 311 997 309 1039 q 328 963 311 981 q 347 926 343 947 l 351 909 l 494 905 q 659 895 605 903 q 763 869 712 888 q 818 838 800 856 q 838 807 838 821 q 833 802 838 802 q 826 803 829 802 q 767 815 795 815 q 736 803 736 815 q 774 792 736 795 q 809 786 800 789 q 828 771 818 782 q 843 744 843 752 q 837 730 843 740 q 818 734 832 721 q 765 745 806 745 q 725 738 725 745 q 756 728 725 734 q 817 692 817 719 q 791 663 817 672 q 704 648 764 653 q 598 638 628 641 l 565 634 l 561 605 q 559 516 559 584 q 560 425 559 457 l 564 273 l 522 253 q 428 233 478 233 q 340 252 380 233 l 302 271 l 300 457 l 299 641 l 272 641 q 171 655 237 642 q 89 677 105 668 q 39 758 39 706 q 54 813 39 784 q 90 855 69 841 q 118 899 112 870 q 122 943 122 927 q 119 984 122 951 q 133 1007 118 1006 q 167 1000 149 1009 q 201 995 185 991 q 229 1002 220 1002 q 259 1021 241 1002 q 291 1039 278 1039 m 286 896 l 284 894 l 287 895 l 286 896 z "},"U":{"ha":822,"x_min":35,"x_max":787,"o":"m 618 862 q 636 895 618 878 q 670 912 654 912 l 688 912 l 672 889 q 659 844 659 867 l 659 832 q 667 799 661 799 q 677 833 674 799 q 698 884 682 869 q 725 898 713 898 q 752 882 736 898 q 782 813 777 858 q 787 589 787 769 q 775 322 787 368 q 691 177 757 238 q 530 91 625 115 q 428 83 501 83 q 267 98 322 83 q 79 234 126 138 q 35 473 35 321 l 35 488 q 46 680 36 588 q 68 802 56 772 q 124 875 91 856 l 141 887 l 139 845 q 138 823 138 836 q 146 804 138 804 q 159 839 155 804 q 205 899 163 899 l 226 899 l 213 877 q 203 834 203 860 l 203 824 q 211 793 204 793 q 220 826 216 793 q 234 870 222 854 q 260 887 245 887 q 288 873 274 887 q 310 835 304 855 q 315 757 315 815 q 313 648 315 741 q 310 523 310 532 q 318 443 310 469 q 407 365 345 365 q 435 368 421 365 q 512 439 486 382 q 524 492 522 463 q 527 644 527 522 q 532 810 528 782 q 561 863 536 837 q 590 888 583 888 q 597 863 597 888 l 597 853 l 597 840 q 606 814 597 814 q 616 822 613 814 q 617 845 618 831 q 618 862 617 859 z "},"V":{"ha":816,"x_min":39,"x_max":777,"o":"m 624 894 q 646 900 634 900 q 666 896 656 900 q 673 890 674 894 q 663 878 672 887 q 632 806 632 850 q 639 786 632 786 q 654 815 650 786 q 672 857 657 838 q 700 876 686 876 q 738 848 713 876 q 777 740 777 807 q 775 712 777 721 q 725 458 767 634 q 657 221 683 281 q 573 101 624 137 q 444 59 515 59 q 434 60 441 59 q 424 60 427 60 q 321 87 368 63 q 252 135 279 108 q 192 218 225 163 q 113 402 160 273 q 39 715 39 611 q 41 737 39 730 q 61 808 44 765 q 87 851 79 851 q 97 825 93 851 q 109 792 100 808 q 126 775 119 775 q 130 777 128 775 q 126 802 135 780 q 116 847 116 829 q 145 890 116 883 q 150 891 147 891 q 157 861 157 891 q 167 814 157 838 q 186 789 177 789 q 191 792 189 789 q 186 817 197 797 q 177 860 177 838 q 184 887 177 880 q 209 894 191 894 q 263 881 235 894 q 315 828 300 862 q 341 698 330 793 q 370 543 352 606 q 406 470 388 479 q 418 466 413 466 q 433 487 428 466 q 446 569 439 508 q 476 754 458 694 q 528 850 494 814 q 558 876 541 863 q 583 888 576 888 l 586 887 q 582 867 589 885 q 575 832 575 850 q 584 813 575 813 q 594 829 594 813 q 604 867 594 846 q 624 894 613 888 z "},"W":{"ha":1204,"x_min":37,"x_max":1167,"o":"m 181 944 q 209 946 209 949 q 200 925 207 939 q 190 873 192 909 q 192 842 190 848 q 203 836 194 836 q 213 842 211 836 q 215 874 215 848 q 231 928 215 913 q 253 944 245 944 q 281 933 263 944 q 311 907 299 921 q 351 836 340 876 q 368 697 362 795 q 389 564 374 595 q 424 525 407 525 q 470 586 441 525 q 531 678 501 653 q 608 703 560 703 q 679 678 653 703 q 736 580 705 653 q 758 538 750 547 q 775 527 765 529 l 779 527 q 843 751 831 527 q 859 866 847 833 q 903 921 870 899 q 931 936 927 940 q 927 905 934 933 q 922 873 922 891 q 936 836 922 836 q 946 868 946 836 q 956 919 946 896 q 999 948 971 948 q 1007 947 1005 948 q 1006 924 1016 943 q 995 867 995 905 q 1002 834 995 841 q 1009 830 1007 830 q 1017 854 1017 830 l 1017 861 l 1017 867 q 1026 910 1017 888 q 1044 935 1035 932 l 1046 935 l 1049 936 q 1084 922 1061 936 q 1123 891 1108 909 q 1167 691 1167 840 q 1163 573 1167 641 q 1139 349 1155 431 q 1088 201 1123 267 q 1008 93 1047 124 q 911 61 968 61 q 777 105 836 61 q 730 159 749 126 q 689 264 712 192 q 654 348 670 324 q 612 376 638 372 q 600 377 608 377 q 553 351 573 377 q 515 264 534 324 q 431 109 483 160 q 303 59 380 59 l 301 59 q 227 74 258 59 q 126 181 172 101 q 60 362 79 260 q 37 681 37 495 q 47 826 37 787 q 105 917 65 889 q 115 921 111 921 q 118 909 118 921 l 118 889 q 123 844 118 850 q 130 838 126 838 q 139 869 139 838 q 151 920 139 898 q 181 944 163 941 z "},"X":{"ha":862,"x_min":37,"x_max":824,"o":"m 140 946 q 160 947 146 947 q 238 932 203 947 q 352 813 309 902 q 394 745 370 774 q 431 715 418 715 q 507 809 458 715 q 618 928 552 897 q 704 950 664 950 q 711 948 711 950 q 688 914 711 947 q 666 874 666 883 q 672 861 666 861 q 698 887 685 861 q 750 931 721 931 q 779 919 766 931 q 793 904 793 907 q 771 888 793 900 q 736 854 753 877 q 718 817 718 830 l 718 816 q 719 814 719 815 q 727 804 722 804 q 745 826 734 804 q 770 859 753 846 q 800 873 786 873 l 802 873 q 813 864 810 872 q 817 828 815 856 l 817 815 q 803 752 817 781 q 743 657 789 723 q 678 559 696 589 q 661 505 661 529 q 675 458 661 481 q 729 381 689 434 q 808 268 793 297 q 824 204 824 238 q 787 104 824 146 q 732 68 764 79 q 642 58 700 58 q 583 61 596 58 q 550 78 569 64 q 520 108 532 89 q 483 176 508 126 q 427 262 439 262 q 422 260 425 262 q 383 184 418 257 q 330 95 353 120 q 272 61 307 69 q 221 57 253 57 q 119 72 157 57 q 37 205 37 105 q 48 265 37 243 q 113 356 59 287 q 203 501 203 471 q 111 667 203 532 q 38 822 38 773 q 41 844 38 830 l 41 846 q 45 859 44 858 l 51 852 q 79 818 59 838 q 105 797 98 797 q 113 803 113 797 q 91 837 113 811 q 67 892 67 865 q 81 919 67 912 q 95 925 93 925 q 103 906 100 925 q 131 861 108 887 q 166 836 154 836 q 170 843 170 836 q 148 875 170 848 q 124 925 124 903 q 140 946 124 942 z "},"Y":{"ha":801,"x_min":39,"x_max":762,"o":"m 508 104 q 512 103 512 104 q 500 90 512 98 q 447 64 483 75 q 411 58 426 58 q 344 81 382 58 q 329 95 329 91 q 336 98 329 98 q 361 94 346 98 q 412 88 378 88 q 475 96 450 88 q 508 104 499 104 m 498 146 q 537 161 531 161 q 542 153 542 161 q 498 112 542 132 q 410 93 454 93 q 332 110 370 93 q 294 146 294 127 q 300 150 294 150 q 330 142 307 150 q 412 130 365 130 q 498 146 465 130 m 506 192 q 550 212 544 212 q 554 201 554 212 q 533 173 554 190 q 484 146 512 156 q 420 137 461 137 q 325 152 369 137 q 281 188 281 168 q 286 194 281 194 q 326 183 293 194 q 409 169 368 169 q 506 192 463 169 m 506 230 q 550 250 544 250 q 554 240 554 250 q 530 212 554 228 q 472 184 506 196 q 413 176 448 176 q 310 197 355 176 q 274 227 274 213 q 286 236 274 241 q 403 208 360 208 l 420 208 q 506 230 468 212 m 133 947 q 145 950 137 950 q 209 927 178 950 q 336 756 253 892 q 397 664 389 664 q 412 670 400 664 q 497 814 433 684 q 615 943 552 926 q 650 950 639 950 q 661 944 661 950 q 648 927 661 940 q 626 900 635 917 q 617 872 617 883 q 624 862 617 862 q 642 881 635 862 q 668 915 649 898 q 699 932 686 932 q 721 919 711 932 q 727 907 729 911 q 711 895 726 903 q 681 862 697 887 q 664 825 664 837 q 664 824 664 824 l 666 822 q 672 817 669 817 q 693 841 679 817 q 717 873 703 860 q 742 887 731 887 q 756 872 750 887 q 762 838 762 858 q 758 813 762 824 q 712 711 748 772 q 639 604 677 649 q 554 456 576 530 q 542 359 542 414 q 549 295 542 319 q 552 278 552 285 q 541 259 552 267 q 497 234 530 250 q 424 218 464 218 l 405 218 q 311 234 345 218 l 275 250 l 273 332 q 268 409 271 389 q 252 455 265 428 q 171 579 235 493 q 39 838 41 751 q 45 874 39 874 q 52 866 52 874 q 69 837 52 856 q 94 817 86 817 q 102 822 102 817 q 87 848 102 829 q 71 894 71 870 q 86 927 71 916 q 98 933 94 933 q 109 906 109 933 q 125 867 109 891 q 150 843 141 843 q 160 850 160 843 q 145 880 160 858 q 128 929 128 903 q 133 947 128 942 z "},"Z":{"ha":741,"x_min":36,"x_max":701,"o":"m 563 113 q 566 133 569 125 q 564 133 564 139 q 562 124 564 132 q 559 113 560 117 q 557 106 557 108 q 559 108 557 104 q 563 113 560 109 m 605 142 q 605 152 608 147 q 602 155 603 159 q 602 146 601 152 q 605 142 602 135 m 608 184 q 609 178 608 178 q 612 189 613 178 q 611 192 612 191 q 608 189 608 196 q 608 184 608 186 m 682 177 q 682 199 684 189 q 678 189 679 196 q 682 177 681 178 m 644 168 q 644 177 644 170 q 645 189 645 184 q 644 200 645 193 q 644 209 644 207 q 641 208 642 220 l 641 189 l 644 163 q 644 168 644 166 m 573 164 q 573 175 573 168 q 574 188 574 183 q 573 200 574 192 q 573 209 573 207 q 571 208 572 219 l 571 185 l 573 160 q 573 164 573 161 m 440 938 q 464 950 457 950 q 491 928 475 950 q 516 881 507 906 q 529 854 523 860 q 550 846 535 848 q 620 812 586 839 q 674 748 655 785 q 683 696 683 729 q 674 633 683 661 q 600 521 661 597 q 486 383 539 444 q 433 316 433 322 q 479 309 433 309 q 528 301 516 309 q 556 258 539 293 q 569 237 566 237 q 557 271 569 245 q 544 299 544 296 q 554 302 544 302 q 577 283 564 302 q 598 236 590 264 q 605 221 603 220 q 606 226 606 221 q 591 270 606 237 l 575 303 l 590 301 q 622 265 604 300 q 639 238 635 238 q 626 271 639 245 q 615 299 615 294 q 622 302 615 302 q 664 244 646 302 q 677 222 674 220 q 669 249 677 225 q 661 280 661 273 l 662 282 q 663 284 662 284 q 684 263 670 284 q 700 228 698 243 q 701 209 701 222 q 695 163 701 186 q 682 140 689 140 q 677 144 678 140 q 669 135 672 149 l 668 132 q 647 103 663 113 q 631 95 635 95 q 628 100 628 95 q 631 112 628 104 q 637 125 634 119 l 639 132 q 632 125 638 137 l 625 111 q 600 76 609 80 q 589 74 590 74 q 583 80 583 74 q 590 98 583 86 q 601 126 601 117 l 580 93 q 578 88 580 90 q 566 67 566 67 q 552 64 560 67 q 545 62 547 61 q 543 65 543 63 q 545 74 543 67 l 550 90 q 525 58 534 69 l 394 59 q 50 125 94 60 q 36 172 36 147 q 36 186 36 176 q 37 203 37 196 q 63 303 39 259 q 272 530 103 389 q 334 591 334 584 q 314 604 334 601 q 205 613 293 608 q 102 625 125 618 q 64 655 80 632 q 53 703 53 671 q 63 751 53 733 q 113 801 76 778 q 194 836 149 824 q 222 847 214 840 q 242 882 229 854 q 272 928 260 921 q 282 931 279 931 q 337 885 308 931 q 370 855 356 855 q 403 889 384 855 q 440 938 421 921 z "},"[":{"ha":593,"x_min":34,"x_max":553,"o":"m 191 981 q 251 984 207 984 q 479 961 392 984 q 531 937 508 953 q 553 906 553 921 q 481 850 553 873 q 300 828 410 828 l 247 828 l 251 752 q 257 550 257 660 q 233 84 257 251 l 225 31 l 328 27 q 458 14 416 24 q 522 -17 500 5 q 541 -52 541 -36 q 521 -87 541 -69 q 475 -111 502 -103 q 380 -125 447 -118 q 297 -130 329 -130 q 123 -104 157 -130 q 36 234 49 -52 q 34 341 34 296 q 45 667 34 497 q 72 885 57 837 q 113 954 86 932 q 191 981 140 976 z "},"\\":{"ha":575,"x_min":38,"x_max":537,"o":"m 514 176 l 535 192 l 537 163 l 537 155 q 494 73 537 104 q 422 49 463 49 q 347 78 377 49 q 324 105 324 97 q 374 119 324 116 q 514 176 450 124 m 491 208 q 527 235 521 235 q 535 225 531 235 l 535 223 q 536 221 536 222 q 503 178 536 205 q 436 139 471 152 q 354 125 400 125 q 303 144 303 125 q 336 153 303 153 q 421 168 376 153 q 491 208 465 184 m 483 249 q 517 271 508 271 q 521 270 520 271 q 524 262 524 266 q 486 213 524 243 q 404 170 447 183 q 333 160 368 160 q 288 172 295 160 q 286 179 286 177 q 329 189 286 185 q 483 249 420 196 m 472 294 q 505 315 498 315 l 506 315 q 512 304 512 311 q 484 262 512 288 q 419 219 456 236 q 315 196 369 196 q 279 204 287 196 q 267 221 267 218 q 319 231 267 227 q 472 294 407 238 m 102 942 q 168 958 138 958 q 289 873 244 958 q 471 407 314 825 l 499 331 l 463 297 q 381 250 429 265 q 295 237 336 237 q 263 242 271 237 q 79 694 250 250 q 38 851 38 800 q 102 942 38 913 z "},"]":{"ha":591,"x_min":38,"x_max":557,"o":"m 251 990 q 286 991 260 991 q 440 979 402 991 q 489 947 466 971 q 520 892 512 924 q 546 667 535 840 q 557 332 557 494 q 551 160 557 212 q 466 -102 530 -60 q 288 -123 433 -123 q 213 -119 245 -123 q 121 -105 149 -113 q 72 -80 93 -97 q 51 -44 51 -62 q 119 17 51 -9 q 260 35 155 32 l 366 37 l 361 68 q 333 580 333 265 q 339 766 333 706 l 346 834 l 289 834 q 109 856 181 836 q 38 910 38 877 q 251 990 38 970 z "},"^":{"ha":365,"x_min":35,"x_max":330,"o":"m 132 929 q 179 944 152 944 q 222 934 201 944 q 282 870 252 918 q 321 779 313 822 q 329 750 324 759 q 321 722 330 748 q 272 691 307 691 q 258 692 263 691 q 223 720 247 694 q 192 765 200 745 q 175 757 188 774 q 90 691 126 691 q 53 706 72 691 q 35 747 35 721 q 56 824 35 773 q 132 929 83 892 z "},"_":{"ha":649,"x_min":34,"x_max":613,"o":"m 459 84 q 463 88 463 84 q 459 91 463 91 q 456 88 456 91 q 459 84 456 84 m 494 91 q 498 95 498 91 q 494 98 498 98 q 491 95 491 98 q 494 91 491 91 m 559 101 q 560 109 563 104 q 553 106 556 113 q 556 101 553 103 q 559 101 558 100 m 502 135 q 502 157 505 148 q 499 145 500 152 l 501 132 q 502 135 501 133 m 530 128 q 530 164 532 147 q 528 163 529 171 q 528 145 528 156 l 530 125 l 530 128 m 468 128 q 468 164 470 147 q 465 163 466 171 q 465 145 465 156 l 468 125 l 468 128 m 559 175 q 558 188 564 183 q 554 184 554 190 q 554 178 554 182 q 556 171 554 172 l 559 175 m 491 190 q 495 185 491 181 q 495 194 500 190 q 492 195 493 197 q 491 190 491 193 m 459 190 q 463 193 463 190 q 459 197 463 197 q 456 193 456 197 q 459 190 456 190 m 522 197 q 525 200 525 197 q 522 204 525 204 q 519 200 519 204 q 522 197 519 197 m 134 234 q 260 238 169 238 q 439 230 435 238 q 449 231 443 222 q 468 235 455 241 q 510 230 484 230 q 539 225 539 233 q 550 222 539 218 q 551 222 551 222 l 553 223 q 585 203 566 223 q 610 162 604 182 q 613 135 613 148 q 581 68 613 96 l 560 51 l 333 51 l 248 51 q 100 57 131 51 q 47 84 68 63 q 34 138 34 100 q 37 172 34 162 q 53 196 41 182 q 134 234 83 226 z "},"`":{"ha":299,"x_min":43,"x_max":255,"o":"m 76 938 q 91 941 82 940 q 111 942 100 942 q 170 932 140 942 q 216 906 200 922 q 242 852 230 892 q 255 781 255 810 q 233 743 255 765 q 196 722 212 722 q 97 793 164 722 q 69 823 80 811 q 53 845 59 836 q 45 863 46 855 q 43 881 43 872 q 76 938 43 920 z "},"a":{"ha":608,"x_min":35,"x_max":574,"o":"m 370 304 q 341 334 365 319 q 296 348 317 348 q 253 337 275 348 q 223 314 230 326 q 203 282 215 296 q 189 247 189 265 q 219 201 189 219 q 296 183 249 183 q 388 213 353 183 q 398 244 398 222 q 388 279 398 266 q 370 304 375 295 m 203 360 q 160 380 189 380 q 147 376 150 380 q 142 362 142 372 q 158 328 142 346 q 190 310 174 310 q 212 333 212 310 q 203 360 212 347 m 426 389 q 413 392 418 392 q 385 376 406 392 q 367 345 367 361 q 390 324 367 326 q 422 334 411 323 q 436 368 436 348 q 426 389 436 385 m 372 439 q 366 456 370 453 q 348 462 362 459 q 319 449 330 463 q 304 402 304 427 q 331 367 304 367 q 361 383 350 367 q 373 425 373 398 q 372 432 373 427 q 372 439 372 436 m 257 447 q 227 463 244 463 q 200 429 200 463 q 215 387 200 405 q 248 368 229 368 q 260 370 251 368 q 271 398 271 374 q 257 447 271 429 m 429 591 q 455 612 446 608 q 485 616 464 616 q 536 605 513 616 q 568 578 560 594 q 574 451 574 567 l 574 323 l 573 86 l 556 72 q 494 57 539 60 q 465 56 481 56 q 428 75 447 56 l 407 98 l 383 87 q 272 65 339 65 q 233 68 250 65 q 88 146 141 83 q 35 303 35 209 q 45 390 35 343 q 67 464 54 438 q 113 523 82 493 q 174 568 144 552 q 214 584 198 581 q 271 587 229 587 q 367 576 330 587 l 404 566 l 429 591 z "},"b":{"ha":773,"x_min":35,"x_max":738,"o":"m 453 412 q 397 425 427 425 q 296 367 331 425 q 259 291 259 301 q 265 273 259 285 q 314 226 278 243 q 397 209 351 209 q 517 250 473 209 q 537 295 537 270 q 522 333 537 318 q 495 372 505 351 q 453 412 481 397 m 274 440 q 234 462 256 462 q 206 457 211 462 q 200 441 200 451 q 219 392 200 416 q 252 372 236 372 q 257 372 253 372 q 263 373 260 373 q 280 376 275 374 q 288 383 285 377 q 291 400 291 389 q 274 440 291 419 m 557 483 q 512 461 535 483 q 490 416 490 439 q 491 405 490 409 q 517 388 495 388 q 571 414 546 388 q 584 451 584 431 q 576 475 584 466 q 557 483 568 483 m 350 547 q 310 566 332 566 q 285 553 293 566 q 278 522 278 539 q 294 469 278 493 q 331 444 310 444 q 334 445 332 444 q 337 446 336 446 q 373 492 373 453 q 350 547 373 523 m 488 568 q 468 579 477 579 q 439 560 457 579 q 411 501 411 532 q 414 477 411 488 q 424 456 419 461 q 442 449 428 451 l 447 449 q 486 470 470 449 q 501 524 501 492 q 488 568 501 557 m 176 986 q 203 988 184 988 q 272 971 248 988 q 304 917 294 954 q 319 799 315 880 q 326 714 323 735 q 338 681 330 692 q 392 654 356 654 q 410 657 403 654 q 486 664 426 664 q 545 661 528 664 q 590 644 563 657 q 699 539 660 609 q 738 378 738 469 q 696 214 738 287 q 582 106 654 141 q 373 65 491 65 q 358 65 368 65 q 344 66 348 66 q 220 86 285 69 q 134 118 155 102 q 61 240 81 160 q 36 501 41 321 q 35 586 35 531 q 49 805 35 722 q 94 931 64 888 q 176 986 124 973 z "},"c":{"ha":601,"x_min":38,"x_max":563,"o":"m 167 514 q 176 505 176 514 q 167 495 176 495 q 156 505 156 495 q 167 514 156 514 m 105 495 q 93 501 105 501 q 80 492 80 501 q 86 486 80 486 q 99 488 93 485 q 105 495 105 492 m 244 545 q 241 552 247 553 q 223 539 234 550 q 215 529 215 530 q 227 532 215 528 q 244 545 242 539 m 214 587 q 167 596 197 596 q 116 584 134 596 q 87 554 100 573 q 74 522 74 536 q 78 510 74 513 q 95 508 81 508 q 122 494 122 508 q 105 479 122 486 q 91 468 90 471 q 105 470 97 464 q 123 472 124 481 q 118 465 122 470 q 119 450 110 456 q 147 443 130 443 q 195 454 170 443 q 230 478 220 464 q 226 501 248 501 q 218 503 221 501 q 218 508 215 506 q 234 514 221 514 q 245 521 245 514 q 227 523 245 528 q 215 521 219 521 q 209 524 211 522 q 207 532 207 527 q 220 553 207 545 q 231 568 231 561 q 214 587 231 579 m 80 588 q 67 597 80 597 q 60 579 47 597 q 72 574 65 571 q 80 588 80 578 m 206 627 q 194 640 205 640 q 182 624 182 640 q 196 616 182 616 q 206 627 207 616 m 188 656 q 204 662 199 662 q 220 632 211 662 q 248 587 229 605 l 266 567 l 306 579 q 404 591 344 591 q 491 579 462 591 q 544 508 544 553 q 543 502 544 506 q 543 498 543 499 q 479 435 538 456 q 450 425 471 433 q 421 414 429 418 q 375 367 375 398 q 377 353 375 362 q 465 303 392 303 q 523 292 503 303 q 554 250 543 280 q 563 206 563 229 q 527 119 563 159 q 434 65 492 80 q 367 56 395 56 q 301 65 340 56 q 125 255 149 104 q 122 295 122 275 q 135 402 122 324 q 137 421 138 417 q 127 425 135 425 q 92 439 112 425 q 64 470 72 454 q 52 529 54 484 q 43 589 50 565 q 40 607 38 604 q 54 612 42 610 q 86 611 73 617 q 98 609 93 609 q 137 617 116 609 q 163 635 157 625 q 188 656 169 647 z "},"d":{"ha":802,"x_min":36,"x_max":769,"o":"m 420 375 q 368 384 398 384 q 316 375 338 384 q 260 323 292 365 q 225 258 228 282 q 224 253 225 257 q 223 248 223 250 q 268 184 223 208 q 370 160 313 160 q 506 221 472 160 q 514 250 514 236 q 490 303 514 271 q 470 329 484 310 q 447 358 457 347 q 420 375 436 368 m 234 410 q 188 434 209 434 q 161 404 161 434 q 174 366 161 387 q 222 337 191 337 q 236 338 231 337 q 256 362 255 339 l 256 370 q 234 410 256 388 m 551 441 q 532 447 541 447 q 512 441 523 447 q 482 418 497 435 q 463 384 468 400 q 476 354 458 366 q 495 346 490 346 q 517 352 500 346 q 552 380 538 361 q 565 416 565 398 q 551 441 565 433 m 466 534 q 441 545 456 545 q 394 510 412 545 q 382 463 382 488 q 392 424 382 440 q 419 407 402 407 q 427 409 425 407 q 462 441 447 413 q 477 498 477 469 q 466 534 477 520 m 306 535 q 274 545 289 545 q 250 532 257 545 q 242 499 242 517 q 262 436 242 466 q 304 406 282 406 q 328 419 317 406 q 340 459 340 435 q 306 535 340 509 m 601 993 q 626 995 609 995 q 712 962 674 995 q 756 878 750 928 q 764 605 759 854 q 769 295 769 337 q 765 186 769 227 q 758 120 762 145 q 740 85 753 95 q 715 73 726 75 q 676 71 704 71 q 608 84 623 71 q 591 113 591 101 q 580 130 591 130 q 503 98 566 130 q 432 67 451 72 q 366 59 412 61 l 340 59 q 118 139 198 59 q 36 330 36 221 q 100 514 36 424 q 241 634 156 591 q 426 678 326 677 q 473 681 462 678 q 493 697 484 684 q 506 734 506 713 q 503 769 506 738 q 502 797 502 778 q 529 942 502 898 q 601 993 553 983 z "},"e":{"ha":601,"x_min":35,"x_max":561,"o":"m 539 194 l 539 199 q 549 190 542 198 q 561 153 561 175 q 558 132 561 132 q 549 157 556 132 q 545 171 547 162 q 542 186 543 181 q 539 194 541 192 m 431 208 q 460 175 447 208 q 475 100 473 141 l 475 86 q 462 57 475 59 l 457 57 q 446 101 448 57 q 429 174 442 152 q 420 204 416 199 q 431 208 425 208 m 492 212 q 505 214 492 214 q 529 190 516 214 q 546 134 542 167 q 547 120 547 128 q 537 98 547 109 q 528 93 529 93 q 521 120 524 93 q 503 182 516 153 q 492 212 492 207 m 457 215 q 464 220 461 220 q 491 189 473 220 q 508 105 508 157 q 498 69 508 72 l 497 69 q 484 111 486 69 q 466 182 480 156 q 457 215 453 208 m 382 402 q 326 431 356 431 q 302 424 315 431 q 273 392 287 416 q 258 355 258 369 q 282 325 258 337 q 334 314 307 314 q 382 326 365 314 q 402 360 402 340 q 382 402 402 378 m 431 450 q 416 457 427 457 q 387 443 397 457 q 381 426 381 436 q 399 412 381 412 q 421 424 410 412 q 432 446 432 436 q 431 450 432 449 m 260 442 q 236 457 245 457 q 228 453 233 457 q 225 442 225 449 q 236 416 225 429 q 258 403 247 403 q 266 406 263 403 q 274 420 274 413 q 260 442 274 428 m 384 499 q 367 514 377 514 q 349 499 358 514 q 340 470 340 485 q 358 447 340 447 q 378 458 369 447 q 388 484 388 470 q 384 499 388 492 m 295 507 q 282 513 286 512 q 275 512 278 514 q 270 500 273 509 q 267 486 267 491 q 275 459 267 472 q 295 446 284 447 q 316 455 314 443 q 317 464 317 458 q 295 507 317 495 m 221 589 q 285 596 240 596 q 319 595 307 596 q 420 582 382 594 q 491 542 458 569 q 550 414 550 490 q 502 306 550 347 q 348 262 458 266 q 271 251 292 258 q 245 228 250 244 q 244 220 244 225 q 259 197 244 211 q 293 183 274 183 q 325 185 295 183 q 391 191 381 191 q 407 188 402 191 q 416 182 413 185 q 422 166 418 178 q 424 161 424 163 q 426 157 425 160 q 441 86 441 122 l 441 50 l 405 45 q 369 43 384 43 q 265 54 321 43 q 178 81 209 65 q 113 132 147 97 q 65 199 80 167 q 35 329 35 263 q 111 520 35 440 q 221 589 157 568 z "},"f":{"ha":736,"x_min":39,"x_max":696,"o":"m 314 69 q 301 78 301 75 q 370 81 301 81 q 451 80 451 81 q 431 67 451 78 q 376 58 413 58 q 314 69 336 58 m 257 125 q 251 137 251 134 q 255 140 251 140 q 297 127 262 140 q 377 115 338 115 q 450 126 417 115 q 479 133 471 133 q 486 128 486 133 q 480 116 486 125 q 438 95 475 105 q 373 84 402 84 q 302 98 338 86 q 257 125 266 110 m 242 171 q 250 182 242 182 q 275 172 257 182 q 374 153 315 153 q 475 174 435 153 q 494 181 488 181 q 499 176 499 181 q 494 163 499 171 q 448 137 485 148 q 370 125 411 125 l 366 125 q 284 142 326 126 q 242 171 242 157 m 249 212 q 262 221 249 226 q 378 194 325 194 q 458 209 421 194 q 499 225 497 225 q 500 209 500 225 q 459 177 500 190 q 369 164 419 164 q 279 182 309 164 q 249 212 249 197 m 536 954 q 589 986 571 986 q 615 966 604 986 q 640 902 626 947 q 660 809 660 832 q 635 760 660 782 q 519 721 606 734 q 453 702 468 714 q 438 657 438 690 q 451 608 438 622 q 479 596 463 596 q 565 616 502 596 q 632 627 601 627 q 660 618 656 627 q 657 611 661 613 q 648 609 654 609 q 612 591 612 609 q 644 586 612 582 q 650 586 646 586 q 657 587 655 587 q 696 559 696 587 q 693 550 696 551 q 677 553 690 549 q 653 558 661 558 q 604 541 619 558 q 604 532 596 532 l 626 535 q 654 537 647 537 q 682 525 682 537 q 661 506 682 516 q 608 490 641 495 q 517 447 537 478 q 497 319 498 416 l 497 236 l 465 222 q 369 205 426 205 q 297 215 329 205 q 265 230 269 225 q 260 257 260 238 q 266 351 260 272 q 267 389 267 366 q 260 433 267 419 q 234 463 253 448 q 157 480 214 477 q 53 517 69 487 q 51 529 49 525 q 65 536 53 532 q 100 532 83 541 q 123 535 122 530 q 111 552 123 545 q 81 558 98 558 q 67 557 72 558 q 49 555 56 554 q 41 558 43 556 q 39 566 39 560 q 54 584 39 576 q 84 591 68 591 q 102 588 95 591 q 130 590 130 572 q 113 606 130 598 q 82 616 97 615 q 84 620 74 616 q 91 623 87 622 q 117 625 103 625 q 220 609 164 625 q 241 605 231 605 q 259 622 255 605 q 263 688 263 638 l 263 716 q 262 760 263 733 q 262 799 262 787 q 275 966 262 951 q 303 977 284 977 q 392 940 345 977 q 458 922 416 922 q 501 927 490 922 q 536 954 512 932 z "},"g":{"ha":656,"x_min":35,"x_max":622,"o":"m 149 -53 q 164 -41 162 -41 q 167 -43 167 -41 q 157 -68 167 -47 q 146 -132 148 -90 q 141 -164 144 -164 q 130 -138 139 -164 q 126 -113 126 -125 q 149 -53 126 -79 m 186 -37 q 212 -24 197 -24 q 215 -27 215 -24 q 214 -29 215 -28 q 182 -141 182 -91 q 191 -187 182 -166 q 199 -213 199 -205 q 197 -215 199 -215 q 183 -209 194 -215 q 156 -134 156 -192 q 186 -37 156 -71 m 227 -29 q 252 -16 240 -15 q 256 -20 255 -19 q 238 -56 256 -21 q 220 -131 220 -89 q 235 -200 220 -169 l 247 -235 q 242 -238 247 -238 q 222 -225 234 -238 q 204 -193 211 -211 q 193 -133 193 -166 q 227 -29 193 -66 m 278 -17 q 302 -12 302 -8 q 282 -53 302 -14 q 262 -135 262 -95 q 279 -207 262 -172 q 292 -242 292 -233 q 286 -245 292 -245 q 267 -235 278 -245 q 248 -209 256 -225 q 233 -137 233 -181 q 245 -60 233 -95 q 278 -17 258 -25 m 380 344 q 325 358 356 358 q 271 346 296 358 q 235 315 245 334 q 212 281 229 304 q 196 243 196 262 q 218 199 196 221 q 317 163 253 163 q 394 179 360 163 q 446 240 446 204 q 425 285 446 260 q 411 306 418 294 q 399 326 405 318 q 380 344 392 334 m 201 385 q 166 403 184 403 q 142 377 142 403 q 164 332 142 354 q 199 310 186 310 q 219 321 208 310 q 227 340 227 329 q 201 385 227 362 m 481 402 q 462 409 475 409 q 422 392 442 409 q 403 358 403 376 q 431 323 403 323 q 469 343 447 323 q 490 382 490 363 q 481 402 490 394 m 404 485 q 381 495 391 495 q 352 480 367 495 q 330 426 330 458 q 340 393 330 406 q 366 380 350 380 q 400 403 385 380 q 416 453 416 427 q 404 485 416 473 m 263 490 q 241 497 250 497 q 218 480 228 497 q 211 454 211 468 q 229 401 211 426 q 267 376 247 376 q 287 384 279 376 q 295 413 295 392 q 286 459 295 436 q 263 490 277 483 m 493 640 q 523 646 510 646 q 586 588 569 646 q 611 387 600 537 q 622 108 622 236 q 617 -14 622 24 q 547 -188 602 -137 q 376 -241 492 -240 l 306 -241 l 289 -207 q 272 -132 272 -176 q 289 -57 272 -91 q 336 -6 306 -22 q 382 44 380 17 q 370 52 382 51 q 304 53 358 53 q 185 69 225 53 q 111 119 145 86 q 58 192 76 152 q 35 314 35 244 q 47 402 35 367 q 242 590 98 552 q 334 597 270 597 l 352 597 q 422 600 409 597 q 449 615 436 602 q 493 640 469 632 z "},"h":{"ha":730,"x_min":35,"x_max":696,"o":"m 120 82 q 90 105 90 98 q 95 108 90 108 q 120 102 104 108 q 190 93 148 93 q 258 102 230 93 q 282 108 278 108 q 288 104 288 108 q 267 82 288 97 q 199 67 248 67 q 120 82 149 67 m 67 150 q 73 155 67 155 q 104 147 81 155 q 192 134 140 134 q 270 145 240 134 q 300 154 297 154 q 304 141 304 154 q 275 116 304 128 q 206 101 245 104 q 198 100 204 101 q 189 100 192 100 q 105 116 144 100 q 67 150 67 132 m 61 189 q 61 201 59 199 q 72 200 64 204 q 193 174 133 174 q 275 185 241 174 q 301 193 295 193 q 304 190 304 193 q 304 186 304 189 q 303 182 303 184 q 269 153 301 163 q 193 142 237 142 q 104 155 144 142 q 61 189 65 168 m 53 237 q 57 245 53 245 q 104 230 63 245 q 196 216 146 216 q 269 227 238 216 q 300 237 296 237 q 304 222 304 237 q 299 207 304 212 q 272 194 293 201 q 192 183 238 183 q 96 198 138 183 q 53 237 54 214 m 231 971 q 264 984 251 984 q 299 956 285 984 q 336 753 328 900 q 361 660 339 679 q 469 635 382 641 q 609 601 561 630 q 674 516 657 573 q 696 231 693 455 q 682 122 696 144 q 655 93 670 100 q 604 87 639 87 l 576 87 q 495 103 516 88 q 465 144 471 122 q 458 234 458 167 q 451 330 458 301 q 420 382 443 359 q 380 399 403 399 q 333 381 355 399 q 297 279 297 352 l 297 247 l 262 235 q 194 226 237 226 q 91 245 137 226 q 86 248 89 247 q 57 273 63 258 q 41 476 47 296 q 39 480 39 477 q 39 491 39 487 q 35 640 35 623 q 41 735 35 692 q 51 876 45 770 q 60 965 53 948 q 89 978 67 978 q 153 959 119 978 q 189 946 181 946 q 199 949 194 946 q 215 959 203 951 q 231 971 227 968 z "},"i":{"ha":310,"x_min":35,"x_max":277,"o":"m 185 91 q 184 94 196 93 q 167 94 177 94 l 145 91 q 148 91 146 91 q 157 91 150 91 q 167 90 163 90 q 177 91 170 90 q 185 91 183 91 m 96 103 q 100 106 100 103 q 96 110 100 110 q 93 106 93 110 q 96 103 93 103 m 105 139 q 87 149 100 145 q 74 154 74 154 l 82 147 q 108 135 100 133 q 105 139 109 137 m 244 184 l 244 185 q 245 189 247 189 q 226 182 243 189 l 220 179 q 163 169 197 171 q 138 167 138 168 l 156 164 q 161 164 157 164 q 167 163 164 163 q 214 170 188 163 q 244 184 240 177 m 96 177 q 97 179 97 178 q 94 182 96 181 q 88 185 91 184 q 83 188 86 186 l 82 185 l 84 183 q 96 177 93 174 m 122 575 q 157 579 140 579 q 259 524 228 579 l 277 493 l 274 354 q 271 236 273 262 q 262 201 270 209 q 253 191 253 192 l 262 193 q 273 184 273 197 q 214 139 273 161 q 198 131 198 133 q 201 130 199 130 q 241 144 215 130 l 269 157 l 265 141 q 234 111 264 126 q 216 101 214 101 q 220 101 216 100 q 252 115 240 105 q 266 120 264 122 q 265 109 267 119 q 236 78 264 95 q 221 67 221 69 q 222 66 221 66 q 245 74 228 66 q 251 74 250 75 q 249 67 251 73 q 216 46 244 56 q 161 36 189 36 q 110 46 135 36 q 81 68 84 57 q 81 74 80 73 q 87 73 82 75 l 90 73 q 82 81 89 75 q 63 111 63 97 q 67 116 63 116 q 61 134 74 116 q 58 155 51 153 q 61 164 67 157 q 51 185 56 172 q 49 193 49 191 q 53 195 50 194 q 61 194 56 196 l 76 190 l 61 203 q 38 271 45 213 q 35 350 35 301 q 36 394 35 381 q 61 524 42 481 q 122 575 81 567 m 156 691 q 147 697 147 691 q 152 706 147 701 q 161 711 156 711 q 167 700 167 711 q 156 691 167 691 m 253 718 q 227 718 253 733 q 235 711 228 712 q 253 718 253 711 m 87 718 q 66 718 66 730 q 82 711 66 711 q 92 712 91 711 q 87 718 93 713 m 207 787 q 161 797 186 797 q 75 757 97 797 q 69 742 69 745 q 90 728 69 736 q 111 709 111 720 q 86 697 111 697 q 71 690 71 694 q 90 686 75 683 q 106 684 106 690 q 96 677 106 677 q 87 671 87 677 q 103 654 87 664 q 155 639 125 639 q 197 647 177 639 q 227 671 227 659 q 216 677 227 677 q 207 684 207 677 q 214 688 207 688 q 226 686 218 688 q 237 685 234 685 q 247 690 247 685 q 227 697 247 697 q 207 709 207 697 q 227 730 207 723 q 247 742 247 736 q 234 766 247 751 q 207 787 221 780 m 240 810 q 230 824 240 824 q 216 816 220 824 q 221 803 213 808 q 236 797 233 796 q 240 810 240 799 m 93 806 q 102 817 102 811 q 94 823 102 823 q 80 810 80 823 q 82 801 80 802 q 93 806 84 800 m 60 813 l 58 844 l 82 844 q 113 834 106 844 q 155 824 120 824 q 203 834 189 824 q 235 844 214 844 q 251 840 249 844 q 253 814 253 836 q 264 763 253 784 q 273 722 273 744 q 249 656 273 683 q 162 616 212 616 l 156 616 q 73 646 106 617 q 41 716 41 676 q 51 759 41 738 q 60 804 60 778 l 60 813 z "},"j":{"ha":590,"x_min":39,"x_max":556,"o":"m 97 -87 q 102 -91 97 -95 q 102 -82 106 -87 q 97 -87 98 -82 m 71 -73 q 72 -79 71 -78 q 76 -75 75 -81 q 75 -68 78 -71 q 71 -73 72 -68 m 61 -34 q 58 -37 58 -34 q 61 -41 58 -41 q 64 -37 64 -41 q 61 -34 64 -34 m 94 -34 q 97 -30 97 -34 q 94 -27 97 -27 q 90 -30 90 -27 q 94 -34 90 -34 m 74 -14 q 78 -10 78 -14 q 74 -7 78 -7 q 71 -10 71 -7 q 74 -14 71 -14 m 124 3 q 110 -5 124 12 q 104 -12 105 -9 q 109 -10 103 -14 q 113 -7 111 -9 q 124 3 124 1 m 145 16 q 141 20 145 20 q 138 16 138 20 q 141 14 138 14 q 145 16 145 14 m 104 24 q 90 15 104 32 q 84 6 83 7 q 93 13 84 6 q 104 24 104 22 m 90 51 q 71 36 90 57 l 54 16 l 73 32 q 90 51 90 47 m 345 559 q 403 573 370 573 q 475 554 440 573 q 528 505 509 536 q 556 363 556 458 q 552 242 556 318 q 510 -72 541 8 q 433 -171 488 -130 q 309 -220 377 -212 q 273 -222 284 -222 q 118 -156 192 -222 q 96 -123 96 -134 l 96 -116 q 96 -103 98 -103 q 93 -106 95 -103 q 79 -111 88 -113 q 71 -100 71 -108 q 61 -83 71 -93 q 56 -60 51 -75 q 56 -50 57 -53 q 50 -49 54 -47 l 49 -49 q 39 -12 39 -49 q 60 53 39 27 q 110 79 80 79 q 120 78 117 79 q 149 63 145 73 q 162 53 154 53 q 176 45 171 53 q 198 29 181 36 l 214 22 l 191 12 q 115 -54 134 -14 q 111 -62 111 -61 q 137 -41 111 -65 q 198 0 169 -9 l 244 12 q 264 23 258 16 q 275 58 271 29 q 281 133 280 88 q 281 271 281 177 l 281 484 l 297 514 q 345 559 314 544 m 385 700 q 388 706 384 704 q 397 708 391 708 q 411 697 411 708 q 406 690 411 691 q 394 692 400 689 q 385 700 388 694 m 348 748 q 363 748 354 756 q 365 731 373 740 q 350 731 358 725 q 348 748 343 738 m 505 718 q 499 727 505 727 q 475 718 495 727 l 455 709 l 480 708 q 505 718 505 707 m 331 714 q 300 726 313 726 q 292 719 292 726 q 316 708 292 708 q 333 712 333 709 l 331 714 m 451 797 q 402 808 428 808 q 309 767 338 808 q 300 748 300 755 q 322 731 300 740 q 345 708 345 721 q 340 697 345 700 q 321 694 336 694 q 301 689 301 694 q 316 683 301 683 q 325 684 322 683 q 345 682 345 688 q 331 675 345 675 q 319 668 319 675 q 339 646 319 660 q 396 630 362 630 q 448 641 425 630 q 478 668 478 655 q 465 675 478 675 q 451 681 451 675 q 461 685 451 685 q 475 684 465 685 q 488 683 484 683 q 498 688 498 683 q 475 694 498 694 q 455 697 459 694 q 451 708 451 699 q 475 731 451 721 q 498 748 498 742 q 481 773 498 756 q 451 797 465 789 m 481 841 q 465 834 475 841 q 459 828 458 830 q 468 818 459 825 q 485 809 480 809 q 492 825 492 809 q 481 841 492 841 m 334 834 q 321 841 330 841 q 307 831 311 841 q 309 815 303 821 q 314 814 310 814 q 328 819 321 814 q 336 831 336 825 q 334 834 336 833 m 270 721 q 281 773 270 745 q 292 825 292 800 l 292 861 l 314 861 q 348 848 338 861 q 396 834 361 834 q 449 848 432 834 q 480 861 465 861 q 508 826 508 861 q 508 817 508 824 q 507 807 507 810 q 519 762 507 794 q 531 720 531 729 q 516 673 530 700 q 484 632 501 646 q 399 603 444 603 q 308 637 347 603 q 270 721 270 670 z "},"k":{"ha":834,"x_min":34,"x_max":794,"o":"m 763 140 q 785 160 782 160 q 787 149 787 160 q 763 108 787 137 q 652 58 721 58 q 630 60 644 58 q 603 69 603 64 q 638 80 603 76 q 704 101 667 83 q 763 140 742 119 m 743 179 q 789 218 780 214 q 794 201 794 218 q 762 153 794 185 q 697 106 730 122 q 593 84 649 84 q 553 91 565 84 q 537 105 537 101 q 574 113 537 113 q 743 179 674 113 m 774 251 q 782 242 782 251 q 760 205 782 230 q 712 162 738 179 q 569 120 647 120 q 508 150 508 120 q 530 152 508 156 q 547 150 535 150 q 676 179 618 150 q 736 223 708 196 q 774 251 764 251 m 713 259 q 750 287 741 287 q 757 282 753 287 q 762 270 762 277 q 725 222 762 255 q 655 178 689 191 q 566 163 620 166 q 536 162 554 162 q 501 168 501 162 q 499 177 501 171 q 498 186 498 183 q 545 194 498 193 q 713 259 645 196 m 150 968 q 194 977 178 977 q 241 965 214 977 q 302 892 280 947 q 333 729 323 838 q 345 641 339 667 q 362 616 351 616 q 444 711 380 616 q 554 822 514 813 q 568 824 566 824 q 574 821 574 824 q 560 794 574 815 q 543 748 543 767 q 552 734 543 734 q 574 760 559 734 q 606 799 586 780 q 626 809 620 809 q 647 800 631 809 q 668 781 668 787 q 659 777 668 777 q 614 742 641 777 q 587 688 587 708 q 588 682 587 684 q 597 672 591 672 q 617 694 605 672 q 670 748 645 748 q 683 726 683 748 q 654 619 683 693 q 623 503 623 542 q 637 447 623 477 q 697 359 654 407 q 735 301 735 315 q 733 291 735 297 q 686 248 725 274 q 617 213 648 222 q 539 204 587 204 l 519 204 q 493 216 499 204 q 479 277 491 223 q 435 377 466 351 q 403 384 424 387 q 364 354 374 382 q 354 248 354 325 q 347 150 354 176 q 315 97 340 124 q 194 50 267 50 q 68 111 105 50 q 39 210 45 147 q 34 484 34 273 q 41 763 35 693 q 72 887 47 832 q 105 941 88 924 q 150 968 122 958 z "},"l":{"ha":455,"x_min":35,"x_max":421,"o":"m 169 73 q 163 78 163 76 q 197 81 163 81 l 234 81 q 304 76 304 81 q 302 73 304 75 q 236 58 280 58 q 169 73 192 58 m 117 138 q 235 122 167 122 q 324 131 288 122 q 369 140 365 140 q 375 137 375 140 l 370 127 q 345 105 362 112 q 287 91 329 97 q 234 87 252 87 q 122 113 150 87 q 104 135 104 128 q 117 138 104 142 m 76 185 q 82 190 76 190 q 119 178 91 190 q 237 166 155 166 q 354 178 316 166 q 390 186 378 186 q 398 182 398 186 q 394 170 398 179 q 335 142 383 153 q 229 131 287 131 q 131 142 169 131 q 76 185 76 159 m 56 238 q 58 244 56 244 q 94 233 60 244 q 241 207 164 207 q 377 230 318 207 l 412 245 l 410 226 q 399 207 407 213 q 359 190 390 201 q 236 171 308 171 q 117 189 167 171 q 56 238 56 211 m 178 965 q 234 978 207 978 q 336 931 288 978 q 398 803 383 883 q 417 485 412 723 l 421 259 l 389 247 q 234 219 323 219 q 57 259 120 219 q 35 427 35 272 q 83 863 35 756 q 124 924 96 894 q 178 965 153 954 z "},"m":{"ha":817,"x_min":35,"x_max":781,"o":"m 159 60 q 177 68 175 68 q 181 65 181 68 q 167 44 181 60 q 134 29 152 29 q 97 42 117 29 q 75 57 75 54 q 80 58 75 58 q 93 57 84 58 q 111 56 102 57 l 122 56 q 159 60 147 56 m 35 157 q 38 163 35 163 q 66 148 43 163 q 126 128 95 128 q 177 145 154 128 q 201 149 200 153 q 174 113 201 131 q 118 96 147 96 q 112 97 116 96 q 108 97 109 97 l 93 98 q 98 95 93 97 q 123 89 112 89 q 164 102 139 89 q 192 113 188 113 q 194 102 194 113 q 172 74 194 87 q 123 61 149 61 q 72 75 96 61 q 41 106 47 88 q 37 122 37 117 q 41 127 37 127 q 56 118 44 127 q 63 113 64 112 q 53 125 63 115 q 35 157 35 144 m 35 197 q 38 207 35 204 q 45 207 41 209 q 56 197 50 204 q 87 177 65 186 q 127 168 109 168 q 177 189 146 168 l 208 208 l 208 192 q 179 154 208 172 q 120 135 150 135 q 64 156 93 135 q 35 197 35 177 m 207 602 q 251 615 230 615 q 332 549 297 615 q 403 488 363 488 q 440 498 422 488 q 488 537 457 508 q 594 595 551 595 q 598 594 595 595 q 604 594 602 594 q 683 549 645 589 q 738 455 721 509 q 766 309 745 431 q 781 162 781 206 q 734 54 781 81 q 713 49 722 49 l 661 86 q 632 176 641 113 q 619 248 624 231 q 601 280 615 265 q 559 295 586 295 q 523 285 539 295 q 488 233 509 275 q 453 177 468 191 q 418 162 439 162 q 378 179 396 162 q 338 242 360 197 q 307 299 316 288 q 281 309 299 309 q 242 280 262 309 q 222 244 222 251 q 196 211 222 234 q 150 182 170 189 q 119 177 140 177 q 104 178 109 177 q 59 202 83 182 q 35 236 35 222 q 57 327 35 253 q 97 442 80 400 q 153 545 122 499 q 207 602 185 590 z "},"n":{"ha":582,"x_min":32,"x_max":549,"o":"m 39 89 q 43 91 39 90 q 54 90 47 91 q 68 86 61 88 q 128 75 97 75 q 171 81 148 75 q 193 84 188 84 q 199 82 199 84 q 186 67 199 76 q 125 53 169 53 q 58 68 76 53 q 39 89 39 84 m 32 124 q 39 137 32 137 q 71 127 43 137 q 125 118 95 118 l 178 127 q 201 133 198 133 q 207 120 207 133 q 185 95 207 104 q 125 86 162 86 l 119 86 q 58 97 83 86 q 32 124 32 108 m 32 164 q 38 178 32 178 q 79 168 44 178 q 125 161 102 161 q 196 176 157 161 q 205 177 203 179 q 207 163 207 174 q 182 137 207 145 q 125 128 157 128 q 60 139 88 128 q 32 164 32 149 m 71 218 q 127 208 104 208 q 182 218 154 208 q 201 223 199 223 q 207 209 207 223 q 185 183 207 193 q 127 172 163 172 q 60 184 88 172 q 32 212 32 196 q 35 228 32 228 q 71 218 37 228 m 331 645 q 381 653 360 653 q 438 642 400 653 q 497 615 476 631 q 530 571 519 598 q 543 513 541 549 q 547 333 545 477 q 549 222 549 289 q 541 94 549 123 q 508 56 534 66 q 462 46 486 46 q 390 71 414 46 q 373 103 376 84 q 368 219 370 122 q 363 332 366 313 q 347 361 360 352 q 292 375 330 375 q 233 360 251 375 q 217 341 220 351 q 214 307 214 332 q 207 247 214 259 q 168 225 200 234 q 125 218 140 218 q 95 221 112 218 q 46 236 53 230 q 32 325 34 249 q 32 351 32 336 l 32 412 q 35 550 32 513 q 45 602 38 587 q 74 627 52 617 q 124 640 102 640 q 207 583 183 640 l 219 557 l 234 578 q 331 645 272 630 z "},"o":{"ha":623,"x_min":35,"x_max":587,"o":"m 365 337 q 303 354 339 354 q 278 351 289 354 q 244 329 262 345 q 226 304 226 314 q 212 284 226 295 q 197 245 197 269 q 213 205 197 221 q 310 176 243 176 q 412 214 382 176 q 427 245 427 233 q 412 278 427 257 q 392 307 406 285 q 365 337 378 329 m 204 374 q 170 391 190 391 q 149 382 159 391 q 145 368 145 377 q 160 333 145 351 q 194 316 175 316 q 208 318 204 316 q 219 337 219 322 q 204 374 219 353 m 465 388 q 443 399 461 399 q 403 382 420 399 q 388 351 388 367 q 400 328 388 336 q 412 324 405 324 q 448 342 429 324 q 466 378 466 360 q 465 388 466 385 m 390 465 q 365 483 377 483 q 338 465 352 483 q 323 411 323 444 q 331 380 323 388 q 348 372 339 372 q 381 394 366 372 q 397 440 397 417 q 390 465 397 454 m 264 466 q 235 483 248 483 q 212 440 212 483 q 228 394 212 416 q 260 373 244 373 q 263 373 262 373 q 266 374 265 374 q 288 411 288 381 q 264 466 288 442 m 189 666 q 207 678 199 678 q 240 661 218 678 q 278 626 263 645 q 314 602 297 602 q 359 632 332 602 q 406 671 389 664 q 425 677 420 677 q 442 668 431 677 q 465 627 453 659 q 477 579 477 596 q 514 524 477 564 q 566 445 550 486 q 586 344 582 404 q 586 333 586 340 q 587 322 587 325 q 537 164 587 230 q 438 86 498 113 q 310 58 377 58 q 148 104 222 58 q 64 200 94 139 q 35 330 35 260 q 122 532 35 459 q 155 578 155 560 q 167 624 155 594 q 189 666 178 654 z "},"p":{"ha":664,"x_min":35,"x_max":628,"o":"m 395 324 q 353 336 375 336 q 304 321 330 334 q 271 291 279 308 q 248 257 255 264 q 236 228 236 244 q 253 188 236 207 q 300 160 271 169 q 352 152 323 152 q 425 169 391 152 q 464 219 464 190 q 441 278 464 244 q 395 324 416 314 m 242 355 q 209 373 225 373 q 192 366 199 373 q 185 351 185 359 q 194 323 185 341 q 236 293 208 293 q 245 294 242 293 q 262 316 262 297 q 242 355 262 336 m 485 378 q 480 379 483 378 q 477 380 478 380 q 446 362 463 380 q 427 329 427 345 q 434 311 427 318 q 453 304 441 304 q 490 320 471 304 q 508 355 508 336 q 503 373 508 368 q 485 378 499 377 m 429 450 q 409 461 420 461 q 376 437 390 461 q 362 388 362 413 q 370 362 362 370 q 391 354 378 354 q 424 370 413 354 q 438 420 438 391 q 429 450 438 441 m 306 444 q 278 462 288 462 q 257 447 267 462 q 250 419 250 435 q 267 370 250 394 q 295 356 280 356 l 301 356 q 330 391 330 360 q 306 444 330 420 m 182 567 q 231 628 207 628 q 270 604 243 628 q 303 564 297 579 q 326 552 307 552 q 348 560 339 553 q 372 587 356 566 q 420 627 399 627 q 476 560 444 627 q 502 514 497 514 q 544 481 507 514 q 606 391 584 446 q 628 278 628 336 q 610 182 628 226 q 527 94 588 130 q 403 58 466 58 q 369 61 384 58 q 309 67 341 67 q 267 58 273 67 q 263 23 263 53 q 267 -14 263 9 q 271 -44 271 -38 q 245 -65 271 -52 q 190 -84 219 -79 q 171 -89 171 -88 q 182 -90 171 -90 l 185 -90 q 226 -81 200 -90 q 267 -67 262 -67 q 273 -78 273 -67 q 245 -104 273 -89 q 184 -124 218 -118 l 155 -130 l 189 -126 q 248 -111 226 -124 l 273 -98 l 273 -111 q 237 -141 273 -124 q 147 -159 201 -159 q 106 -161 106 -159 q 109 -162 108 -162 q 146 -168 128 -168 q 253 -145 177 -168 q 263 -143 260 -142 q 266 -146 266 -144 q 262 -154 265 -148 q 159 -194 244 -187 l 104 -199 l 159 -197 q 228 -190 211 -194 l 237 -187 q 241 -190 241 -187 q 207 -213 241 -197 q 149 -225 183 -225 q 97 -213 117 -225 q 76 -193 76 -201 q 82 -190 76 -190 q 90 -191 87 -190 q 91 -189 98 -193 l 82 -183 q 57 -157 57 -170 q 67 -150 57 -150 q 71 -151 68 -150 q 74 -152 73 -152 l 76 -152 q 86 -154 84 -154 l 76 -148 q 71 -146 73 -147 q 44 -118 44 -134 q 46 -112 44 -115 q 80 -119 50 -109 q 130 -130 109 -130 l 140 -127 q 120 -124 138 -126 q 41 -86 49 -112 q 39 -68 37 -73 l 41 -68 q 75 -79 49 -68 q 124 -90 110 -90 l 126 -90 q 133 -89 132 -90 q 132 -88 135 -89 q 124 -87 131 -88 q 117 -86 119 -86 q 66 -69 91 -80 l 39 -59 l 36 20 q 35 74 35 36 q 57 359 35 249 q 153 534 87 507 q 182 567 171 541 z "},"q":{"ha":712,"x_min":35,"x_max":677,"o":"m 443 -189 q 450 -185 441 -185 l 471 -191 q 536 -198 493 -198 q 608 -190 583 -198 q 620 -187 619 -186 q 613 -197 620 -189 q 536 -226 590 -226 q 473 -211 500 -226 q 443 -189 446 -196 m 413 -100 q 443 -112 419 -100 q 525 -130 478 -130 q 634 -108 582 -130 q 646 -115 646 -103 q 553 -159 646 -142 l 508 -168 l 550 -164 q 612 -152 591 -160 q 634 -144 630 -144 q 637 -146 637 -144 l 634 -155 q 600 -182 630 -172 q 532 -192 571 -192 q 425 -157 447 -192 q 418 -142 418 -146 q 421 -139 418 -139 q 446 -147 427 -139 q 468 -155 464 -155 l 469 -155 q 463 -149 472 -155 q 443 -139 455 -145 q 410 -111 410 -123 q 413 -100 410 -100 m 412 -69 q 443 -74 416 -60 q 534 -88 471 -88 q 625 -74 600 -88 q 653 -61 648 -61 q 656 -66 656 -61 q 654 -76 656 -67 q 612 -109 649 -96 q 529 -122 574 -122 q 459 -111 488 -122 q 411 -75 411 -94 q 412 -69 411 -72 m 422 271 q 334 329 383 329 q 299 323 319 329 q 267 304 284 318 q 250 282 250 291 q 235 258 250 275 q 218 218 218 238 q 240 177 218 196 q 332 146 274 146 q 427 179 394 146 q 447 216 447 199 q 422 271 447 234 m 226 348 q 190 367 205 367 q 168 337 168 367 q 186 304 168 324 q 216 285 204 285 q 243 311 243 285 q 226 348 243 331 m 486 361 q 465 373 479 373 q 429 358 447 373 q 411 324 411 343 q 431 299 411 300 l 438 299 q 483 329 468 299 q 486 361 493 347 m 416 435 q 390 455 405 455 q 365 442 377 455 q 346 406 353 428 q 344 385 344 399 q 363 345 344 352 q 368 344 365 344 q 394 358 380 344 q 416 390 409 372 q 421 414 421 405 q 416 435 421 425 m 286 442 q 258 455 272 455 q 233 414 233 455 q 251 363 233 382 q 284 347 265 347 q 307 363 300 347 q 310 383 310 373 q 286 442 310 421 m 249 618 q 269 628 257 628 q 322 590 287 628 q 356 559 344 567 q 387 549 368 551 q 404 547 394 547 q 418 553 412 547 q 438 576 425 558 q 477 620 464 612 q 508 620 493 631 q 544 568 523 613 q 575 523 563 528 q 613 491 590 519 q 649 435 637 463 q 677 221 677 374 q 671 61 677 153 q 659 -41 664 -30 q 622 -67 653 -51 q 534 -84 584 -84 q 455 -71 488 -84 l 419 -57 l 421 -5 q 422 10 421 1 q 422 22 422 19 q 417 52 422 43 q 397 60 412 60 q 351 53 382 60 q 263 44 301 44 q 112 90 170 44 q 38 220 53 135 q 35 267 35 244 q 72 407 35 343 q 174 507 110 472 q 205 527 197 519 q 215 547 213 535 q 249 618 226 591 z "},"r":{"ha":609,"x_min":31,"x_max":573,"o":"m 79 148 q 76 152 81 150 q 69 152 73 153 q 64 150 64 152 l 72 147 q 79 148 76 146 m 139 175 q 137 178 141 177 q 130 178 133 179 q 124 177 124 178 l 132 174 l 139 175 m 297 635 q 323 653 315 653 q 354 635 333 653 q 385 600 375 618 q 422 580 397 580 q 478 596 448 580 q 525 613 513 613 q 551 594 543 613 q 563 527 559 574 q 572 436 566 470 q 573 422 573 432 q 535 358 573 380 q 506 347 517 347 q 448 375 487 347 q 336 418 390 418 q 260 387 292 418 q 229 336 237 363 q 221 255 221 308 l 221 200 l 199 193 q 188 190 196 192 q 174 186 179 188 q 164 183 168 184 q 166 181 157 181 q 174 182 169 182 q 209 189 207 188 q 215 190 212 190 q 222 182 222 190 q 206 157 222 167 q 137 145 182 148 l 83 140 l 137 142 q 206 149 186 145 q 221 140 221 154 q 209 123 221 130 q 164 110 197 117 l 162 110 q 157 109 159 109 q 157 108 154 108 l 166 106 q 198 112 181 106 q 214 117 208 117 q 219 113 219 117 q 214 100 219 108 q 182 81 207 87 l 157 76 q 177 72 164 74 q 197 67 190 69 l 167 53 q 124 38 137 38 q 86 52 109 38 q 64 73 64 65 q 52 90 64 81 q 39 108 39 100 q 53 116 39 116 l 59 116 l 69 115 l 56 122 q 31 149 31 131 q 39 156 31 156 q 45 155 43 156 q 52 153 51 153 q 51 155 54 153 l 45 159 q 34 179 34 164 q 38 189 34 188 q 56 189 42 191 l 78 185 l 56 194 l 34 205 l 34 361 q 41 539 34 514 q 71 587 47 565 q 123 609 94 609 q 199 560 178 609 l 209 535 l 238 554 q 274 597 270 578 q 297 635 280 615 z "},"s":{"ha":618,"x_min":39,"x_max":579,"o":"m 179 514 q 182 521 179 519 q 188 522 184 523 q 197 508 199 519 q 190 503 196 503 q 179 514 179 503 m 203 156 q 206 160 206 156 q 203 163 206 163 q 199 160 199 163 q 203 156 199 156 m 176 163 q 179 167 179 163 q 176 170 179 170 q 172 167 172 170 q 176 163 172 163 m 122 459 q 125 458 123 458 q 137 465 130 458 q 144 475 144 471 q 141 477 144 477 q 126 470 138 477 q 122 459 117 464 m 116 477 q 130 484 126 477 q 120 490 126 488 q 106 484 106 490 q 116 477 106 477 m 258 569 q 259 574 259 572 q 256 578 259 578 q 236 559 248 578 l 225 542 q 222 549 222 544 q 231 571 222 558 l 247 589 l 227 601 q 189 610 208 610 q 124 581 155 610 q 93 520 93 552 q 93 508 93 510 q 96 502 94 505 q 104 500 98 500 q 120 501 113 500 q 144 498 144 502 q 142 493 142 497 q 149 483 142 488 q 155 472 155 477 q 149 463 155 468 q 143 458 145 459 q 142 454 141 456 q 149 449 144 453 q 168 446 156 446 q 216 459 190 446 q 253 492 242 473 q 265 517 265 512 q 251 524 265 523 l 236 524 l 251 531 q 266 544 266 538 q 263 545 266 545 q 250 542 259 545 q 234 538 240 538 q 225 541 227 538 l 240 551 q 258 569 255 560 m 86 579 q 76 583 86 583 q 64 579 66 583 q 67 564 61 574 q 73 557 72 557 q 80 564 75 557 q 86 579 86 573 m 206 637 q 197 649 206 644 q 179 645 186 657 q 177 633 175 635 q 190 631 178 631 q 206 637 206 631 m 171 666 q 189 675 181 675 q 215 650 201 675 q 280 602 243 602 q 291 604 284 602 q 340 611 308 611 q 432 596 390 611 q 492 559 465 584 q 520 515 520 534 q 504 475 520 498 q 475 451 488 453 l 472 451 q 440 466 457 451 q 410 484 419 484 q 398 475 402 484 q 397 469 397 472 q 463 370 397 441 q 579 171 579 242 q 509 80 579 115 q 347 50 453 50 q 277 57 306 50 q 216 74 236 66 q 175 102 196 82 q 153 148 153 123 q 168 196 153 174 q 203 223 183 219 q 220 226 214 226 q 244 222 234 226 q 255 212 255 218 q 270 214 255 204 q 285 233 285 225 q 259 267 285 242 q 209 331 233 294 q 179 394 186 368 q 168 418 174 413 q 145 426 163 424 q 95 454 116 431 q 68 509 74 477 q 52 558 65 539 q 39 583 39 575 q 54 596 39 590 q 82 602 68 602 q 86 601 83 602 q 89 601 88 601 l 93 601 q 130 615 106 601 q 157 640 153 628 q 171 666 162 655 m 225 542 l 223 541 l 225 541 l 225 542 z "},"t":{"ha":547,"x_min":31,"x_max":512,"o":"m 392 310 q 389 307 389 310 q 392 303 389 303 q 395 307 395 303 q 392 310 395 310 m 421 321 q 414 319 421 329 q 411 315 412 317 l 411 311 q 414 313 412 311 q 421 321 421 316 m 392 344 q 389 340 389 344 q 392 337 389 337 q 395 340 395 337 q 392 344 395 344 m 455 348 q 438 336 455 356 l 425 319 l 441 332 q 455 348 455 344 m 365 363 q 362 360 362 363 q 365 356 362 356 q 368 360 368 356 q 365 363 368 363 m 428 368 q 411 355 428 376 l 398 340 l 414 353 q 428 368 428 365 m 439 383 q 442 387 442 383 q 439 390 442 390 q 435 387 435 390 q 439 383 435 383 m 402 388 q 384 375 402 396 l 372 360 l 387 373 q 402 388 402 385 m 409 400 q 405 403 409 403 q 402 400 402 403 q 405 397 402 397 q 409 400 409 397 m 375 407 q 361 398 375 416 q 355 389 354 390 q 363 396 355 389 q 375 407 375 405 m 409 417 q 413 412 409 407 q 413 421 418 417 q 410 422 412 424 q 409 417 409 420 m 378 417 q 382 420 382 417 q 378 424 382 424 q 375 420 375 424 q 378 417 375 417 m 81 939 q 144 951 104 951 q 179 947 169 951 q 204 928 189 943 q 236 870 227 904 q 247 755 244 837 q 248 730 247 747 q 258 660 249 669 q 303 649 265 652 l 323 648 q 392 633 363 646 l 419 620 l 381 618 q 336 606 344 616 q 331 598 331 602 q 373 595 331 596 q 434 560 434 591 q 429 545 434 551 q 403 546 424 536 q 348 557 383 557 q 316 551 325 557 q 310 543 310 549 q 351 530 310 530 q 400 519 400 530 q 377 503 400 512 q 313 490 353 494 q 258 477 273 486 q 248 355 248 468 q 257 230 248 249 q 287 205 271 205 q 313 213 297 205 q 355 280 355 236 q 370 297 355 296 q 381 299 381 299 q 369 302 381 299 q 350 318 350 308 q 356 324 350 324 q 351 330 365 324 q 336 342 338 336 q 344 352 333 348 q 345 353 348 353 q 340 353 343 353 q 321 361 329 351 q 318 368 318 366 q 319 370 317 370 q 339 381 326 370 q 347 388 346 387 l 337 384 q 318 377 322 376 q 315 388 315 378 q 338 420 315 397 q 375 443 361 443 q 382 435 382 443 q 388 436 382 425 q 418 434 395 447 q 442 413 442 424 q 453 407 442 404 q 454 407 454 407 l 456 409 q 466 396 462 409 q 476 383 471 383 q 497 355 481 383 q 512 266 512 326 q 508 209 512 226 q 490 162 505 193 q 414 77 459 100 q 272 54 368 54 l 264 54 q 46 122 87 54 l 31 146 l 31 510 q 33 830 31 779 q 45 900 35 882 q 81 939 57 926 z "},"u":{"ha":685,"x_min":35,"x_max":650,"o":"m 554 593 q 547 612 547 606 q 552 618 547 618 q 584 597 563 618 q 650 402 650 539 q 605 203 650 292 q 502 94 569 133 q 350 56 434 56 q 253 68 304 56 q 84 168 134 98 q 35 373 35 237 q 72 550 35 481 q 102 591 83 572 q 130 610 120 610 q 133 609 132 610 q 125 589 137 605 q 115 557 115 575 q 122 544 115 544 q 139 566 127 544 q 160 600 149 588 q 189 610 169 610 q 214 602 206 610 q 220 593 219 597 q 220 586 222 588 q 213 583 218 583 q 177 553 199 583 q 155 502 155 522 q 161 495 155 495 q 184 519 175 495 q 205 550 192 537 q 228 563 218 563 q 233 561 231 563 q 242 529 242 558 q 238 450 242 507 q 236 375 236 381 q 247 316 236 340 q 340 244 275 249 q 350 244 344 244 q 359 243 356 243 q 398 257 381 243 q 429 306 422 275 q 435 432 435 336 q 441 557 435 547 q 451 563 444 563 q 497 520 477 563 q 523 490 509 490 q 529 500 529 490 q 513 541 529 515 q 481 575 497 567 q 464 591 464 586 q 479 604 464 596 q 495 609 487 609 q 543 566 521 609 q 565 541 557 541 q 569 549 569 541 q 554 593 569 564 z "},"v":{"ha":642,"x_min":35,"x_max":606,"o":"m 100 537 q 96 561 96 549 q 127 597 96 597 q 144 590 144 597 q 140 575 144 586 q 138 553 138 569 q 157 495 138 503 l 160 495 q 166 522 166 495 l 166 538 l 166 549 q 176 588 166 588 q 204 569 185 588 q 270 443 227 550 q 324 340 311 340 q 372 433 337 340 q 413 539 403 520 q 443 571 424 559 q 471 583 463 583 q 476 579 476 583 q 471 564 476 573 q 463 523 463 545 q 470 501 463 501 l 471 501 q 485 535 477 503 q 527 583 498 583 q 549 576 538 583 q 554 569 554 572 q 543 557 553 567 q 515 486 515 532 q 523 464 515 464 q 534 484 531 464 q 552 532 537 510 q 579 553 566 553 q 587 549 583 553 q 606 478 606 524 q 531 233 606 388 q 464 135 503 176 q 382 80 425 95 q 323 71 358 71 q 231 90 274 71 q 158 146 197 106 q 98 227 119 185 q 35 469 35 352 q 61 560 35 536 q 72 568 71 568 q 74 554 74 567 q 82 520 74 537 q 98 503 90 503 q 106 509 106 503 q 100 537 106 514 z "},"w":{"ha":831,"x_min":35,"x_max":796,"o":"m 127 586 q 150 601 142 601 q 159 584 159 601 q 157 571 159 575 q 155 545 155 552 q 172 493 155 493 q 177 523 182 493 q 175 549 175 542 q 196 586 175 586 q 220 575 206 586 q 249 533 242 560 q 258 440 257 506 q 271 338 259 354 q 300 315 287 315 q 358 369 318 315 q 420 419 394 419 q 479 360 449 419 q 509 314 497 328 q 536 301 521 301 q 549 302 544 301 q 582 330 573 307 q 596 420 591 354 q 609 523 602 493 q 633 567 616 552 l 650 583 l 663 566 q 675 534 675 551 q 674 527 675 531 q 674 519 674 522 q 672 502 672 513 q 679 483 672 483 q 689 492 684 483 q 696 529 696 505 q 689 569 696 552 q 686 584 684 581 q 699 587 688 587 q 734 538 734 587 q 733 520 734 527 q 735 486 727 486 q 749 501 743 486 q 756 537 756 516 q 759 557 756 556 q 765 553 760 557 q 787 515 775 546 q 796 447 796 490 q 778 296 796 381 q 731 157 759 212 q 575 53 677 56 l 572 53 q 521 69 543 53 q 472 127 500 84 q 432 175 443 175 q 428 174 431 175 q 380 122 417 170 q 319 63 343 74 q 271 52 296 52 q 169 91 219 52 q 93 196 119 131 q 56 335 76 236 q 35 471 35 434 q 47 529 35 500 q 74 566 59 558 q 88 572 86 572 q 95 545 95 572 q 100 510 95 525 q 112 495 105 495 q 116 497 115 495 q 119 516 119 498 q 118 536 119 529 q 116 560 116 557 q 127 586 116 574 z "},"x":{"ha":640,"x_min":39,"x_max":601,"o":"m 153 595 q 156 613 153 611 q 171 613 159 616 q 224 580 205 605 q 263 492 243 554 q 289 434 275 451 q 319 417 302 417 q 323 417 321 417 q 328 418 326 418 q 375 479 343 419 q 424 558 410 544 q 461 585 439 573 q 498 597 484 597 q 506 595 505 597 l 495 582 q 475 552 479 564 q 470 538 470 544 q 476 532 470 532 q 498 550 484 532 q 538 580 521 580 q 554 573 546 580 q 557 550 576 551 q 523 527 546 550 q 500 494 500 505 q 510 484 500 484 q 520 490 520 484 q 538 514 520 499 q 567 530 557 530 q 580 507 580 530 q 535 410 580 461 q 491 354 501 370 q 480 323 480 338 q 498 281 480 303 q 541 243 515 258 q 584 205 568 228 q 601 159 601 182 q 576 97 601 122 q 514 73 551 73 q 487 76 501 73 q 358 189 448 87 q 311 216 331 216 q 229 142 280 216 q 176 83 198 96 q 127 71 154 71 q 82 82 101 71 q 53 115 67 91 q 39 154 39 138 q 57 200 39 171 q 97 247 75 228 q 153 338 153 292 q 144 384 153 365 q 106 432 134 403 q 68 480 78 463 q 59 519 59 497 q 63 545 59 532 q 72 557 67 557 q 76 552 75 557 q 95 525 81 539 q 117 510 110 510 q 126 514 126 510 q 110 542 126 516 q 94 578 94 567 q 108 600 94 589 q 123 606 118 606 q 133 586 133 606 q 147 546 133 569 q 170 523 161 523 q 179 530 179 523 q 167 554 179 538 q 153 595 153 573 z "},"y":{"ha":528,"x_min":35,"x_max":495,"o":"m 110 -2 q 119 -2 115 -7 q 115 2 123 2 q 110 -2 105 2 m 102 25 q 98 29 102 29 q 95 25 95 29 q 98 23 95 23 q 102 25 102 23 m 160 31 q 148 35 156 34 q 133 34 134 35 q 137 31 133 32 q 160 31 147 29 m 79 50 q 75 46 75 50 q 79 43 75 43 q 81 46 81 43 q 79 50 81 50 m 102 53 q 98 56 102 56 q 95 53 95 56 q 98 50 95 50 q 102 53 102 50 m 83 635 q 123 663 111 663 q 186 602 146 663 q 208 519 204 572 q 275 376 223 376 q 295 381 288 376 q 307 402 301 387 q 323 502 316 425 q 336 593 329 578 q 374 638 346 612 q 412 663 402 663 q 450 638 422 663 q 488 593 478 612 q 495 211 495 581 q 490 -126 495 -86 q 470 -176 485 -157 q 425 -211 455 -194 q 380 -226 402 -223 q 275 -228 358 -228 q 168 -226 189 -228 q 123 -209 148 -223 q 61 -154 84 -189 q 38 -83 38 -119 q 54 -34 38 -53 q 61 -25 60 -28 q 58 -27 63 -23 q 53 -30 57 -28 q 43 -28 44 -38 q 43 -8 42 -22 q 49 27 43 23 q 51 43 51 28 q 63 64 51 52 q 87 76 75 76 q 89 82 97 76 q 87 86 87 84 q 101 95 87 90 q 127 101 115 101 q 139 98 132 101 q 173 71 157 91 q 189 32 189 50 q 201 -3 189 17 q 226 -30 213 -24 q 260 -38 243 -38 q 315 -3 295 -38 q 334 94 334 32 q 332 138 334 105 l 328 181 l 259 181 q 176 188 204 181 q 118 219 148 196 q 57 321 80 248 q 35 487 35 394 q 44 577 35 550 q 83 635 53 604 z "},"z":{"ha":608,"x_min":38,"x_max":566,"o":"m 421 98 q 422 94 421 95 q 427 97 425 90 q 426 104 428 102 q 421 98 422 104 m 499 116 q 500 109 499 109 l 503 117 q 502 125 505 123 q 499 123 500 127 q 499 116 498 120 m 464 116 q 465 109 464 109 l 469 117 q 468 125 470 123 q 464 123 465 127 q 464 116 463 120 m 433 122 q 431 144 436 139 l 429 131 l 432 118 q 433 122 432 119 m 505 162 q 509 157 505 153 q 509 167 514 162 q 506 167 507 169 q 505 162 505 166 m 475 150 q 475 175 477 162 q 471 162 472 169 q 472 147 471 148 q 475 150 473 147 m 433 178 q 433 199 435 190 q 429 186 431 193 q 432 175 429 174 q 433 178 432 175 m 538 196 q 537 208 543 204 q 534 205 534 211 q 534 199 534 203 q 535 192 534 193 l 538 196 m 464 206 q 465 200 464 200 l 469 208 q 468 215 470 213 q 464 213 465 218 q 464 206 463 211 m 456 231 q 461 227 456 222 q 461 236 465 231 q 457 237 458 238 q 456 231 456 235 m 345 679 q 370 692 358 692 q 432 624 406 692 q 466 571 441 594 q 505 491 505 534 q 404 340 505 413 q 359 284 360 308 q 394 252 359 252 q 419 234 411 252 l 426 220 q 424 237 426 220 q 422 247 422 241 q 432 260 422 260 q 448 251 436 260 q 454 249 455 242 q 453 255 454 251 q 462 266 448 266 q 479 252 471 266 q 501 197 487 238 q 505 201 505 192 q 494 236 505 213 q 485 263 484 262 q 490 264 486 264 q 509 254 498 264 q 523 234 521 244 l 523 231 l 529 220 l 532 228 q 536 234 535 234 q 552 209 539 234 q 566 162 566 179 q 556 125 566 146 l 544 103 l 539 120 q 538 125 539 122 l 535 132 q 532 123 535 131 q 531 116 532 118 q 521 95 529 103 q 507 87 514 87 q 497 94 500 87 q 491 91 491 102 q 483 77 491 83 q 463 71 475 71 q 461 87 458 71 q 462 95 462 94 l 455 83 q 431 64 448 64 q 419 76 414 64 q 417 80 421 84 q 411 73 414 78 q 388 59 402 61 q 315 57 374 57 q 110 93 166 57 q 66 178 66 120 l 66 194 q 91 270 69 242 q 167 328 112 299 q 253 397 253 376 q 226 404 253 404 q 174 402 220 404 l 94 397 l 69 421 q 38 490 38 453 q 88 571 38 537 q 128 616 120 593 q 183 686 150 686 q 228 656 201 686 q 253 622 253 626 q 281 616 253 616 q 305 620 299 616 q 319 641 311 624 q 345 679 329 663 z "},"{":{"ha":468,"x_min":38,"x_max":427,"o":"m 286 941 q 338 954 311 954 q 397 928 370 954 q 410 897 410 917 l 410 889 q 397 859 407 873 q 345 810 387 846 q 278 745 296 767 q 259 700 259 723 q 275 650 259 678 q 334 563 292 622 q 366 494 366 519 q 341 450 366 471 q 263 402 317 428 l 211 376 l 249 365 q 319 336 285 353 q 362 308 354 318 q 370 282 370 299 q 354 230 370 263 q 321 159 338 200 q 307 109 307 123 q 320 70 307 89 q 368 16 333 51 q 415 -37 403 -19 q 427 -73 427 -56 q 424 -97 427 -83 q 395 -139 416 -124 q 348 -154 375 -154 q 291 -135 319 -154 q 198 -39 243 -104 q 146 73 153 25 q 145 79 146 74 q 145 84 145 83 q 188 189 145 133 q 213 226 213 222 q 172 255 213 231 q 87 312 131 278 q 39 378 43 346 q 38 394 38 384 q 58 431 38 410 q 113 477 75 451 q 176 514 150 503 q 201 529 201 528 q 177 566 201 537 q 133 634 154 593 q 111 696 111 676 q 126 756 111 716 q 160 824 141 795 q 221 894 183 859 q 286 941 259 928 z "},"}":{"ha":469,"x_min":38,"x_max":429,"o":"m 67 934 q 122 955 93 955 q 180 940 154 955 q 248 885 206 926 q 345 705 345 788 q 280 567 345 641 q 251 532 251 534 l 258 529 q 278 520 265 525 q 301 508 291 514 q 396 447 363 479 q 429 387 429 416 q 428 375 429 378 q 386 322 424 353 q 302 266 348 291 l 244 237 l 269 207 q 321 106 313 152 q 322 94 322 102 q 247 -63 322 28 q 116 -154 172 -154 q 76 -138 98 -154 q 46 -104 54 -123 q 38 -72 38 -88 q 81 1 38 -38 q 140 65 123 41 q 157 115 157 90 q 124 200 157 144 q 90 284 90 255 q 112 323 90 307 q 184 359 134 340 q 237 381 237 378 q 196 405 237 384 q 126 447 152 427 q 102 469 106 461 q 97 497 97 477 q 109 541 97 520 q 174 637 120 561 q 198 703 198 669 q 192 738 198 728 q 153 778 186 748 q 65 861 88 837 q 43 900 43 885 q 67 934 43 913 z "},"~":{"ha":508,"x_min":34,"x_max":473,"o":"m 96 432 q 138 440 113 440 q 273 381 194 440 q 322 355 307 355 q 345 373 334 355 q 411 428 380 428 q 453 404 432 428 q 473 358 473 382 q 461 318 473 340 q 402 267 441 288 q 324 247 363 247 q 287 255 303 247 q 238 288 271 263 q 197 308 213 308 q 153 285 179 308 q 111 262 125 262 q 95 263 102 262 q 36 314 45 267 q 34 332 34 325 q 51 392 34 363 q 96 432 68 420 z "},"":{"ha":243,"x_min":0,"x_max":0,"o":""},"":{"ha":428,"x_min":35,"x_max":391,"o":"m 274 880 q 326 894 299 894 q 361 884 346 894 q 374 865 374 875 q 359 839 374 854 l 344 825 l 362 814 q 391 760 391 796 q 344 685 391 709 q 313 678 330 678 q 263 693 287 678 q 227 731 238 707 q 218 774 218 752 q 233 835 218 806 q 274 880 249 865 m 95 882 q 140 892 116 892 q 191 867 188 892 q 177 839 193 858 l 162 823 l 177 816 q 208 757 208 802 q 207 745 208 749 q 179 697 201 714 q 128 679 157 679 q 60 709 89 679 q 35 778 35 736 q 51 839 35 810 q 95 882 67 868 z "},"":{"ha":429,"x_min":35,"x_max":394,"o":"m 253 887 q 284 892 267 892 q 347 874 322 892 q 394 775 394 837 q 378 722 394 744 q 300 678 350 678 q 248 696 271 678 q 220 745 226 714 q 219 751 220 748 q 219 756 219 755 q 228 793 219 775 q 251 816 237 810 l 266 823 l 250 839 q 237 865 237 852 q 253 887 237 878 m 102 894 q 150 882 128 894 q 195 839 178 867 q 212 778 212 810 q 201 733 212 753 q 166 693 190 707 q 117 678 142 678 q 57 706 79 678 q 35 759 35 731 q 64 813 35 793 l 83 825 l 68 839 q 54 865 54 853 q 67 884 54 875 q 102 894 80 894 z "},"":{"ha":802,"x_min":36,"x_max":853,"o":"m 806 883 q 840 857 828 877 q 853 810 853 837 q 852 795 853 801 q 851 785 852 789 q 830 748 846 757 q 760 740 817 740 q 762 678 762 711 q 764 605 763 645 q 767 393 766 470 q 769 295 769 316 q 765 185 769 226 q 757 119 762 145 q 740 84 753 95 q 715 73 726 75 q 676 71 704 71 q 608 84 623 71 q 591 113 591 101 q 580 130 591 130 q 503 98 566 130 q 459 77 477 86 q 432 66 441 68 q 366 59 412 60 l 340 59 q 118 139 198 59 q 36 330 36 221 q 100 514 36 425 q 241 634 156 591 q 426 678 325 677 q 454 679 443 678 q 472 681 465 679 q 484 686 479 683 q 493 697 488 690 q 506 734 506 713 l 506 740 l 499 740 q 400 743 418 741 q 377 751 382 744 q 375 759 375 758 q 418 784 375 780 q 449 787 443 785 q 444 795 454 787 q 418 804 432 804 q 383 796 404 804 l 362 787 l 362 807 q 370 829 362 824 q 405 834 378 834 q 427 841 427 834 q 399 852 427 850 q 375 860 375 853 q 390 875 375 865 q 494 888 404 885 l 508 888 q 509 885 509 888 q 529 942 516 920 q 601 993 553 983 q 611 995 605 994 q 626 995 617 995 q 708 965 671 995 q 755 888 745 934 q 787 885 774 887 q 806 883 800 884 m 394 510 q 382 463 382 488 q 392 424 382 440 q 419 407 402 407 q 427 409 426 407 q 462 441 447 413 q 477 498 477 469 q 466 534 477 520 q 441 545 456 545 q 394 510 412 545 m 250 532 q 242 499 242 517 q 262 436 242 466 q 304 406 282 406 q 328 419 317 406 q 340 459 340 435 q 306 535 340 508 q 274 545 289 545 q 250 532 257 545 m 174 366 q 222 337 191 337 q 236 338 233 337 q 256 362 253 339 l 256 370 q 234 410 256 388 q 188 434 209 434 q 161 404 161 434 q 174 366 161 388 m 506 221 q 514 250 514 236 q 490 303 514 270 l 470 329 q 447 358 457 347 q 420 375 436 368 q 368 384 398 384 q 316 375 338 384 q 259 323 293 365 q 225 258 228 284 q 224 253 225 257 q 223 248 223 250 q 267 184 223 208 q 370 160 313 160 q 506 221 472 160 m 517 352 q 545 372 534 359 q 561 398 557 384 q 564 423 566 411 q 551 441 561 435 q 532 447 539 447 q 512 441 525 447 q 482 418 497 435 q 463 384 468 400 q 476 354 458 367 q 495 346 488 346 q 517 352 498 346 z "},"":{"ha":802,"x_min":36,"x_max":892,"o":"m 855 821 q 885 785 892 811 q 880 776 883 777 q 866 784 877 775 q 844 794 852 793 q 792 791 813 802 q 791 782 782 784 l 811 779 q 829 776 822 777 q 839 774 836 775 q 863 756 867 767 q 839 742 861 747 q 782 740 816 737 q 771 741 777 741 q 762 742 766 741 q 762 679 762 713 q 764 605 763 646 q 767 393 766 470 q 769 295 769 316 q 765 185 769 226 q 757 119 762 145 q 740 84 753 95 q 715 73 726 75 q 676 71 704 71 q 608 84 623 71 q 591 113 591 101 q 580 130 591 130 q 503 98 566 130 q 459 77 477 86 q 432 66 441 68 q 366 59 412 60 l 340 59 q 118 139 198 59 q 36 330 36 221 q 100 514 36 425 q 241 634 156 591 q 426 678 325 677 q 454 679 443 678 q 472 681 465 679 q 484 686 479 683 q 493 697 488 690 q 506 730 506 712 q 497 730 501 730 q 487 728 493 729 q 377 743 399 718 q 373 754 372 750 q 385 764 375 758 q 420 767 403 772 q 442 774 442 771 q 427 788 440 785 q 397 788 413 792 q 383 785 388 786 q 361 778 366 777 q 354 787 356 780 q 365 808 352 797 q 394 822 377 818 q 411 822 403 824 q 438 830 441 813 q 418 843 435 838 q 385 845 400 847 q 387 851 380 844 q 389 852 388 852 q 394 854 391 852 q 405 858 399 856 q 418 861 411 860 q 507 868 458 870 q 529 942 514 918 q 601 993 553 983 q 611 995 605 994 q 626 995 617 995 q 672 986 650 995 q 712 961 694 977 q 741 924 729 946 q 756 878 752 903 q 756 876 756 877 q 757 873 757 875 l 773 873 q 841 867 810 876 q 866 851 863 860 q 852 845 866 841 q 814 837 817 854 q 841 824 809 828 q 848 822 844 823 q 855 821 853 822 m 394 510 q 382 463 382 488 q 392 424 382 440 q 419 407 402 407 q 427 409 426 407 q 462 441 447 413 q 477 498 477 469 q 466 534 477 520 q 441 545 456 545 q 394 510 412 545 m 250 532 q 242 499 242 517 q 262 436 242 466 q 304 406 282 406 q 328 419 317 406 q 340 459 340 435 q 306 535 340 508 q 274 545 289 545 q 250 532 257 545 m 174 366 q 222 337 191 337 q 236 338 233 337 q 256 362 253 339 l 256 370 q 234 410 256 388 q 188 434 209 434 q 161 404 161 434 q 174 366 161 388 m 506 221 q 514 250 514 236 q 490 303 514 270 l 470 329 q 447 358 457 347 q 420 375 436 368 q 368 384 398 384 q 316 375 338 384 q 259 323 293 365 q 225 258 228 284 q 224 253 225 257 q 223 248 223 250 q 267 184 223 208 q 370 160 313 160 q 506 221 472 160 m 517 352 q 545 372 534 359 q 561 398 557 384 q 564 423 566 411 q 551 441 561 435 q 532 447 539 447 q 512 441 525 447 q 482 418 497 435 q 463 384 468 400 q 476 354 458 367 q 495 346 488 346 q 517 352 498 346 z "},"":{"ha":765,"x_min":-104,"x_max":730,"o":"m 727 552 q 730 501 730 531 q 707 310 730 400 q 642 167 686 227 q 539 78 598 106 q 442 43 488 53 q 388 35 419 38 q 317 31 356 32 q 295 31 309 31 q 274 30 280 30 q 91 65 171 30 q 60 78 72 73 q 43 98 49 82 q 35 148 37 113 q 32 249 32 182 l 32 341 q 33 370 32 356 q 34 397 34 384 l 32 397 q -32 398 -8 397 q -66 399 -57 399 q -89 409 -84 400 q -91 417 -91 416 q -49 441 -91 436 q -28 442 -36 441 q -17 444 -20 443 q -22 453 -13 444 q -49 462 -35 462 q -83 453 -59 462 l -104 444 l -104 464 q -96 486 -104 481 q -61 491 -88 491 q -39 498 -39 491 q -67 508 -39 508 q -91 517 -91 509 q -76 532 -91 522 q 28 544 -61 544 l 34 544 q 41 839 35 829 q 64 864 45 853 q 113 883 83 875 q 180 895 142 890 q 262 899 218 899 q 280 899 267 899 q 299 898 292 898 l 375 895 l 385 912 q 395 927 389 918 q 404 940 402 936 q 409 953 406 943 q 416 975 412 962 q 435 1000 422 1000 q 475 973 448 1000 q 536 953 495 953 q 565 957 554 953 q 586 962 574 962 q 606 939 606 962 q 601 911 606 925 q 598 892 598 904 q 601 870 598 880 q 603 850 603 859 q 598 821 603 833 l 590 795 l 627 753 q 663 708 646 733 q 693 656 679 683 q 715 603 706 630 q 727 552 723 576 m 454 966 q 437 975 446 976 q 428 964 428 975 q 444 956 428 953 q 456 959 455 958 q 454 966 457 961 m 405 851 q 395 846 395 851 q 416 836 395 836 l 426 833 l 418 832 q 404 823 404 829 q 412 807 404 818 q 495 772 438 772 q 534 780 516 772 l 550 788 l 535 800 q 527 809 527 804 q 530 810 527 810 q 549 804 537 810 q 565 803 561 799 q 549 816 567 810 q 531 826 531 823 q 537 828 531 828 q 552 826 547 828 q 578 829 572 823 q 554 836 582 836 q 535 840 531 836 l 537 843 q 565 848 546 848 q 579 851 578 848 q 578 866 581 854 q 524 927 565 912 q 479 938 500 938 q 435 926 458 938 q 404 895 404 909 q 407 889 404 890 q 426 878 417 885 q 435 867 435 872 l 434 865 q 417 869 426 860 q 397 872 399 884 q 409 861 397 861 q 428 854 419 861 q 426 850 434 850 l 416 850 q 410 850 413 850 q 405 851 406 851 m 396 663 q 372 596 374 631 q 385 550 372 568 q 420 532 399 532 q 441 538 427 532 q 473 577 461 550 q 486 632 486 604 q 470 681 486 664 q 442 697 456 697 q 396 663 419 697 m 252 690 q 213 634 213 690 q 236 564 213 596 q 287 532 260 532 q 314 544 302 532 q 328 589 328 559 q 322 626 328 608 q 307 658 317 644 q 284 681 297 672 q 252 690 270 690 m 123 510 q 162 459 135 479 q 199 449 176 449 q 225 456 218 449 q 233 479 233 464 q 196 550 233 520 q 159 564 176 564 q 131 553 142 564 q 120 527 120 543 q 123 510 120 517 m 476 278 q 528 353 528 310 q 505 405 528 380 q 483 436 486 425 q 429 493 473 470 q 360 509 397 509 q 288 492 321 509 q 241 444 255 475 q 230 423 236 433 q 215 404 223 413 q 191 350 191 377 q 266 264 191 297 q 356 245 307 245 q 476 278 426 245 m 536 471 q 573 503 559 483 q 587 542 587 523 q 578 566 587 557 q 551 576 567 576 q 479 534 508 576 q 470 484 462 506 q 505 463 479 463 q 536 471 521 463 m 571 920 q 587 919 581 910 q 594 936 594 927 q 580 943 594 943 q 564 933 564 943 q 571 920 564 927 z "},"":{"ha":653,"x_min":206,"x_max":439,"o":"m 322 -184 q 313 -178 313 -184 q 317 -169 313 -174 q 326 -164 322 -164 q 332 -175 332 -164 q 322 -184 332 -184 m 419 -157 q 392 -157 419 -142 q 400 -164 394 -163 q 419 -157 419 -164 m 252 -157 q 231 -157 231 -145 q 248 -164 231 -164 q 258 -163 257 -164 q 252 -157 258 -162 m 373 -88 q 326 -78 352 -78 q 241 -118 263 -78 q 235 -133 235 -130 q 256 -147 235 -139 q 277 -166 277 -155 q 251 -178 277 -178 q 236 -185 236 -181 q 256 -189 241 -192 q 272 -191 272 -185 q 262 -198 272 -198 q 252 -204 252 -198 q 269 -221 252 -211 q 321 -236 291 -236 q 362 -228 343 -236 q 392 -204 392 -216 q 382 -198 392 -198 q 373 -191 373 -198 q 380 -187 373 -187 q 391 -189 383 -187 q 403 -190 399 -190 q 412 -185 412 -190 q 392 -178 412 -178 q 373 -166 373 -178 q 392 -145 373 -152 q 412 -133 412 -139 q 399 -109 412 -124 q 373 -88 387 -95 m 405 -65 q 396 -51 405 -51 q 382 -59 385 -51 q 387 -72 378 -67 q 402 -78 398 -79 q 405 -65 405 -76 m 258 -69 q 267 -58 267 -64 q 259 -52 267 -52 q 245 -65 245 -52 q 248 -74 245 -73 q 258 -69 250 -75 m 226 -62 l 223 -31 l 248 -31 q 279 -41 272 -31 q 321 -51 286 -51 q 368 -41 354 -51 q 400 -31 380 -31 q 417 -35 414 -31 q 419 -61 419 -39 q 429 -112 419 -91 q 439 -153 439 -131 q 414 -219 439 -192 q 328 -259 377 -259 l 322 -259 q 239 -229 272 -258 q 206 -159 206 -199 q 216 -116 206 -137 q 226 -71 226 -97 l 226 -62 z "},"":{"ha":802,"x_min":215,"x_max":571,"o":"m 530 560 q 532 549 532 553 q 513 532 532 532 q 502 536 502 532 q 503 539 502 538 q 505 543 503 541 q 506 553 506 544 q 494 579 506 575 l 492 579 q 488 567 488 579 l 488 559 l 488 554 q 483 537 488 537 q 465 545 477 537 q 424 602 453 553 q 390 648 398 648 q 361 606 382 648 q 344 575 351 587 q 334 559 338 564 q 316 545 330 551 q 299 539 302 539 q 296 542 296 539 q 299 549 296 545 q 304 567 304 557 q 300 576 304 576 l 299 576 q 291 561 295 575 q 264 539 282 539 q 251 543 256 539 q 247 546 247 545 q 255 551 248 546 q 272 583 272 563 q 267 593 272 593 q 260 584 263 594 q 249 563 258 572 q 231 553 241 553 q 227 554 228 553 q 215 587 215 566 q 262 697 215 628 q 303 741 279 722 q 354 765 328 759 q 391 770 368 770 q 448 760 418 770 q 494 736 468 753 q 515 718 506 727 q 530 699 524 708 q 571 590 571 642 q 553 550 571 560 q 546 546 547 546 q 545 552 545 546 q 541 568 545 560 q 530 575 535 575 q 525 573 525 575 q 530 560 525 569 z "},"":{"ha":802,"x_min":215,"x_max":571,"o":"m 530 560 q 532 549 532 553 q 513 532 532 532 q 502 536 502 532 q 503 539 502 538 q 505 543 503 541 q 506 553 506 544 q 494 579 506 575 l 492 579 q 488 567 488 579 l 488 559 l 488 554 q 483 537 488 537 q 465 545 477 537 q 424 602 453 553 q 390 648 398 648 q 361 606 382 648 q 344 575 351 587 q 334 559 338 564 q 316 545 330 551 q 299 539 302 539 q 296 542 296 539 q 299 549 296 545 q 304 567 304 557 q 300 576 304 576 l 299 576 q 291 561 295 575 q 264 539 282 539 q 251 543 256 539 q 247 546 247 545 q 255 551 248 546 q 272 583 272 563 q 267 593 272 593 q 260 584 263 594 q 249 563 258 572 q 231 553 241 553 q 227 554 228 553 q 215 587 215 566 q 262 697 215 628 q 303 741 279 722 q 354 765 328 759 q 391 770 368 770 q 448 760 418 770 q 494 736 468 753 q 515 718 506 727 q 530 699 524 708 q 571 590 571 642 q 553 550 571 560 q 546 546 547 546 q 545 552 545 546 q 541 568 545 560 q 530 575 535 575 q 525 573 525 575 q 530 560 525 569 z "},"":{"ha":299,"x_min":43,"x_max":255,"o":"m 76 938 q 91 941 82 940 q 111 942 100 942 q 170 932 140 942 q 216 906 200 922 q 242 852 230 892 q 255 781 255 810 q 233 743 255 765 q 196 722 212 722 q 97 793 164 722 q 69 823 80 811 q 53 845 59 836 q 45 863 46 855 q 43 881 43 872 q 76 938 43 920 z "},"":{"ha":412,"x_min":111,"x_max":323,"o":"m 323 818 q 321 801 323 809 q 313 783 318 793 q 296 761 307 773 q 269 730 286 749 q 169 660 199 660 q 133 681 154 660 q 111 719 111 703 q 124 789 111 752 q 149 844 135 830 q 195 870 164 860 q 255 880 226 880 q 288 874 277 880 q 323 818 323 858 z "},"":{"ha":412,"x_min":111,"x_max":323,"o":"m 323 818 q 321 801 323 809 q 313 783 318 793 q 296 761 307 773 q 269 730 286 749 q 169 660 199 660 q 133 681 154 660 q 111 719 111 703 q 124 789 111 752 q 149 844 135 830 q 195 870 164 860 q 255 880 226 880 q 288 874 277 880 q 323 818 323 858 z "},"":{"ha":616,"x_min":115,"x_max":470,"o":"m 155 840 q 153 851 153 844 q 171 866 153 866 q 182 862 182 866 q 179 856 182 859 q 179 853 179 855 q 178 847 178 851 q 191 823 178 826 l 192 823 q 196 833 196 823 l 196 840 l 196 845 q 203 862 196 862 q 219 854 206 862 q 234 836 227 850 q 251 799 241 823 q 260 777 256 789 q 275 759 265 765 q 296 756 284 756 q 315 763 308 757 q 325 778 322 769 q 330 796 328 787 q 341 826 336 816 q 350 841 346 837 q 368 854 358 850 q 385 860 382 860 q 389 858 389 860 q 385 852 389 855 q 380 834 380 844 q 384 825 380 825 l 385 825 q 394 839 388 825 q 420 860 402 860 q 434 856 427 860 q 437 854 438 854 q 431 848 436 853 q 413 818 413 838 q 418 809 413 809 q 425 817 422 809 q 435 838 427 829 q 453 847 443 847 q 457 845 455 847 q 470 815 470 834 q 461 763 470 788 q 436 718 453 738 q 422 700 431 711 q 400 680 414 690 q 363 662 385 670 q 310 653 341 654 q 260 656 287 652 q 213 667 234 660 q 143 720 169 683 q 115 806 117 758 l 115 811 q 131 850 115 839 q 138 853 137 853 q 139 847 139 853 q 144 832 139 840 q 154 826 149 825 q 159 829 159 826 q 155 840 159 830 z "},"":{"ha":616,"x_min":115,"x_max":470,"o":"m 155 840 q 153 851 153 844 q 171 866 153 866 q 182 862 182 866 q 179 856 182 859 q 179 853 179 855 q 178 847 178 851 q 191 823 178 826 l 192 823 q 196 833 196 823 l 196 840 l 196 845 q 203 862 196 862 q 219 854 206 862 q 234 836 227 850 q 251 799 241 823 q 260 777 256 789 q 275 759 265 765 q 296 756 284 756 q 315 763 308 757 q 325 778 322 769 q 330 796 328 787 q 341 826 336 816 q 350 841 346 837 q 368 854 358 850 q 385 860 382 860 q 389 858 389 860 q 385 852 389 855 q 380 834 380 844 q 384 825 380 825 l 385 825 q 394 839 388 825 q 420 860 402 860 q 434 856 427 860 q 437 854 438 854 q 431 848 436 853 q 413 818 413 838 q 418 809 413 809 q 425 817 422 809 q 435 838 427 829 q 453 847 443 847 q 457 845 455 847 q 470 815 470 834 q 461 763 470 788 q 436 718 453 738 q 422 700 431 711 q 400 680 414 690 q 363 662 385 670 q 310 653 341 654 q 260 656 287 652 q 213 667 234 660 q 143 720 169 683 q 115 806 117 758 l 115 811 q 131 850 115 839 q 138 853 137 853 q 139 847 139 853 q 144 832 139 840 q 154 826 149 825 q 159 829 159 826 q 155 840 159 830 z "},"":{"ha":596,"x_min":84,"x_max":524,"o":"m 147 743 q 189 751 164 751 q 324 692 245 751 q 373 667 358 667 q 396 684 385 667 q 462 740 431 740 q 503 715 483 740 q 524 669 524 693 q 512 630 524 652 q 453 579 492 600 q 375 558 414 558 q 338 566 354 558 q 289 600 322 574 q 248 619 264 619 q 204 596 230 619 q 162 573 176 573 q 146 574 153 573 q 87 625 96 579 q 84 644 84 637 q 102 703 84 675 q 147 743 119 731 z "},"":{"ha":542,"x_min":169,"x_max":367,"o":"m 366 753 q 366 744 366 750 q 367 730 367 738 q 366 716 367 722 q 366 707 366 711 q 362 697 365 703 q 358 685 360 692 q 328 648 345 661 q 281 634 308 635 l 266 633 l 266 630 l 266 626 q 266 619 266 624 q 262 612 265 615 q 255 610 257 610 q 226 605 242 605 l 223 605 q 198 613 209 605 q 192 620 193 616 q 192 624 192 623 q 191 626 191 625 l 191 649 q 196 685 191 676 q 208 701 201 697 q 234 707 215 705 q 250 711 248 711 q 255 718 252 713 q 247 719 252 718 q 228 721 241 720 q 189 730 203 722 q 169 769 169 744 l 169 784 q 174 838 169 828 q 182 848 177 845 q 194 851 185 851 q 221 843 206 851 q 229 840 225 840 q 236 838 233 839 q 248 836 242 837 q 260 833 253 834 q 275 831 269 833 q 281 830 279 831 q 285 830 282 830 q 293 833 287 830 q 328 845 314 845 q 333 844 332 845 q 348 825 346 839 q 350 804 350 811 q 358 772 350 787 q 362 762 360 766 q 366 753 365 757 z "},"":{"ha":596,"x_min":84,"x_max":524,"o":"m 147 743 q 189 751 164 751 q 324 692 245 751 q 373 667 358 667 q 396 684 385 667 q 462 740 431 740 q 503 715 483 740 q 524 669 524 693 q 512 630 524 652 q 453 579 492 600 q 375 558 414 558 q 338 566 354 558 q 289 600 322 574 q 248 619 264 619 q 204 596 230 619 q 162 573 176 573 q 146 574 153 573 q 87 625 96 579 q 84 644 84 637 q 102 703 84 675 q 147 743 119 731 z "},"":{"ha":718,"x_min":35,"x_max":786,"o":"m 738 670 q 769 572 786 628 q 749 532 764 556 q 699 493 728 505 q 641 488 670 481 q 650 402 650 448 q 605 203 650 291 q 502 94 569 133 q 350 56 434 56 q 302 58 326 56 q 253 68 278 61 q 152 108 193 82 q 84 168 110 133 q 35 373 35 236 q 72 550 35 481 q 86 571 78 560 q 102 591 94 582 q 117 605 110 600 q 130 610 125 610 q 133 608 132 610 q 125 589 137 604 q 115 557 115 575 q 122 544 115 544 q 139 566 127 544 q 160 600 150 588 q 189 610 168 610 q 214 602 206 610 q 221 589 222 594 q 213 583 220 583 q 177 552 199 583 q 155 502 155 523 q 161 495 155 495 q 184 519 174 495 q 205 550 192 537 q 228 563 218 563 q 233 561 230 563 q 242 529 242 558 q 238 450 242 507 q 237 396 237 414 q 236 375 236 377 q 245 316 236 341 q 340 244 277 249 q 350 244 344 244 q 359 243 355 243 q 397 257 381 243 q 428 306 422 275 q 435 431 435 334 q 441 557 435 547 q 450 563 444 563 q 497 520 478 563 q 523 490 508 490 q 529 499 529 490 q 513 539 529 514 q 481 575 498 566 q 464 591 464 586 q 478 604 464 595 q 487 607 484 606 q 495 608 491 608 q 543 566 521 608 q 565 539 557 539 q 569 549 569 539 q 554 593 569 564 q 552 618 542 618 q 584 597 561 618 q 619 551 605 578 q 624 553 619 551 l 638 558 l 624 574 q 608 597 611 588 q 608 626 605 606 q 608 630 608 628 q 609 634 609 632 q 646 681 617 663 q 706 689 675 698 q 723 681 715 686 q 738 670 730 676 z "},"":{"ha":623,"x_min":35,"x_max":655,"o":"m 609 701 q 640 603 655 660 q 619 564 635 584 q 573 525 600 537 q 520 519 546 514 q 568 442 553 481 q 586 344 583 402 q 587 332 586 339 q 588 322 588 325 q 538 164 588 231 q 438 85 498 112 q 310 58 377 58 q 148 103 225 58 q 64 200 93 139 q 35 330 35 260 q 122 532 35 458 q 156 578 156 561 q 159 597 156 586 q 167 624 161 609 q 178 649 174 639 q 189 666 183 660 q 207 678 201 678 q 241 661 219 678 q 278 626 263 645 q 314 602 296 602 q 359 632 333 602 q 386 658 374 648 q 406 671 398 668 q 418 675 414 674 q 425 677 422 677 q 442 667 429 677 q 464 626 454 659 q 477 579 477 595 q 477 577 477 578 q 478 575 478 576 q 494 584 484 581 l 509 589 l 494 605 q 479 628 483 619 q 478 657 476 638 q 480 666 478 659 q 516 712 488 694 q 576 720 545 729 q 609 701 594 715 m 338 465 q 323 411 323 442 q 331 379 323 387 q 348 372 339 372 q 365 378 356 372 q 381 394 374 384 q 392 416 388 404 q 397 440 397 428 q 391 465 397 455 q 338 465 366 500 m 235 483 q 212 440 212 483 q 228 394 212 414 q 260 373 244 373 q 264 373 263 373 q 267 374 265 374 q 288 411 288 381 q 265 466 288 441 q 235 483 249 483 m 146 368 q 160 333 146 351 q 194 316 175 316 q 203 317 200 316 q 209 318 206 317 q 220 337 220 322 q 204 374 220 352 q 171 391 190 391 q 160 389 164 391 q 149 382 155 387 q 146 368 146 378 m 412 214 q 424 231 421 223 q 427 245 427 240 q 424 259 427 251 q 412 278 421 267 q 405 288 410 281 q 394 307 399 295 q 379 325 387 318 q 366 337 372 332 q 303 354 339 354 q 278 351 289 354 q 262 342 270 348 q 244 329 253 336 q 227 304 227 313 q 212 282 227 296 q 197 245 197 269 q 214 205 197 220 q 310 176 242 176 q 412 214 384 176 m 412 323 q 449 341 431 323 q 468 378 468 360 q 465 388 468 387 q 444 399 461 399 q 404 382 419 399 q 389 351 389 367 q 402 328 389 337 q 412 323 406 323 z "},"":{"ha":896,"x_min":35,"x_max":866,"o":"m 809 674 q 860 461 860 575 q 755 167 860 289 q 716 126 735 144 q 675 95 697 109 q 628 71 653 81 q 572 52 603 60 q 490 41 530 41 q 464 41 476 41 q 443 42 453 41 q 382 46 409 43 q 332 54 355 49 q 288 67 309 59 q 242 88 266 75 q 125 181 177 120 q 50 313 73 242 q 35 427 35 359 l 35 455 q 35 509 35 487 q 37 544 36 531 q 52 606 41 573 q 168 810 93 735 q 206 854 200 845 q 216 890 215 867 q 260 971 227 971 q 325 933 284 971 l 352 907 l 416 907 q 453 908 439 907 q 472 910 466 909 q 494 924 481 911 q 534 958 512 941 q 576 977 556 977 q 618 904 612 977 l 622 863 l 664 833 l 685 819 q 696 823 689 821 l 711 825 l 699 844 q 688 869 690 860 q 691 897 685 878 q 694 905 693 902 q 737 944 706 932 q 799 943 767 958 q 828 920 813 938 q 843 818 866 870 q 816 782 836 803 q 758 751 788 756 q 786 714 773 733 q 809 674 799 694 m 461 646 q 449 598 449 624 q 458 559 449 580 q 491 536 471 536 q 546 574 519 536 q 560 631 560 593 q 547 678 560 662 q 517 692 535 692 q 461 646 479 692 m 334 692 q 305 677 317 692 q 293 638 293 662 q 296 610 293 625 q 308 583 300 596 q 326 559 316 569 q 347 542 336 549 q 368 535 358 535 q 403 564 391 535 q 407 593 407 573 q 376 670 407 637 q 334 692 355 692 m 208 508 q 220 487 212 498 q 239 469 229 477 q 259 457 249 462 q 278 451 270 451 q 304 462 295 451 q 314 488 314 472 q 292 539 314 514 q 240 567 269 567 q 213 557 223 567 q 203 531 203 547 q 208 508 203 525 m 582 310 q 601 358 601 329 q 569 422 601 395 q 557 442 557 433 q 539 471 557 454 q 497 500 521 488 q 434 514 466 514 q 325 454 356 514 q 295 410 313 427 q 273 359 273 388 q 339 277 273 309 q 380 260 365 264 q 403 259 389 259 q 436 258 417 258 q 582 310 538 258 m 639 500 q 659 547 659 523 q 627 579 659 579 q 587 568 609 579 q 554 539 566 557 q 544 506 544 523 q 559 473 544 484 q 580 468 567 468 q 639 500 610 468 z "},"":{"ha":863,"x_min":35,"x_max":964,"o":"m 926 909 q 941 807 964 859 q 914 771 934 792 q 857 739 888 745 q 799 745 826 733 q 791 749 794 748 q 785 753 788 751 q 786 683 786 723 q 787 589 787 642 q 775 322 787 367 q 745 243 766 280 q 691 177 723 206 q 618 125 659 147 q 530 91 578 103 q 428 83 502 83 q 267 98 319 83 q 79 234 125 139 q 35 473 35 322 l 35 488 q 45 679 36 587 q 68 802 56 771 q 124 875 90 855 l 141 887 l 139 845 q 138 834 138 840 q 138 823 138 829 q 146 804 138 804 q 159 839 155 804 q 205 899 163 899 l 226 899 l 213 877 q 203 834 203 860 l 203 824 q 211 793 204 793 q 220 826 216 793 q 234 870 222 854 q 260 887 245 887 q 288 873 274 887 q 309 834 303 855 q 315 757 315 814 q 314 722 315 749 q 313 648 314 694 q 311 558 311 589 q 310 523 310 528 q 318 443 310 468 q 407 365 345 365 q 435 368 421 365 q 512 439 486 382 q 524 492 523 464 q 526 545 525 507 q 527 644 527 582 q 528 755 528 713 q 531 809 529 796 q 561 863 537 839 q 590 888 583 888 q 597 863 597 888 l 597 853 l 597 840 q 606 814 597 814 q 615 819 612 814 q 617 833 617 825 q 617 850 617 841 q 618 862 617 858 q 623 879 618 870 q 636 895 628 888 q 653 907 644 903 q 670 912 662 912 l 688 912 l 672 889 q 659 844 659 866 l 659 832 q 667 799 661 799 q 677 833 674 799 q 698 884 682 868 q 725 898 713 898 q 752 882 736 898 q 781 813 775 859 l 781 808 q 788 810 785 809 q 794 811 791 810 l 809 814 l 797 832 q 786 858 788 848 q 789 885 784 867 q 793 894 792 890 q 836 933 804 920 q 897 932 866 947 q 926 909 911 926 z "},"":{"ha":854,"x_min":36,"x_max":817,"o":"m 507 483 q 428 517 479 517 q 352 486 382 517 q 317 438 336 469 q 299 398 299 406 q 315 362 299 382 q 354 332 331 343 q 426 318 383 318 q 519 341 478 318 q 559 398 559 365 q 550 424 559 410 q 507 483 541 439 m 318 475 q 331 495 331 481 q 310 539 331 515 q 271 563 289 563 q 255 556 262 563 q 247 535 247 547 q 266 492 247 514 q 306 471 285 471 q 318 475 311 471 m 595 561 q 573 569 587 569 q 532 551 551 569 q 514 512 514 532 q 521 491 514 499 q 541 483 529 483 q 559 487 550 483 q 590 511 579 494 q 602 543 602 528 q 595 561 602 554 m 516 645 q 493 657 508 657 q 461 639 476 657 q 440 581 440 615 q 461 539 440 546 q 472 537 468 537 q 509 561 493 537 q 525 612 525 584 q 516 645 525 632 m 378 645 q 348 657 367 657 q 324 646 331 657 q 317 616 317 632 q 335 563 317 587 q 374 538 353 538 q 396 549 385 538 q 406 580 406 560 q 378 645 406 613 m 262 936 q 281 943 269 943 q 334 928 303 943 q 425 912 368 912 q 515 928 481 912 q 567 946 553 946 q 593 926 586 946 q 600 859 600 906 l 600 795 l 627 753 q 734 535 679 676 q 810 281 788 394 q 817 226 817 243 q 814 193 817 211 q 746 84 799 125 q 618 44 693 44 l 604 44 q 542 60 558 47 q 507 105 523 74 q 486 164 491 135 q 464 203 481 196 q 431 207 455 207 q 374 197 384 207 q 363 162 368 191 q 314 67 356 109 q 286 48 296 51 q 233 45 275 45 q 145 60 176 45 q 65 132 95 84 q 36 237 36 179 q 95 480 36 311 q 214 740 155 649 l 250 795 l 252 861 q 262 936 255 927 m 331 1199 q 345 1203 337 1201 q 366 1204 354 1204 q 425 1194 395 1204 q 471 1168 455 1184 q 497 1113 485 1154 q 509 1043 509 1072 q 487 1005 509 1027 q 450 984 466 984 q 352 1054 419 984 q 324 1085 334 1073 q 307 1107 314 1097 q 299 1125 301 1117 q 297 1142 297 1133 q 331 1199 297 1182 z "},"":{"ha":854,"x_min":36,"x_max":817,"o":"m 507 483 q 428 517 479 517 q 352 486 382 517 q 317 438 336 469 q 299 398 299 406 q 315 362 299 382 q 354 332 331 343 q 426 318 383 318 q 519 341 478 318 q 559 398 559 365 q 550 424 559 410 q 507 483 541 439 m 318 475 q 331 495 331 481 q 310 539 331 515 q 271 563 289 563 q 255 556 262 563 q 247 535 247 547 q 266 492 247 514 q 306 471 285 471 q 318 475 311 471 m 595 561 q 573 569 587 569 q 532 551 551 569 q 514 512 514 532 q 521 491 514 499 q 541 483 529 483 q 559 487 550 483 q 590 511 579 494 q 602 543 602 528 q 595 561 602 554 m 516 645 q 493 657 508 657 q 461 639 476 657 q 440 581 440 615 q 461 539 440 546 q 472 537 468 537 q 509 561 493 537 q 525 612 525 584 q 516 645 525 632 m 378 645 q 348 657 367 657 q 324 646 331 657 q 317 616 317 632 q 335 563 317 587 q 374 538 353 538 q 396 549 385 538 q 406 580 406 560 q 378 645 406 613 m 262 936 q 281 943 269 943 q 334 928 303 943 q 425 912 368 912 q 515 928 481 912 q 567 946 553 946 q 593 926 586 946 q 600 859 600 906 l 600 795 l 627 753 q 734 535 679 676 q 810 281 788 394 q 817 226 817 243 q 814 193 817 211 q 746 84 799 125 q 618 44 693 44 l 604 44 q 542 60 558 47 q 507 105 523 74 q 486 164 491 135 q 464 203 481 196 q 431 207 455 207 q 374 197 384 207 q 363 162 368 191 q 314 67 356 109 q 286 48 296 51 q 233 45 275 45 q 145 60 176 45 q 65 132 95 84 q 36 237 36 179 q 95 480 36 311 q 214 740 155 649 l 250 795 l 252 861 q 262 936 255 927 m 579 1139 q 576 1122 579 1130 q 568 1104 574 1113 q 552 1082 563 1094 q 524 1051 542 1069 q 425 980 455 980 q 389 1001 410 980 q 367 1039 367 1023 q 380 1110 367 1073 q 405 1164 391 1150 q 451 1190 420 1181 q 510 1200 481 1200 q 544 1194 532 1200 q 579 1139 579 1178 z "},"":{"ha":854,"x_min":36,"x_max":817,"o":"m 507 483 q 428 517 479 517 q 352 486 382 517 q 317 438 336 469 q 299 398 299 406 q 315 362 299 382 q 354 332 331 343 q 426 318 383 318 q 519 341 478 318 q 559 398 559 365 q 550 424 559 410 q 507 483 541 439 m 318 475 q 331 495 331 481 q 310 539 331 515 q 271 563 289 563 q 255 556 262 563 q 247 535 247 547 q 266 492 247 514 q 306 471 285 471 q 318 475 311 471 m 595 561 q 573 569 587 569 q 532 551 551 569 q 514 512 514 532 q 521 491 514 499 q 541 483 529 483 q 559 487 550 483 q 590 511 579 494 q 602 543 602 528 q 595 561 602 554 m 516 645 q 493 657 508 657 q 461 639 476 657 q 440 581 440 615 q 461 539 440 546 q 472 537 468 537 q 509 561 493 537 q 525 612 525 584 q 516 645 525 632 m 378 645 q 348 657 367 657 q 324 646 331 657 q 317 616 317 632 q 335 563 317 587 q 374 538 353 538 q 396 549 385 538 q 406 580 406 560 q 378 645 406 613 m 262 936 q 281 943 269 943 q 334 928 303 943 q 425 912 368 912 q 515 928 481 912 q 567 946 553 946 q 593 926 586 946 q 600 859 600 906 l 600 795 l 627 753 q 734 535 679 676 q 810 281 788 394 q 817 226 817 243 q 814 193 817 211 q 746 84 799 125 q 618 44 693 44 l 604 44 q 542 60 558 47 q 507 105 523 74 q 486 164 491 135 q 464 203 481 196 q 431 207 455 207 q 374 197 384 207 q 363 162 368 191 q 314 67 356 109 q 286 48 296 51 q 233 45 275 45 q 145 60 176 45 q 65 132 95 84 q 36 237 36 179 q 95 480 36 311 q 214 740 155 649 l 250 795 l 252 861 q 262 936 255 927 m 259 1166 q 301 1174 277 1174 q 436 1115 358 1174 q 485 1089 470 1089 q 508 1106 498 1089 q 574 1162 543 1162 q 616 1138 595 1162 q 637 1091 637 1116 q 624 1052 637 1074 q 565 1001 604 1022 q 487 980 527 980 q 450 988 466 980 q 402 1022 434 997 q 360 1042 376 1042 q 316 1019 343 1042 q 274 995 288 995 q 258 997 265 995 q 199 1047 208 1001 q 197 1066 197 1059 q 214 1126 197 1097 q 259 1166 231 1154 z "},"":{"ha":854,"x_min":36,"x_max":817,"o":"m 507 483 q 428 517 479 517 q 352 486 382 517 q 317 438 336 469 q 299 398 299 406 q 315 362 299 382 q 354 332 331 343 q 426 318 383 318 q 519 341 478 318 q 559 398 559 365 q 550 424 559 410 q 507 483 541 439 m 318 475 q 331 495 331 481 q 310 539 331 515 q 271 563 289 563 q 255 556 262 563 q 247 535 247 547 q 266 492 247 514 q 306 471 285 471 q 318 475 311 471 m 595 561 q 573 569 587 569 q 532 551 551 569 q 514 512 514 532 q 521 491 514 499 q 541 483 529 483 q 559 487 550 483 q 590 511 579 494 q 602 543 602 528 q 595 561 602 554 m 516 645 q 493 657 508 657 q 461 639 476 657 q 440 581 440 615 q 461 539 440 546 q 472 537 468 537 q 509 561 493 537 q 525 612 525 584 q 516 645 525 632 m 378 645 q 348 657 367 657 q 324 646 331 657 q 317 616 317 632 q 335 563 317 587 q 374 538 353 538 q 396 549 385 538 q 406 580 406 560 q 378 645 406 613 m 262 936 q 281 943 269 943 q 334 928 303 943 q 425 912 368 912 q 515 928 481 912 q 567 946 553 946 q 593 926 586 946 q 600 859 600 906 l 600 795 l 627 753 q 734 535 679 676 q 810 281 788 394 q 817 226 817 243 q 814 193 817 211 q 746 84 799 125 q 618 44 693 44 l 604 44 q 542 60 558 47 q 507 105 523 74 q 486 164 491 135 q 464 203 481 196 q 431 207 455 207 q 374 197 384 207 q 363 162 368 191 q 314 67 356 109 q 286 48 296 51 q 233 45 275 45 q 145 60 176 45 q 65 132 95 84 q 36 237 36 179 q 95 480 36 311 q 214 740 155 649 l 250 795 l 252 861 q 262 936 255 927 m 552 1132 q 553 1123 552 1128 q 553 1109 553 1117 q 553 1095 553 1101 q 552 1086 552 1089 q 549 1076 551 1081 q 544 1064 546 1071 q 514 1027 531 1039 q 468 1013 494 1014 l 453 1012 l 453 1008 l 453 1005 q 452 998 453 1002 q 448 991 451 993 q 441 988 443 988 q 412 984 428 984 l 410 984 q 384 992 396 984 q 378 999 380 994 q 378 1002 378 1001 q 377 1005 377 1003 l 377 1028 q 382 1064 377 1054 q 395 1079 388 1075 q 420 1086 402 1083 q 436 1089 434 1089 q 441 1096 439 1091 q 433 1097 439 1096 q 414 1100 427 1098 q 375 1109 389 1101 q 355 1147 355 1123 l 355 1162 q 360 1216 355 1206 q 368 1227 363 1223 q 381 1229 372 1229 q 407 1221 392 1229 q 415 1218 411 1219 q 422 1216 419 1218 q 434 1214 428 1215 q 447 1212 440 1213 q 462 1209 455 1212 q 467 1209 465 1209 q 471 1208 469 1208 q 479 1212 473 1208 q 514 1223 500 1223 q 520 1222 519 1223 q 534 1204 532 1218 q 536 1183 536 1190 q 544 1150 536 1166 q 549 1140 546 1145 q 552 1132 551 1135 z "},"":{"ha":854,"x_min":36,"x_max":817,"o":"m 507 483 q 428 517 479 517 q 352 486 382 517 q 317 438 336 469 q 299 398 299 406 q 315 362 299 382 q 354 332 331 343 q 426 318 383 318 q 519 341 478 318 q 559 398 559 365 q 550 424 559 410 q 507 483 541 439 m 318 475 q 331 495 331 481 q 310 539 331 515 q 271 563 289 563 q 255 556 262 563 q 247 535 247 547 q 266 492 247 514 q 306 471 285 471 q 318 475 311 471 m 595 561 q 573 569 587 569 q 532 551 551 569 q 514 512 514 532 q 521 491 514 499 q 541 483 529 483 q 559 487 550 483 q 590 511 579 494 q 602 543 602 528 q 595 561 602 554 m 516 645 q 493 657 508 657 q 461 639 476 657 q 440 581 440 615 q 461 539 440 546 q 472 537 468 537 q 509 561 493 537 q 525 612 525 584 q 516 645 525 632 m 378 645 q 348 657 367 657 q 324 646 331 657 q 317 616 317 632 q 335 563 317 587 q 374 538 353 538 q 396 549 385 538 q 406 580 406 560 q 378 645 406 613 m 262 936 q 281 943 269 943 q 334 928 303 943 q 425 912 368 912 q 515 928 481 912 q 567 946 553 946 q 593 926 586 946 q 600 859 600 906 l 600 795 l 627 753 q 734 535 679 676 q 810 281 788 394 q 817 226 817 243 q 814 193 817 211 q 746 84 799 125 q 618 44 693 44 l 604 44 q 542 60 558 47 q 507 105 523 74 q 486 164 491 135 q 464 203 481 196 q 431 207 455 207 q 374 197 384 207 q 363 162 368 191 q 314 67 356 109 q 286 48 296 51 q 233 45 275 45 q 145 60 176 45 q 65 132 95 84 q 36 237 36 179 q 95 480 36 311 q 214 740 155 649 l 250 795 l 252 861 q 262 936 255 927 m 422 -157 q 413 -152 413 -157 q 418 -142 413 -147 q 427 -138 422 -138 q 433 -148 433 -138 q 422 -157 433 -157 m 520 -131 q 493 -131 520 -116 q 501 -138 494 -137 q 520 -131 520 -138 m 353 -131 q 332 -131 332 -118 q 348 -138 332 -138 q 358 -137 358 -138 q 353 -131 359 -135 m 473 -61 q 427 -51 453 -51 q 341 -91 363 -51 q 336 -106 336 -103 q 356 -120 336 -112 q 377 -139 377 -128 q 352 -152 377 -152 q 337 -159 337 -154 q 356 -162 341 -166 q 373 -164 373 -159 q 362 -171 373 -171 q 353 -177 353 -171 q 369 -194 353 -184 q 421 -209 391 -209 q 463 -201 443 -209 q 493 -177 493 -190 q 483 -171 493 -171 q 473 -164 473 -171 q 480 -161 473 -161 q 492 -162 484 -161 q 503 -163 500 -163 q 513 -159 513 -163 q 493 -152 513 -152 q 473 -139 473 -152 q 493 -118 473 -125 q 513 -106 513 -112 q 500 -83 513 -97 q 473 -61 487 -68 m 506 -38 q 497 -24 506 -24 q 483 -32 486 -24 q 487 -45 479 -41 q 502 -51 499 -52 q 506 -38 506 -50 m 359 -43 q 368 -31 368 -37 q 360 -25 368 -25 q 346 -38 346 -25 q 348 -47 346 -46 q 359 -43 351 -49 m 326 -36 l 324 -5 l 348 -5 q 380 -14 373 -5 q 421 -24 387 -24 q 469 -14 455 -24 q 501 -5 480 -5 q 517 -9 515 -5 q 520 -35 520 -13 q 530 -86 520 -65 q 539 -126 539 -104 q 515 -192 539 -166 q 428 -233 478 -233 l 422 -233 q 340 -202 373 -231 q 307 -132 307 -172 q 317 -89 307 -110 q 326 -44 326 -71 l 326 -36 z "},"":{"ha":854,"x_min":36,"x_max":817,"o":"m 507 483 q 428 517 479 517 q 352 486 382 517 q 317 438 336 469 q 299 398 299 406 q 315 362 299 382 q 354 332 331 343 q 426 318 383 318 q 519 341 478 318 q 559 398 559 365 q 550 424 559 410 q 507 483 541 439 m 318 475 q 331 495 331 481 q 310 539 331 515 q 271 563 289 563 q 255 556 262 563 q 247 535 247 547 q 266 492 247 514 q 306 471 285 471 q 318 475 311 471 m 595 561 q 573 569 587 569 q 532 551 551 569 q 514 512 514 532 q 521 491 514 499 q 541 483 529 483 q 559 487 550 483 q 590 511 579 494 q 602 543 602 528 q 595 561 602 554 m 516 645 q 493 657 508 657 q 461 639 476 657 q 440 581 440 615 q 461 539 440 546 q 472 537 468 537 q 509 561 493 537 q 525 612 525 584 q 516 645 525 632 m 378 645 q 348 657 367 657 q 324 646 331 657 q 317 616 317 632 q 335 563 317 587 q 374 538 353 538 q 396 549 385 538 q 406 580 406 560 q 378 645 406 613 m 262 936 q 281 943 269 943 q 334 928 303 943 q 425 912 368 912 q 515 928 481 912 q 567 946 553 946 q 593 926 586 946 q 600 859 600 906 l 600 795 l 627 753 q 734 535 679 676 q 810 281 788 394 q 817 226 817 243 q 814 193 817 211 q 746 84 799 125 q 618 44 693 44 l 604 44 q 542 60 558 47 q 507 105 523 74 q 486 164 491 135 q 464 203 481 196 q 431 207 455 207 q 374 197 384 207 q 363 162 368 191 q 314 67 356 109 q 286 48 296 51 q 233 45 275 45 q 145 60 176 45 q 65 132 95 84 q 36 237 36 179 q 95 480 36 311 q 214 740 155 649 l 250 795 l 252 861 q 262 936 255 927 m 563 986 q 565 975 565 979 q 545 958 565 958 q 535 962 535 958 q 535 965 535 964 q 537 969 536 966 q 538 979 538 970 q 527 1005 538 1001 l 524 1005 q 521 993 521 1005 l 521 985 l 521 980 q 515 963 521 963 q 498 971 509 963 q 456 1028 485 979 q 422 1074 431 1074 q 394 1032 414 1074 q 377 1001 383 1013 q 367 985 370 990 q 348 971 362 977 q 331 965 334 965 q 329 968 329 965 q 331 975 329 971 q 337 992 337 983 q 332 1002 337 1002 l 331 1002 q 323 987 328 1001 q 296 965 315 965 q 284 969 288 965 q 280 972 279 971 q 287 977 280 972 q 304 1009 304 988 q 300 1019 304 1019 q 293 1010 295 1020 q 282 988 291 998 q 264 979 273 979 q 259 980 260 979 q 248 1013 248 992 q 294 1123 248 1054 q 336 1167 311 1148 q 387 1191 360 1185 q 424 1196 400 1196 q 480 1186 450 1196 q 527 1162 500 1179 q 547 1144 538 1153 q 563 1125 557 1134 q 603 1016 603 1068 q 586 976 603 986 q 579 972 580 972 q 578 978 578 972 q 573 994 578 986 q 563 1001 567 1001 q 558 999 558 1001 q 563 986 558 995 z "},"":{"ha":854,"x_min":36,"x_max":817,"o":"m 507 483 q 428 517 479 517 q 352 486 382 517 q 317 438 336 469 q 299 398 299 406 q 315 362 299 382 q 354 332 331 343 q 426 318 383 318 q 519 341 478 318 q 559 398 559 365 q 550 424 559 410 q 507 483 541 439 m 318 475 q 331 495 331 481 q 310 539 331 515 q 271 563 289 563 q 255 556 262 563 q 247 535 247 547 q 266 492 247 514 q 306 471 285 471 q 318 475 311 471 m 595 561 q 573 569 587 569 q 532 551 551 569 q 514 512 514 532 q 521 491 514 499 q 541 483 529 483 q 559 487 550 483 q 590 511 579 494 q 602 543 602 528 q 595 561 602 554 m 516 645 q 493 657 508 657 q 461 639 476 657 q 440 581 440 615 q 461 539 440 546 q 472 537 468 537 q 509 561 493 537 q 525 612 525 584 q 516 645 525 632 m 378 645 q 348 657 367 657 q 324 646 331 657 q 317 616 317 632 q 335 563 317 587 q 374 538 353 538 q 396 549 385 538 q 406 580 406 560 q 378 645 406 613 m 262 936 q 281 943 269 943 q 334 928 303 943 q 425 912 368 912 q 515 928 481 912 q 567 946 553 946 q 593 926 586 946 q 600 859 600 906 l 600 795 l 627 753 q 734 535 679 676 q 810 281 788 394 q 817 226 817 243 q 814 193 817 211 q 746 84 799 125 q 618 44 693 44 l 604 44 q 542 60 558 47 q 507 105 523 74 q 486 164 491 135 q 464 203 481 196 q 431 207 455 207 q 374 197 384 207 q 363 162 368 191 q 314 67 356 109 q 286 48 296 51 q 233 45 275 45 q 145 60 176 45 q 65 132 95 84 q 36 237 36 179 q 95 480 36 311 q 214 740 155 649 l 250 795 l 252 861 q 262 936 255 927 m 563 986 q 565 975 565 979 q 545 958 565 958 q 535 962 535 958 q 535 965 535 964 q 537 969 536 966 q 538 979 538 970 q 527 1005 538 1001 l 524 1005 q 521 993 521 1005 l 521 985 l 521 980 q 515 963 521 963 q 498 971 509 963 q 456 1028 485 979 q 422 1074 431 1074 q 394 1032 414 1074 q 377 1001 383 1013 q 367 985 370 990 q 348 971 362 977 q 331 965 334 965 q 329 968 329 965 q 331 975 329 971 q 337 992 337 983 q 332 1002 337 1002 l 331 1002 q 323 987 328 1001 q 296 965 315 965 q 284 969 288 965 q 280 972 279 971 q 287 977 280 972 q 304 1009 304 988 q 300 1019 304 1019 q 293 1010 295 1020 q 282 988 291 998 q 264 979 273 979 q 259 980 260 979 q 248 1013 248 992 q 294 1123 248 1054 q 336 1167 311 1148 q 387 1191 360 1185 q 424 1196 400 1196 q 480 1186 450 1196 q 527 1162 500 1179 q 547 1144 538 1153 q 563 1125 557 1134 q 603 1016 603 1068 q 586 976 603 986 q 579 972 580 972 q 578 978 578 972 q 573 994 578 986 q 563 1001 567 1001 q 558 999 558 1001 q 563 986 558 995 m 91 1333 q 106 1337 97 1336 q 126 1338 115 1338 q 185 1328 155 1338 q 231 1302 215 1318 q 257 1248 245 1288 q 270 1177 270 1206 q 248 1139 270 1161 q 211 1118 227 1118 q 112 1189 179 1118 q 84 1219 95 1207 q 68 1241 74 1231 q 60 1259 61 1251 q 58 1277 58 1267 q 91 1333 58 1316 z "},"":{"ha":854,"x_min":36,"x_max":817,"o":"m 507 483 q 428 517 479 517 q 352 486 382 517 q 317 438 336 469 q 299 398 299 406 q 315 362 299 382 q 354 332 331 343 q 426 318 383 318 q 519 341 478 318 q 559 398 559 365 q 550 424 559 410 q 507 483 541 439 m 318 475 q 331 495 331 481 q 310 539 331 515 q 271 563 289 563 q 255 556 262 563 q 247 535 247 547 q 266 492 247 514 q 306 471 285 471 q 318 475 311 471 m 595 561 q 573 569 587 569 q 532 551 551 569 q 514 512 514 532 q 521 491 514 499 q 541 483 529 483 q 559 487 550 483 q 590 511 579 494 q 602 543 602 528 q 595 561 602 554 m 516 645 q 493 657 508 657 q 461 639 476 657 q 440 581 440 615 q 461 539 440 546 q 472 537 468 537 q 509 561 493 537 q 525 612 525 584 q 516 645 525 632 m 378 645 q 348 657 367 657 q 324 646 331 657 q 317 616 317 632 q 335 563 317 587 q 374 538 353 538 q 396 549 385 538 q 406 580 406 560 q 378 645 406 613 m 262 936 q 281 943 269 943 q 334 928 303 943 q 425 912 368 912 q 515 928 481 912 q 567 946 553 946 q 593 926 586 946 q 600 859 600 906 l 600 795 l 627 753 q 734 535 679 676 q 810 281 788 394 q 817 226 817 243 q 814 193 817 211 q 746 84 799 125 q 618 44 693 44 l 604 44 q 542 60 558 47 q 507 105 523 74 q 486 164 491 135 q 464 203 481 196 q 431 207 455 207 q 374 197 384 207 q 363 162 368 191 q 314 67 356 109 q 286 48 296 51 q 233 45 275 45 q 145 60 176 45 q 65 132 95 84 q 36 237 36 179 q 95 480 36 311 q 214 740 155 649 l 250 795 l 252 861 q 262 936 255 927 m 563 986 q 565 975 565 979 q 545 958 565 958 q 535 962 535 958 q 535 965 535 964 q 537 969 536 966 q 538 979 538 970 q 527 1005 538 1001 l 524 1005 q 521 993 521 1005 l 521 985 l 521 980 q 515 963 521 963 q 498 971 509 963 q 456 1028 485 979 q 422 1074 431 1074 q 394 1032 414 1074 q 377 1001 383 1013 q 367 985 370 990 q 348 971 362 977 q 331 965 334 965 q 329 968 329 965 q 331 975 329 971 q 337 992 337 983 q 332 1002 337 1002 l 331 1002 q 323 987 328 1001 q 296 965 315 965 q 284 969 288 965 q 280 972 279 971 q 287 977 280 972 q 304 1009 304 988 q 300 1019 304 1019 q 293 1010 295 1020 q 282 988 291 998 q 264 979 273 979 q 259 980 260 979 q 248 1013 248 992 q 294 1123 248 1054 q 336 1167 311 1148 q 387 1191 360 1185 q 424 1196 400 1196 q 480 1186 450 1196 q 527 1162 500 1179 q 547 1144 538 1153 q 563 1125 557 1134 q 603 1016 603 1068 q 586 976 603 986 q 579 972 580 972 q 578 978 578 972 q 573 994 578 986 q 563 1001 567 1001 q 558 999 558 1001 q 563 986 558 995 m 808 1277 q 806 1259 808 1267 q 797 1241 803 1251 q 781 1219 792 1231 q 753 1189 771 1207 q 654 1118 684 1118 q 618 1139 639 1118 q 596 1177 596 1161 q 609 1248 596 1211 q 634 1302 620 1288 q 680 1328 649 1318 q 740 1338 711 1338 q 773 1332 762 1338 q 808 1277 808 1316 z "},"":{"ha":854,"x_min":36,"x_max":1020,"o":"m 507 483 q 428 517 479 517 q 352 486 382 517 q 317 438 336 469 q 299 398 299 406 q 315 362 299 382 q 354 332 331 343 q 426 318 383 318 q 519 341 478 318 q 559 398 559 365 q 550 424 559 410 q 507 483 541 439 m 318 475 q 331 495 331 481 q 310 539 331 515 q 271 563 289 563 q 255 556 262 563 q 247 535 247 547 q 266 492 247 514 q 306 471 285 471 q 318 475 311 471 m 595 561 q 573 569 587 569 q 532 551 551 569 q 514 512 514 532 q 521 491 514 499 q 541 483 529 483 q 559 487 550 483 q 590 511 579 494 q 602 543 602 528 q 595 561 602 554 m 516 645 q 493 657 508 657 q 461 639 476 657 q 440 581 440 615 q 461 539 440 546 q 472 537 468 537 q 509 561 493 537 q 525 612 525 584 q 516 645 525 632 m 378 645 q 348 657 367 657 q 324 646 331 657 q 317 616 317 632 q 335 563 317 587 q 374 538 353 538 q 396 549 385 538 q 406 580 406 560 q 378 645 406 613 m 262 936 q 281 943 269 943 q 334 928 303 943 q 425 912 368 912 q 515 928 481 912 q 567 946 553 946 q 593 926 586 946 q 600 859 600 906 l 600 795 l 627 753 q 734 535 679 676 q 810 281 788 394 q 817 226 817 243 q 814 193 817 211 q 746 84 799 125 q 618 44 693 44 l 604 44 q 542 60 558 47 q 507 105 523 74 q 486 164 491 135 q 464 203 481 196 q 431 207 455 207 q 374 197 384 207 q 363 162 368 191 q 314 67 356 109 q 286 48 296 51 q 233 45 275 45 q 145 60 176 45 q 65 132 95 84 q 36 237 36 179 q 95 480 36 311 q 214 740 155 649 l 250 795 l 252 861 q 262 936 255 927 m 563 986 q 565 975 565 979 q 545 958 565 958 q 535 962 535 958 q 535 965 535 964 q 537 969 536 966 q 538 979 538 970 q 527 1005 538 1001 l 524 1005 q 521 993 521 1005 l 521 985 l 521 980 q 515 963 521 963 q 498 971 509 963 q 456 1028 485 979 q 422 1074 431 1074 q 394 1032 414 1074 q 377 1001 383 1013 q 367 985 370 990 q 348 971 362 977 q 331 965 334 965 q 329 968 329 965 q 331 975 329 971 q 337 992 337 983 q 332 1002 337 1002 l 331 1002 q 323 987 328 1001 q 296 965 315 965 q 284 969 288 965 q 280 972 279 971 q 287 977 280 972 q 304 1009 304 988 q 300 1019 304 1019 q 293 1010 295 1020 q 282 988 291 998 q 264 979 273 979 q 259 980 260 979 q 248 1013 248 992 q 294 1123 248 1054 q 336 1167 311 1148 q 387 1191 360 1185 q 424 1196 400 1196 q 480 1186 450 1196 q 527 1162 500 1179 q 547 1144 538 1153 q 563 1125 557 1134 q 603 1016 603 1068 q 586 976 603 986 q 579 972 580 972 q 578 978 578 972 q 573 994 578 986 q 563 1001 567 1001 q 558 999 558 1001 q 563 986 558 995 m 642 1303 q 684 1311 660 1311 q 819 1252 741 1311 q 868 1227 853 1227 q 891 1244 881 1227 q 957 1300 926 1300 q 999 1275 978 1300 q 1020 1229 1020 1253 q 1007 1190 1020 1212 q 948 1139 987 1160 q 870 1118 910 1118 q 833 1126 850 1118 q 785 1160 817 1134 q 743 1179 759 1179 q 699 1156 726 1179 q 657 1133 671 1133 q 641 1134 648 1133 q 582 1185 591 1139 q 580 1204 580 1197 q 597 1263 580 1235 q 642 1303 615 1292 z "},"":{"ha":854,"x_min":36,"x_max":817,"o":"m 507 483 q 428 517 479 517 q 352 486 382 517 q 317 438 336 469 q 299 398 299 406 q 315 362 299 382 q 354 332 331 343 q 426 318 383 318 q 519 341 478 318 q 559 398 559 365 q 550 424 559 410 q 507 483 541 439 m 318 475 q 331 495 331 481 q 310 539 331 515 q 271 563 289 563 q 255 556 262 563 q 247 535 247 547 q 266 492 247 514 q 306 471 285 471 q 318 475 311 471 m 595 561 q 573 569 587 569 q 532 551 551 569 q 514 512 514 532 q 521 491 514 499 q 541 483 529 483 q 559 487 550 483 q 590 511 579 494 q 602 543 602 528 q 595 561 602 554 m 516 645 q 493 657 508 657 q 461 639 476 657 q 440 581 440 615 q 461 539 440 546 q 472 537 468 537 q 509 561 493 537 q 525 612 525 584 q 516 645 525 632 m 378 645 q 348 657 367 657 q 324 646 331 657 q 317 616 317 632 q 335 563 317 587 q 374 538 353 538 q 396 549 385 538 q 406 580 406 560 q 378 645 406 613 m 262 936 q 281 943 269 943 q 334 928 303 943 q 425 912 368 912 q 515 928 481 912 q 567 946 553 946 q 593 926 586 946 q 600 859 600 906 l 600 795 l 627 753 q 734 535 679 676 q 810 281 788 394 q 817 226 817 243 q 814 193 817 211 q 746 84 799 125 q 618 44 693 44 l 604 44 q 542 60 558 47 q 507 105 523 74 q 486 164 491 135 q 464 203 481 196 q 431 207 455 207 q 374 197 384 207 q 363 162 368 191 q 314 67 356 109 q 286 48 296 51 q 233 45 275 45 q 145 60 176 45 q 65 132 95 84 q 36 237 36 179 q 95 480 36 311 q 214 740 155 649 l 250 795 l 252 861 q 262 936 255 927 m 563 986 q 565 975 565 979 q 545 958 565 958 q 535 962 535 958 q 535 965 535 964 q 537 969 536 966 q 538 979 538 970 q 527 1005 538 1001 l 524 1005 q 521 993 521 1005 l 521 985 l 521 980 q 515 963 521 963 q 498 971 509 963 q 456 1028 485 979 q 422 1074 431 1074 q 394 1032 414 1074 q 377 1001 383 1013 q 367 985 370 990 q 348 971 362 977 q 331 965 334 965 q 329 968 329 965 q 331 975 329 971 q 337 992 337 983 q 332 1002 337 1002 l 331 1002 q 323 987 328 1001 q 296 965 315 965 q 284 969 288 965 q 280 972 279 971 q 287 977 280 972 q 304 1009 304 988 q 300 1019 304 1019 q 293 1010 295 1020 q 282 988 291 998 q 264 979 273 979 q 259 980 260 979 q 248 1013 248 992 q 294 1123 248 1054 q 336 1167 311 1148 q 387 1191 360 1185 q 424 1196 400 1196 q 480 1186 450 1196 q 527 1162 500 1179 q 547 1144 538 1153 q 563 1125 557 1134 q 603 1016 603 1068 q 586 976 603 986 q 579 972 580 972 q 578 978 578 972 q 573 994 578 986 q 563 1001 567 1001 q 558 999 558 1001 q 563 986 558 995 m 797 1236 q 798 1227 797 1233 q 799 1213 799 1221 q 798 1199 799 1205 q 797 1190 797 1193 q 794 1180 796 1185 q 789 1168 792 1175 q 759 1131 777 1144 q 713 1117 740 1118 l 698 1116 l 698 1112 l 698 1109 q 697 1102 698 1106 q 693 1095 697 1097 q 686 1093 689 1093 q 657 1088 674 1088 l 655 1088 q 630 1096 641 1088 q 624 1103 625 1098 q 623 1106 624 1105 q 623 1109 623 1108 l 623 1132 q 627 1168 623 1159 q 640 1183 633 1179 q 666 1190 647 1188 q 682 1193 679 1193 q 686 1200 684 1196 q 678 1201 684 1200 q 660 1204 672 1203 q 620 1213 634 1205 q 601 1251 601 1227 l 601 1266 q 605 1321 601 1310 q 613 1331 609 1328 q 626 1333 617 1333 q 653 1325 638 1333 q 660 1322 656 1323 q 668 1321 664 1322 q 679 1318 674 1319 q 692 1316 685 1317 q 707 1314 700 1316 q 712 1313 711 1314 q 716 1313 714 1313 q 725 1316 719 1313 q 759 1328 745 1328 q 765 1326 764 1328 q 780 1308 778 1322 q 781 1287 781 1294 q 789 1255 781 1270 q 794 1244 792 1249 q 797 1236 796 1240 z "},"":{"ha":854,"x_min":36,"x_max":817,"o":"m 422 -157 q 413 -152 413 -157 q 418 -142 413 -147 q 427 -138 422 -138 q 433 -148 433 -138 q 422 -157 433 -157 m 520 -131 q 493 -131 520 -116 q 501 -138 494 -137 q 520 -131 520 -138 m 353 -131 q 332 -131 332 -118 q 348 -138 332 -138 q 358 -137 358 -138 q 353 -131 359 -135 m 473 -61 q 427 -51 453 -51 q 341 -91 363 -51 q 336 -106 336 -103 q 356 -120 336 -112 q 377 -139 377 -128 q 352 -152 377 -152 q 337 -159 337 -154 q 356 -162 341 -166 q 373 -164 373 -159 q 362 -171 373 -171 q 353 -177 353 -171 q 369 -194 353 -184 q 421 -209 391 -209 q 463 -201 443 -209 q 493 -177 493 -190 q 483 -171 493 -171 q 473 -164 473 -171 q 480 -161 473 -161 q 492 -162 484 -161 q 503 -163 500 -163 q 513 -159 513 -163 q 493 -152 513 -152 q 473 -139 473 -152 q 493 -118 473 -125 q 513 -106 513 -112 q 500 -83 513 -97 q 473 -61 487 -68 m 506 -38 q 497 -24 506 -24 q 483 -32 486 -24 q 487 -45 479 -41 q 502 -51 499 -52 q 506 -38 506 -50 m 359 -43 q 368 -31 368 -37 q 360 -25 368 -25 q 346 -38 346 -25 q 348 -47 346 -46 q 359 -43 351 -49 m 326 -36 l 324 -5 l 348 -5 q 380 -14 373 -5 q 421 -24 387 -24 q 469 -14 455 -24 q 501 -5 480 -5 q 517 -9 515 -5 q 520 -35 520 -13 q 530 -86 520 -65 q 539 -126 539 -104 q 515 -192 539 -166 q 428 -233 478 -233 l 422 -233 q 340 -202 373 -231 q 307 -132 307 -172 q 317 -89 307 -110 q 326 -44 326 -71 l 326 -36 m 507 483 q 428 517 479 517 q 352 486 382 517 q 317 438 336 469 q 299 398 299 406 q 315 362 299 382 q 354 332 331 343 q 426 318 383 318 q 519 341 478 318 q 559 398 559 365 q 550 424 559 410 q 507 483 541 439 m 318 475 q 331 495 331 481 q 310 539 331 515 q 271 563 289 563 q 255 556 262 563 q 247 535 247 547 q 266 492 247 514 q 306 471 285 471 q 318 475 311 471 m 595 561 q 573 569 587 569 q 532 551 551 569 q 514 512 514 532 q 521 491 514 499 q 541 483 529 483 q 559 487 550 483 q 590 511 579 494 q 602 543 602 528 q 595 561 602 554 m 516 645 q 493 657 508 657 q 461 639 476 657 q 440 581 440 615 q 461 539 440 546 q 472 537 468 537 q 509 561 493 537 q 525 612 525 584 q 516 645 525 632 m 378 645 q 348 657 367 657 q 324 646 331 657 q 317 616 317 632 q 335 563 317 587 q 374 538 353 538 q 396 549 385 538 q 406 580 406 560 q 378 645 406 613 m 262 936 q 281 943 269 943 q 334 928 303 943 q 425 912 368 912 q 515 928 481 912 q 567 946 553 946 q 593 926 586 946 q 600 859 600 906 l 600 795 l 627 753 q 734 535 679 676 q 810 281 788 394 q 817 226 817 243 q 814 193 817 211 q 746 84 799 125 q 618 44 693 44 l 604 44 q 542 60 558 47 q 507 105 523 74 q 486 164 491 135 q 464 203 481 196 q 431 207 455 207 q 374 197 384 207 q 363 162 368 191 q 314 67 356 109 q 286 48 296 51 q 233 45 275 45 q 145 60 176 45 q 65 132 95 84 q 36 237 36 179 q 95 480 36 311 q 214 740 155 649 l 250 795 l 252 861 q 262 936 255 927 m 563 986 q 565 975 565 979 q 545 958 565 958 q 535 962 535 958 q 535 965 535 964 q 537 969 536 966 q 538 979 538 970 q 527 1005 538 1001 l 524 1005 q 521 993 521 1005 l 521 985 l 521 980 q 515 963 521 963 q 498 971 509 963 q 456 1028 485 979 q 422 1074 431 1074 q 394 1032 414 1074 q 377 1001 383 1013 q 367 985 370 990 q 348 971 362 977 q 331 965 334 965 q 329 968 329 965 q 331 975 329 971 q 337 992 337 983 q 332 1002 337 1002 l 331 1002 q 323 987 328 1001 q 296 965 315 965 q 284 969 288 965 q 280 972 279 971 q 287 977 280 972 q 304 1009 304 988 q 300 1019 304 1019 q 293 1010 295 1020 q 282 988 291 998 q 264 979 273 979 q 259 980 260 979 q 248 1013 248 992 q 294 1123 248 1054 q 336 1167 311 1148 q 387 1191 360 1185 q 424 1196 400 1196 q 480 1186 450 1196 q 527 1162 500 1179 q 547 1144 538 1153 q 563 1125 557 1134 q 603 1016 603 1068 q 586 976 603 986 q 579 972 580 972 q 578 978 578 972 q 573 994 578 986 q 563 1001 567 1001 q 558 999 558 1001 q 563 986 558 995 z "},"":{"ha":854,"x_min":36,"x_max":817,"o":"m 507 483 q 428 517 479 517 q 352 486 382 517 q 317 438 336 469 q 299 398 299 406 q 315 362 299 382 q 354 332 331 343 q 426 318 383 318 q 519 341 478 318 q 559 398 559 365 q 550 424 559 410 q 507 483 541 439 m 318 475 q 331 495 331 481 q 310 539 331 515 q 271 563 289 563 q 255 556 262 563 q 247 535 247 547 q 266 492 247 514 q 306 471 285 471 q 318 475 311 471 m 595 561 q 573 569 587 569 q 532 551 551 569 q 514 512 514 532 q 521 491 514 499 q 541 483 529 483 q 559 487 550 483 q 590 511 579 494 q 602 543 602 528 q 595 561 602 554 m 516 645 q 493 657 508 657 q 461 639 476 657 q 440 581 440 615 q 461 539 440 546 q 472 537 468 537 q 509 561 493 537 q 525 612 525 584 q 516 645 525 632 m 378 645 q 348 657 367 657 q 324 646 331 657 q 317 616 317 632 q 335 563 317 587 q 374 538 353 538 q 396 549 385 538 q 406 580 406 560 q 378 645 406 613 m 262 936 q 281 943 269 943 q 334 928 303 943 q 425 912 368 912 q 515 928 481 912 q 567 946 553 946 q 593 926 586 946 q 600 859 600 906 l 600 795 l 627 753 q 734 535 679 676 q 810 281 788 394 q 817 226 817 243 q 814 193 817 211 q 746 84 799 125 q 618 44 693 44 l 604 44 q 542 60 558 47 q 507 105 523 74 q 486 164 491 135 q 464 203 481 196 q 431 207 455 207 q 374 197 384 207 q 363 162 368 191 q 314 67 356 109 q 286 48 296 51 q 233 45 275 45 q 145 60 176 45 q 65 132 95 84 q 36 237 36 179 q 95 480 36 311 q 214 740 155 649 l 250 795 l 252 861 q 262 936 255 927 m 286 1144 q 284 1154 284 1147 q 302 1169 284 1169 q 313 1166 313 1169 q 310 1160 313 1162 q 310 1156 310 1159 q 309 1150 309 1154 q 322 1126 309 1130 l 323 1126 q 326 1137 326 1126 l 326 1144 l 326 1148 q 333 1166 326 1166 q 350 1157 337 1166 q 365 1139 358 1153 q 382 1102 372 1126 q 391 1080 387 1093 q 406 1063 396 1068 q 427 1060 414 1059 q 446 1066 439 1060 q 455 1081 453 1072 q 461 1100 458 1090 q 472 1130 466 1119 q 480 1145 477 1140 q 499 1157 488 1153 q 516 1163 513 1163 q 520 1161 520 1163 q 516 1155 520 1159 q 510 1138 510 1147 q 515 1128 510 1128 l 516 1128 q 524 1142 519 1128 q 551 1163 532 1163 q 565 1160 558 1163 q 568 1157 568 1157 q 561 1152 567 1156 q 544 1122 544 1141 q 549 1112 544 1112 q 556 1120 553 1112 q 566 1141 558 1132 q 583 1150 574 1150 q 588 1148 586 1150 q 601 1118 601 1138 q 592 1067 601 1091 q 567 1021 583 1042 q 553 1003 561 1014 q 531 983 545 993 q 494 965 516 973 q 441 956 472 957 q 391 959 418 955 q 344 970 365 963 q 274 1024 300 986 q 245 1109 248 1061 l 245 1115 q 262 1153 245 1142 q 269 1156 267 1156 q 270 1150 270 1156 q 274 1135 270 1144 q 285 1129 280 1128 q 289 1132 289 1130 q 286 1144 289 1133 z "},"":{"ha":854,"x_min":36,"x_max":817,"o":"m 507 483 q 428 517 479 517 q 352 486 382 517 q 317 438 336 469 q 299 398 299 406 q 315 362 299 382 q 354 332 331 343 q 426 318 383 318 q 519 341 478 318 q 559 398 559 365 q 550 424 559 410 q 507 483 541 439 m 318 475 q 331 495 331 481 q 310 539 331 515 q 271 563 289 563 q 255 556 262 563 q 247 535 247 547 q 266 492 247 514 q 306 471 285 471 q 318 475 311 471 m 595 561 q 573 569 587 569 q 532 551 551 569 q 514 512 514 532 q 521 491 514 499 q 541 483 529 483 q 559 487 550 483 q 590 511 579 494 q 602 543 602 528 q 595 561 602 554 m 516 645 q 493 657 508 657 q 461 639 476 657 q 440 581 440 615 q 461 539 440 546 q 472 537 468 537 q 509 561 493 537 q 525 612 525 584 q 516 645 525 632 m 378 645 q 348 657 367 657 q 324 646 331 657 q 317 616 317 632 q 335 563 317 587 q 374 538 353 538 q 396 549 385 538 q 406 580 406 560 q 378 645 406 613 m 262 936 q 281 943 269 943 q 334 928 303 943 q 425 912 368 912 q 515 928 481 912 q 567 946 553 946 q 593 926 586 946 q 600 859 600 906 l 600 795 l 627 753 q 734 535 679 676 q 810 281 788 394 q 817 226 817 243 q 814 193 817 211 q 746 84 799 125 q 618 44 693 44 l 604 44 q 542 60 558 47 q 507 105 523 74 q 486 164 491 135 q 464 203 481 196 q 431 207 455 207 q 374 197 384 207 q 363 162 368 191 q 314 67 356 109 q 286 48 296 51 q 233 45 275 45 q 145 60 176 45 q 65 132 95 84 q 36 237 36 179 q 95 480 36 311 q 214 740 155 649 l 250 795 l 252 861 q 262 936 255 927 m 286 1144 q 284 1154 284 1147 q 302 1169 284 1169 q 313 1166 313 1169 q 310 1160 313 1162 q 310 1156 310 1159 q 309 1150 309 1154 q 322 1126 309 1130 l 323 1126 q 326 1137 326 1126 l 326 1144 l 326 1148 q 333 1166 326 1166 q 350 1157 337 1166 q 365 1139 358 1153 q 382 1102 372 1126 q 391 1080 387 1093 q 406 1063 396 1068 q 427 1060 414 1059 q 446 1066 439 1060 q 455 1081 453 1072 q 461 1100 458 1090 q 472 1130 466 1119 q 480 1145 477 1140 q 499 1157 488 1153 q 516 1163 513 1163 q 520 1161 520 1163 q 516 1155 520 1159 q 510 1138 510 1147 q 515 1128 510 1128 l 516 1128 q 524 1142 519 1128 q 551 1163 532 1163 q 565 1160 558 1163 q 568 1157 568 1157 q 561 1152 567 1156 q 544 1122 544 1141 q 549 1112 544 1112 q 556 1120 553 1112 q 566 1141 558 1132 q 583 1150 574 1150 q 588 1148 586 1150 q 601 1118 601 1138 q 592 1067 601 1091 q 567 1021 583 1042 q 553 1003 561 1014 q 531 983 545 993 q 494 965 516 973 q 441 956 472 957 q 391 959 418 955 q 344 970 365 963 q 274 1024 300 986 q 245 1109 248 1061 l 245 1115 q 262 1153 245 1142 q 269 1156 267 1156 q 270 1150 270 1156 q 274 1135 270 1144 q 285 1129 280 1128 q 289 1132 289 1130 q 286 1144 289 1133 m 306 1362 q 320 1366 311 1365 q 340 1367 329 1367 q 399 1357 369 1367 q 446 1331 429 1347 q 471 1277 459 1317 q 484 1206 484 1235 q 462 1168 484 1190 q 425 1147 441 1147 q 326 1218 394 1147 q 299 1248 309 1236 q 282 1270 288 1260 q 274 1288 275 1280 q 272 1306 272 1296 q 306 1362 272 1345 z "},"":{"ha":854,"x_min":36,"x_max":817,"o":"m 507 483 q 428 517 479 517 q 352 486 382 517 q 317 438 336 469 q 299 398 299 406 q 315 362 299 382 q 354 332 331 343 q 426 318 383 318 q 519 341 478 318 q 559 398 559 365 q 550 424 559 410 q 507 483 541 439 m 318 475 q 331 495 331 481 q 310 539 331 515 q 271 563 289 563 q 255 556 262 563 q 247 535 247 547 q 266 492 247 514 q 306 471 285 471 q 318 475 311 471 m 595 561 q 573 569 587 569 q 532 551 551 569 q 514 512 514 532 q 521 491 514 499 q 541 483 529 483 q 559 487 550 483 q 590 511 579 494 q 602 543 602 528 q 595 561 602 554 m 516 645 q 493 657 508 657 q 461 639 476 657 q 440 581 440 615 q 461 539 440 546 q 472 537 468 537 q 509 561 493 537 q 525 612 525 584 q 516 645 525 632 m 378 645 q 348 657 367 657 q 324 646 331 657 q 317 616 317 632 q 335 563 317 587 q 374 538 353 538 q 396 549 385 538 q 406 580 406 560 q 378 645 406 613 m 262 936 q 281 943 269 943 q 334 928 303 943 q 425 912 368 912 q 515 928 481 912 q 567 946 553 946 q 593 926 586 946 q 600 859 600 906 l 600 795 l 627 753 q 734 535 679 676 q 810 281 788 394 q 817 226 817 243 q 814 193 817 211 q 746 84 799 125 q 618 44 693 44 l 604 44 q 542 60 558 47 q 507 105 523 74 q 486 164 491 135 q 464 203 481 196 q 431 207 455 207 q 374 197 384 207 q 363 162 368 191 q 314 67 356 109 q 286 48 296 51 q 233 45 275 45 q 145 60 176 45 q 65 132 95 84 q 36 237 36 179 q 95 480 36 311 q 214 740 155 649 l 250 795 l 252 861 q 262 936 255 927 m 286 1144 q 284 1154 284 1147 q 302 1169 284 1169 q 313 1166 313 1169 q 310 1160 313 1162 q 310 1156 310 1159 q 309 1150 309 1154 q 322 1126 309 1130 l 323 1126 q 326 1137 326 1126 l 326 1144 l 326 1148 q 333 1166 326 1166 q 350 1157 337 1166 q 365 1139 358 1153 q 382 1102 372 1126 q 391 1080 387 1093 q 406 1063 396 1068 q 427 1060 414 1059 q 446 1066 439 1060 q 455 1081 453 1072 q 461 1100 458 1090 q 472 1130 466 1119 q 480 1145 477 1140 q 499 1157 488 1153 q 516 1163 513 1163 q 520 1161 520 1163 q 516 1155 520 1159 q 510 1138 510 1147 q 515 1128 510 1128 l 516 1128 q 524 1142 519 1128 q 551 1163 532 1163 q 565 1160 558 1163 q 568 1157 568 1157 q 561 1152 567 1156 q 544 1122 544 1141 q 549 1112 544 1112 q 556 1120 553 1112 q 566 1141 558 1132 q 583 1150 574 1150 q 588 1148 586 1150 q 601 1118 601 1138 q 592 1067 601 1091 q 567 1021 583 1042 q 553 1003 561 1014 q 531 983 545 993 q 494 965 516 973 q 441 956 472 957 q 391 959 418 955 q 344 970 365 963 q 274 1024 300 986 q 245 1109 248 1061 l 245 1115 q 262 1153 245 1142 q 269 1156 267 1156 q 270 1150 270 1156 q 274 1135 270 1144 q 285 1129 280 1128 q 289 1132 289 1130 q 286 1144 289 1133 m 569 1306 q 567 1288 569 1296 q 559 1270 565 1280 q 543 1248 553 1260 q 515 1218 532 1236 q 416 1147 446 1147 q 380 1168 400 1147 q 358 1206 358 1190 q 370 1277 358 1240 q 396 1331 382 1317 q 442 1357 411 1347 q 501 1367 472 1367 q 535 1361 523 1367 q 569 1306 569 1345 z "}}}
